{
.appVersion = "3075";
DisplayStrings = (
EGGLESTON,
"/E.isol",
"/A.isol/AE.isol/B.isol/C.isol/D.isol/Eth.isol/E.isol/F.isol/G.isol/H.isol/Hbar.isol/I.isol/J.isol/K.isol/L.isol/Lslash.isol/M.isol/N.isol/Eng.isol/O.isol/Oslash.isol/OE.isol/P.isol/Thorn.isol/Q.isol/R.isol/S.isol/T.isol/Tbar.isol/U.isol/V.isol/W.isol/X.isol/Y.isol/Z.isol",
"/L.isol",
"/S.isol"
);
classes = (
{
automatic = 1;

glyphs = (
{
glyphname = A;
lastChange = "2021-04-29 15:54:39 +0000";
layers = (
{
anchors = (
{
name = bottom;
position = "{746, -240}";
},
{
name = ogonek;
position = "{1010, -240}";
},
{
name = top;
position = "{746, 1400}";
}
);
layerId = m003;
paths = (
{
closed = 1;
nodes = (
"502 -340 OFFCURVE",
"546 -298 OFFCURVE",
"548 -245 CURVE SMOOTH",
"577 298 LINE",
"910 298 LINE",
"910 -240 LINE SMOOTH",
"910 -296 OFFCURVE",
"954 -340 OFFCURVE",
"1010 -340 CURVE SMOOTH",
"1066 -340 OFFCURVE",
"1110 -296 OFFCURVE",
"1110 -240 CURVE SMOOTH",
"1110 -99 LINE",
"1116 -100 OFFCURVE",
"1122 -100 OFFCURVE",
"1128 -100 CURVE SMOOTH",
"1278 -100 LINE SMOOTH",
"1334 -100 OFFCURVE",
"1378 -56 OFFCURVE",
"1378 0 CURVE SMOOTH",
"1378 56 OFFCURVE",
"1334 100 OFFCURVE",
"1278 100 CURVE SMOOTH",
"1128 100 LINE SMOOTH",
"1110 100 OFFCURVE",
"1110 100 OFFCURVE",
"1110 120 CURVE SMOOTH",
"1110 1280 LINE SMOOTH",
"1110 1416 OFFCURVE",
"1026 1500 OFFCURVE",
"890 1500 CURVE SMOOTH",
"68 1500 LINE SMOOTH",
"12 1500 OFFCURVE",
"-32 1456 OFFCURVE",
"-32 1400 CURVE SMOOTH",
"-32 1344 OFFCURVE",
"12 1300 OFFCURVE",
"68 1300 CURVE SMOOTH",
"429 1300 LINE",
"429 1295 OFFCURVE",
"428 1290 OFFCURVE",
"428 1286 CURVE SMOOTH",
"387 498 LINE",
"248 498 LINE SMOOTH",
"192 498 OFFCURVE",
"148 454 OFFCURVE",
"148 398 CURVE SMOOTH",
"148 342 OFFCURVE",
"192 298 OFFCURVE",
"248 298 CURVE SMOOTH",
"376 298 LINE",
"348 -235 LINE SMOOTH",
"346 -291 OFFCURVE",
"391 -340 OFFCURVE",
"448 -340 CURVE SMOOTH"
);
},
{
closed = 1;
nodes = (
"628 1275 LINE SMOOTH",
"629 1300 OFFCURVE",
"629 1300 OFFCURVE",
"646 1300 CURVE SMOOTH",
"890 1300 LINE SMOOTH",
"910 1300 OFFCURVE",
"910 1300 OFFCURVE",
"910 1280 CURVE SMOOTH",
"910 498 LINE",
"587 498 LINE"
);
}
);
width = 1278;
},
{
anchors = (
{
name = bottom;
position = "{1088, -240}";
},
{
name = ogonek;
position = "{1352, -240}";
},
{
name = top;
position = "{491, 1400}";
}
);
layerId = m002;
paths = (
{
closed = 1;
nodes = (
"825 -290 OFFCURVE",
"845 -261 OFFCURVE",
"838 -225 CURVE SMOOTH",
"659.691 348 LINE",
"1084.871 348 LINE",
"1305 -257 LINE",
"1312 -276 OFFCURVE",
"1330 -290 OFFCURVE",
"1352 -290 CURVE SMOOTH",
"1392 -290 OFFCURVE",
"1410 -249 OFFCURVE",
"1399 -223 CURVE SMOOTH",
"1333.65 -43.201 LINE",
"1349.931 -47.632 OFFCURVE",
"1366.519 -50 OFFCURVE",
"1383 -50 CURVE SMOOTH",
"1533 -50 LINE SMOOTH",
"1561 -50 OFFCURVE",
"1583 -28 OFFCURVE",
"1583 0 CURVE SMOOTH",
"1583 28 OFFCURVE",
"1561 50 OFFCURVE",
"1533 50 CURVE SMOOTH",
"1383 50 LINE SMOOTH",
"1334.721 50 OFFCURVE",
"1291.103 80.768 OFFCURVE",
"1270.153 131.5 CURVE",
"846 1297 LINE",
"810 1396 OFFCURVE",
"736 1450 OFFCURVE",
"635 1450 CURVE SMOOTH",
"-187 1450 LINE SMOOTH",
"-215 1450 OFFCURVE",
"-237 1428 OFFCURVE",
"-237 1400 CURVE SMOOTH",
"-237 1372 OFFCURVE",
"-215 1350 OFFCURVE",
"-187 1350 CURVE SMOOTH",
"257.745 1350 LINE",
"255.453 1325.973 OFFCURVE",
"258.918 1297.633 OFFCURVE",
"269 1265 CURVE SMOOTH",
"523.237 448 LINE",
"358 448 LINE SMOOTH",
"330 448 OFFCURVE",
"308 426 OFFCURVE",
"308 398 CURVE SMOOTH",
"308 370 OFFCURVE",
"330 348 OFFCURVE",
"358 348 CURVE SMOOTH",
"554.356 348 LINE",
"742 -255 LINE SMOOTH",
"749 -275 OFFCURVE",
"768 -290 OFFCURVE",
"790 -290 CURVE SMOOTH"
);
},
{
closed = 1;
nodes = (
"365 1295 LINE SMOOTH",
"355 1328 OFFCURVE",
"365 1350 OFFCURVE",
"391 1350 CURVE SMOOTH",
"635 1350 LINE SMOOTH",
"699 1350 OFFCURVE",
"728 1329 OFFCURVE",
"752 1263 CURVE SMOOTH",
"1048.491 448 LINE",
"628.573 448 LINE"
);
}
);
width = 1278;
},
{
anchors = (
{
name = bottom;
position = "{404, -240}";
},
{
name = ogonek;
position = "{668, -240}";
},
{
name = top;
position = "{1001, 1400}";
}
);
layerId = m004;
paths = (
{
closed = 1;
nodes = (
"127 -290 OFFCURVE",
"145 -277 OFFCURVE",
"152 -259 CURVE SMOOTH",
"404.784 348 LINE",
"828.76 348 LINE",
"621 -223 LINE",
"610 -249 OFFCURVE",
"628 -290 OFFCURVE",
"668 -290 CURVE SMOOTH",
"690 -290 OFFCURVE",
"708 -276 OFFCURVE",
"715 -257 CURVE SMOOTH",
"797.612 -29.707 LINE",
"818.53 -42.696 OFFCURVE",
"844.225 -50 OFFCURVE",
"873 -50 CURVE SMOOTH",
"1023 -50 LINE SMOOTH",
"1051 -50 OFFCURVE",
"1073 -28 OFFCURVE",
"1073 0 CURVE SMOOTH",
"1073 28 OFFCURVE",
"1051 50 OFFCURVE",
"1023 50 CURVE SMOOTH",
"873 50 LINE SMOOTH",
"844 50 OFFCURVE",
"834 71 OFFCURVE",
"846 103 CURVE SMOOTH",
"1268 1263 LINE SMOOTH",
"1310 1379 OFFCURVE",
"1257 1450 OFFCURVE",
"1145 1450 CURVE SMOOTH",
"323 1450 LINE SMOOTH",
"295 1450 OFFCURVE",
"273 1428 OFFCURVE",
"273 1400 CURVE SMOOTH",
"273 1372 OFFCURVE",
"295 1350 OFFCURVE",
"323 1350 CURVE SMOOTH",
"718.732 1350 LINE",
"709.096 1334.601 OFFCURVE",
"700.543 1317.567 OFFCURVE",
"693 1299 CURVE SMOOTH",
"338.603 448 LINE",
"138 448 LINE SMOOTH",
"110 448 OFFCURVE",
"88 426 OFFCURVE",
"88 398 CURVE SMOOTH",
"88 370 OFFCURVE",
"110 348 OFFCURVE",
"138 348 CURVE SMOOTH",
"296.959 348 LINE",
"60 -221 LINE SMOOTH",
"47 -246 OFFCURVE",
"64 -290 OFFCURVE",
"106 -290 CURVE SMOOTH"
);
},
{
closed = 1;
nodes = (
"785 1261 LINE SMOOTH",
"813 1329 OFFCURVE",
"839 1350 OFFCURVE",
"901 1350 CURVE SMOOTH",
"1145 1350 LINE SMOOTH",
"1174 1350 OFFCURVE",
"1186 1329 OFFCURVE",
"1174 1297 CURVE SMOOTH",
"865.14 448 LINE",
"446.428 448 LINE"
);
}
);
width = 1278;
},
{
anchors = (
{
name = bottom;
position = "{746, -240}";
},
{
name = ogonek;
position = "{1010, -240}";
},
{
name = top;
position = "{746, 1400}";
}
);
layerId = m005;
paths = (
{
closed = 1;
nodes = (
"475 -290 OFFCURVE",
"497 -269 OFFCURVE",
"498 -243 CURVE SMOOTH",
"529.105 348 LINE",
"960 348 LINE",
"960 -240 LINE SMOOTH",
"960 -268 OFFCURVE",
"982 -290 OFFCURVE",
"1010 -290 CURVE SMOOTH",
"1038 -290 OFFCURVE",
"1060 -268 OFFCURVE",
"1060 -240 CURVE SMOOTH",
"1060 -36.044 LINE",
"1080.705 -45.048 OFFCURVE",
"1103.683 -50 OFFCURVE",
"1128 -50 CURVE SMOOTH",
"3278 -50 LINE SMOOTH",
"3306 -50 OFFCURVE",
"3328 -28 OFFCURVE",
"3328 0 CURVE SMOOTH",
"3328 28 OFFCURVE",
"3306 50 OFFCURVE",
"3278 50 CURVE SMOOTH",
"1128 50 LINE SMOOTH",
"1083 50 OFFCURVE",
"1060 73 OFFCURVE",
"1060 120 CURVE SMOOTH",
"1060 1280 LINE SMOOTH",
"1060 1388 OFFCURVE",
"998 1450 OFFCURVE",
"890 1450 CURVE SMOOTH",
"68 1450 LINE SMOOTH",
"40 1450 OFFCURVE",
"18 1428 OFFCURVE",
"18 1400 CURVE SMOOTH",
"18 1372 OFFCURVE",
"40 1350 OFFCURVE",
"68 1350 CURVE SMOOTH",
"489.993 1350 LINE",
"483.155 1330.137 OFFCURVE",
"479.198 1307.689 OFFCURVE",
"478 1283 CURVE SMOOTH",
"434.053 448 LINE",
"248 448 LINE SMOOTH",
"220 448 OFFCURVE",
"198 426 OFFCURVE",
"198 398 CURVE SMOOTH",
"198 370 OFFCURVE",
"220 348 OFFCURVE",
"248 348 CURVE SMOOTH",
"428.789 348 LINE",
"398 -237 LINE SMOOTH",
"397 -265 OFFCURVE",
"419 -290 OFFCURVE",
"448 -290 CURVE SMOOTH"
);
},
{
closed = 1;
nodes = (
"578 1277 LINE SMOOTH",
"581 1341 OFFCURVE",
"589 1350 OFFCURVE",
"646 1350 CURVE SMOOTH",
"890 1350 LINE SMOOTH",
"949 1350 OFFCURVE",
"960 1339 OFFCURVE",
"960 1280 CURVE SMOOTH",
"960 448 LINE",
"534.368 448 LINE"
);
}
);
width = 3278;
},
{
anchors = (
{
name = bottom;
position = "{746, -240}";
},
{
name = ogonek;
position = "{1010, -240}";
},
{
name = top;
position = "{746, 1400}";
}
);
layerId = m006;
paths = (
{
closed = 1;
nodes = (
"475 -290 OFFCURVE",
"497 -269 OFFCURVE",
"498 -243 CURVE SMOOTH",
"529.105 348 LINE",
"960 348 LINE",
"960 -240 LINE SMOOTH",
"960 -268 OFFCURVE",
"982 -290 OFFCURVE",
"1010 -290 CURVE SMOOTH",
"1038 -290 OFFCURVE",
"1060 -268 OFFCURVE",
"1060 -240 CURVE SMOOTH",
"1060 -36.044 LINE",
"1080.705 -45.048 OFFCURVE",
"1103.683 -50 OFFCURVE",
"1128 -50 CURVE SMOOTH",
"1278 -50 LINE SMOOTH",
"1306 -50 OFFCURVE",
"1328 -28 OFFCURVE",
"1328 0 CURVE SMOOTH",
"1328 28 OFFCURVE",
"1306 50 OFFCURVE",
"1278 50 CURVE SMOOTH",
"1128 50 LINE SMOOTH",
"1083 50 OFFCURVE",
"1060 73 OFFCURVE",
"1060 120 CURVE SMOOTH",
"1060 1280 LINE SMOOTH",
"1060 1388 OFFCURVE",
"998 1450 OFFCURVE",
"890 1450 CURVE SMOOTH",
"68 1450 LINE SMOOTH",
"40 1450 OFFCURVE",
"18 1428 OFFCURVE",
"18 1400 CURVE SMOOTH",
"18 1372 OFFCURVE",
"40 1350 OFFCURVE",
"68 1350 CURVE SMOOTH",
"489.993 1350 LINE",
"483.155 1330.137 OFFCURVE",
"479.198 1307.689 OFFCURVE",
"478 1283 CURVE SMOOTH",
"434.053 448 LINE",
"248 448 LINE SMOOTH",
"220 448 OFFCURVE",
"198 426 OFFCURVE",
"198 398 CURVE SMOOTH",
"198 370 OFFCURVE",
"220 348 OFFCURVE",
"248 348 CURVE SMOOTH",
"428.789 348 LINE",
"398 -237 LINE SMOOTH",
"397 -265 OFFCURVE",
"419 -290 OFFCURVE",
"448 -290 CURVE SMOOTH"
);
},
{
closed = 1;
nodes = (
"578 1277 LINE SMOOTH",
"581 1341 OFFCURVE",
"589 1350 OFFCURVE",
"646 1350 CURVE SMOOTH",
"890 1350 LINE SMOOTH",
"949 1350 OFFCURVE",
"960 1339 OFFCURVE",
"960 1280 CURVE SMOOTH",
"960 448 LINE",
"534.368 448 LINE"
);
}
);
width = 1278;
}
);
leftKerningGroup = A;
rightKerningGroup = H;
unicode = 0041;
},
{
glyphname = AE;
lastChange = "2021-04-29 15:54:39 +0000";
layers = (
{
anchors = (
{
name = bottom;
position = "{600, 0}";
},
{
name = ogonek;
position = "{1010, -240}";
},
{
name = top;
position = "{600, 1400}";
}
);
layerId = m003;
paths = (
{
closed = 1;
nodes = (
"1470 -340 LINE SMOOTH",
"1648 -340 OFFCURVE",
"1760 -228 OFFCURVE",
"1760 -50 CURVE SMOOTH",
"1760 -110 LINE",
"1718 -95 OFFCURVE",
"1748 -100 OFFCURVE",
"1778 -100 CURVE SMOOTH",
"1888 -100 LINE SMOOTH",
"1944 -100 OFFCURVE",
"1988 -56 OFFCURVE",
"1988 0 CURVE SMOOTH",
"1988 56 OFFCURVE",
"1944 100 OFFCURVE",
"1888 100 CURVE SMOOTH",
"1778 100 LINE SMOOTH",
"1760 100 OFFCURVE",
"1760 100 OFFCURVE",
"1760 120 CURVE SMOOTH",
"1760 220 LINE SMOOTH",
"1760 276 OFFCURVE",
"1716 320 OFFCURVE",
"1660 320 CURVE SMOOTH",
"1604 320 OFFCURVE",
"1560 276 OFFCURVE",
"1560 220 CURVE SMOOTH",
"1560 -50 LINE SMOOTH",
"1560 -130 OFFCURVE",
"1550 -140 OFFCURVE",
"1470 -140 CURVE SMOOTH",
"1085 -140 LINE SMOOTH",
"1100 -140 OFFCURVE",
"1110 -152 OFFCURVE",
"1110 -164 CURVE SMOOTH",
"1110 360 LINE",
"1390 360 LINE SMOOTH",
"1446 360 OFFCURVE",
"1490 404 OFFCURVE",
"1490 460 CURVE SMOOTH",
"1490 516 OFFCURVE",
"1446 560 OFFCURVE",
"1390 560 CURVE SMOOTH",
"1110 560 LINE",
"1110 1300 LINE",
"1420 1300 LINE SMOOTH",
"1441 1300 OFFCURVE",
"1441 1300 OFFCURVE",
"1440 1290 CURVE SMOOTH",
"1400 869 LINE SMOOTH",
"1396 811 OFFCURVE",
"1441 760 OFFCURVE",
"1500 760 CURVE SMOOTH",
"1551 760 OFFCURVE",
"1594 799 OFFCURVE",
"1600 850 CURVE SMOOTH",
"1640 1270 LINE SMOOTH",
"1654 1405 OFFCURVE",
"1565 1500 OFFCURVE",
"1420 1500 CURVE SMOOTH",
"68 1500 LINE SMOOTH",
"12 1500 OFFCURVE",
"-32 1456 OFFCURVE",
"-32 1400 CURVE SMOOTH",
"-32 1344 OFFCURVE",
"12 1300 OFFCURVE",
"68 1300 CURVE SMOOTH",
"429 1300 LINE",
"429 1295 OFFCURVE",
"428 1290 OFFCURVE",
"428 1286 CURVE SMOOTH",
"387 498 LINE",
"248 498 LINE SMOOTH",
"192 498 OFFCURVE",
"148 454 OFFCURVE",
"148 398 CURVE SMOOTH",
"148 342 OFFCURVE",
"192 298 OFFCURVE",
"248 298 CURVE SMOOTH",
"376 298 LINE",
"348 -235 LINE SMOOTH",
"346 -291 OFFCURVE",
"391 -340 OFFCURVE",
"448 -340 CURVE SMOOTH",
"502 -340 OFFCURVE",
"546 -298 OFFCURVE",
"548 -245 CURVE SMOOTH",
"577 298 LINE",
"910 298 LINE",
"910 -239 LINE SMOOTH",
"910 -296 OFFCURVE",
"954 -340 OFFCURVE",
"1011 -340 CURVE SMOOTH"
);
},
{
closed = 1;
nodes = (
"628 1275 LINE SMOOTH",
"629 1300 OFFCURVE",
"629 1300 OFFCURVE",
"646 1300 CURVE SMOOTH",
"910 1300 LINE",
"910 498 LINE",
"587 498 LINE"
);
}
);
width = 1888;
},
{
anchors = (
{
name = bottom;
position = "{855, 0}";
},
{
name = ogonek;
position = "{1352, -240}";
},
{
name = top;
position = "{345, 1400}";
}
);
layerId = m002;
paths = (
{
closed = 1;
nodes = (
"1812 -290 LINE SMOOTH",
"1961.157 -290 OFFCURVE",
"2033 -197 OFFCURVE",
"1984 -46 CURVE",
"1984 -46 LINE",
"2000 -49 OFFCURVE",
"2015.988 -50 OFFCURVE",
"2033 -50 CURVE SMOOTH",
"2143 -50 LINE SMOOTH",
"2171 -50 OFFCURVE",
"2193 -28 OFFCURVE",
"2193 0 CURVE SMOOTH",
"2193 28 OFFCURVE",
"2171 50 OFFCURVE",
"2143 50 CURVE SMOOTH",
"2033 50 LINE SMOOTH",
"1977.244 50 OFFCURVE",
"1942 71 OFFCURVE",
"1921.887 127.107 CURVE SMOOTH",
"1882 237 LINE SMOOTH",
"1875 256 OFFCURVE",
"1857 270 OFFCURVE",
"1835 270 CURVE SMOOTH",
"1795 270 OFFCURVE",
"1777 229 OFFCURVE",
"1788 203 CURVE",
"1886 -67 LINE SMOOTH",
"1913 -142 OFFCURVE",
"1884 -190 OFFCURVE",
"1812 -190 CURVE SMOOTH",
"1403 -190 LINE SMOOTH",
"1393 -190 OFFCURVE",
"1384 -184 OFFCURVE",
"1381 -175 CURVE SMOOTH",
"1168.603 410 LINE",
"1477 410 LINE SMOOTH",
"1505 410 OFFCURVE",
"1527 432 OFFCURVE",
"1527 460 CURVE SMOOTH",
"1527 488 OFFCURVE",
"1505 510 OFFCURVE",
"1477 510 CURVE SMOOTH",
"1132 510 LINE",
"826 1350 LINE",
"1165 1350 LINE SMOOTH",
"1234 1350 OFFCURVE",
"1265 1327 OFFCURVE",
"1281 1267 CURVE SMOOTH",
"1394 847 LINE SMOOTH",
"1400 826 OFFCURVE",
"1419 810 OFFCURVE",
"1442 810 CURVE SMOOTH",
"1473 810 OFFCURVE",
"1500 837 OFFCURVE",
"1490 873 CURVE SMOOTH",
"1377 1293 LINE SMOOTH",
"1351 1391 OFFCURVE",
"1274 1450 OFFCURVE",
"1165 1450 CURVE SMOOTH",
"-187 1450 LINE SMOOTH",
"-215 1450 OFFCURVE",
"-237 1428 OFFCURVE",
"-237 1400 CURVE SMOOTH",
"-237 1372 OFFCURVE",
"-215 1350 OFFCURVE",
"-187 1350 CURVE SMOOTH",
"257.745 1350 LINE",
"255.453 1325.973 OFFCURVE",
"259 1298 OFFCURVE",
"269 1265 CURVE SMOOTH",
"523.237 448 LINE",
"358 448 LINE SMOOTH",
"330 448 OFFCURVE",
"308 426 OFFCURVE",
"308 398 CURVE SMOOTH",
"308 370 OFFCURVE",
"330 348 OFFCURVE",
"358 348 CURVE SMOOTH",
"554.356 348 LINE",
"742 -255 LINE SMOOTH",
"748 -275 OFFCURVE",
"768 -290 OFFCURVE",
"790 -290 CURVE SMOOTH",
"825 -290 OFFCURVE",
"849 -260 OFFCURVE",
"838 -225 CURVE SMOOTH",
"659.691 348 LINE",
"1084.928 348 LINE",
"1295 -229 LINE SMOOTH",
"1309 -266 OFFCURVE",
"1342 -290 OFFCURVE",
"1382 -290 CURVE SMOOTH"
);
},
{
closed = 1;
nodes = (
"365 1295 LINE SMOOTH",
"355 1328 OFFCURVE",
"365 1350 OFFCURVE",
"391 1350 CURVE SMOOTH",
"720.346 1350 LINE",
"1048.188 448 LINE",
"628.573 448 LINE"
);
}
);
width = 1888;
},
{
anchors = (
{
name = bottom;
position = "{345, 0}";
},
{
name = ogonek;
position = "{668, -240}";
},
{
name = top;
position = "{855, 1400}";
}
);
layerId = m004;
paths = (
{
closed = 1;
nodes = (
"1128 -290 LINE SMOOTH",
"1272 -290 OFFCURVE",
"1383 -208 OFFCURVE",
"1434 -67 CURVE SMOOTH",
"1446.199 -33.39 LINE",
"1467.121 -44.208 OFFCURVE",
"1493.065 -50 OFFCURVE",
"1523 -50 CURVE SMOOTH",
"1633 -50 LINE SMOOTH",
"1661 -50 OFFCURVE",
"1683 -28 OFFCURVE",
"1683 0 CURVE SMOOTH",
"1683 28 OFFCURVE",
"1661 50 OFFCURVE",
"1633 50 CURVE SMOOTH",
"1523 50 LINE SMOOTH",
"1476 50 OFFCURVE",
"1476 50 OFFCURVE",
"1496 103 CURVE SMOOTH",
"1532 203 LINE SMOOTH",
"1543 229 OFFCURVE",
"1525 270 OFFCURVE",
"1485 270 CURVE SMOOTH",
"1463 270 OFFCURVE",
"1445 256 OFFCURVE",
"1438 237 CURVE SMOOTH",
"1340 -33 LINE SMOOTH",
"1301 -141 OFFCURVE",
"1234 -190 OFFCURVE",
"1128 -190 CURVE SMOOTH",
"780 -190 LINE SMOOTH",
"759 -190 OFFCURVE",
"746 -171 OFFCURVE",
"753 -151 CURVE SMOOTH",
"958 410 LINE",
"1303 410 LINE SMOOTH",
"1331 410 OFFCURVE",
"1353 432 OFFCURVE",
"1353 460 CURVE SMOOTH",
"1353 488 OFFCURVE",
"1331 510 OFFCURVE",
"1303 510 CURVE SMOOTH",
"994 510 LINE",
"1300 1350 LINE",
"1675 1350 LINE SMOOTH",
"1708 1350 OFFCURVE",
"1720 1331 OFFCURVE",
"1706 1301 CURVE SMOOTH",
"1513 881 LINE SMOOTH",
"1499 852 OFFCURVE",
"1517 810 OFFCURVE",
"1558 810 CURVE SMOOTH",
"1578 810 OFFCURVE",
"1596 822 OFFCURVE",
"1603 839 CURVE SMOOTH",
"1796 1259 LINE SMOOTH",
"1848 1368 OFFCURVE",
"1799 1450 OFFCURVE",
"1675 1450 CURVE SMOOTH",
"323 1450 LINE SMOOTH",
"295 1450 OFFCURVE",
"273 1428 OFFCURVE",
"273 1400 CURVE SMOOTH",
"273 1372 OFFCURVE",
"295 1350 OFFCURVE",
"323 1350 CURVE SMOOTH",
"718.732 1350 LINE",
"709.096 1334.601 OFFCURVE",
"700.543 1317.567 OFFCURVE",
"693 1299 CURVE SMOOTH",
"338.603 448 LINE",
"138 448 LINE SMOOTH",
"110 448 OFFCURVE",
"88 426 OFFCURVE",
"88 398 CURVE SMOOTH",
"88 370 OFFCURVE",
"110 348 OFFCURVE",
"138 348 CURVE SMOOTH",
"296.959 348 LINE",
"60 -221 LINE SMOOTH",
"47 -246 OFFCURVE",
"64 -290 OFFCURVE",
"106 -290 CURVE SMOOTH",
"127 -290 OFFCURVE",
"145 -277 OFFCURVE",
"152 -259 CURVE SMOOTH",
"404.784 348 LINE",
"829.073 348 LINE",
"625 -212 LINE SMOOTH",
"610 -252 OFFCURVE",
"637 -290 OFFCURVE",
"680 -290 CURVE SMOOTH"
);
},
{
closed = 1;
nodes = (
"785 1261 LINE SMOOTH",
"813 1329 OFFCURVE",
"839 1350 OFFCURVE",
"901 1350 CURVE SMOOTH",
"1193.654 1350 LINE",
"865.447 448 LINE",
"446.428 448 LINE"
);
}
);
width = 1888;
},
{
anchors = (
{
name = bottom;
position = "{600, 0}";
},
{
name = ogonek;
position = "{1010, -240}";
},
{
name = top;
position = "{600, 1400}";
}
);
layerId = m005;
paths = (
{
closed = 1;
nodes = (
"1470 -290 LINE SMOOTH",
"1620 -290 OFFCURVE",
"1710 -200 OFFCURVE",
"1710 -50 CURVE SMOOTH",
"1710 -38.718 LINE",
"1730.109 -46.094 OFFCURVE",
"1752.889 -50 OFFCURVE",
"1778 -50 CURVE SMOOTH",
"3888 -50 LINE SMOOTH",
"3916 -50 OFFCURVE",
"3938 -28 OFFCURVE",
"3938 0 CURVE SMOOTH",
"3938 28 OFFCURVE",
"3916 50 OFFCURVE",
"3888 50 CURVE SMOOTH",
"1778 50 LINE SMOOTH",
"1723 50 OFFCURVE",
"1710 64 OFFCURVE",
"1710 120 CURVE SMOOTH",
"1710 220 LINE SMOOTH",
"1710 248 OFFCURVE",
"1688 270 OFFCURVE",
"1660 270 CURVE SMOOTH",
"1632 270 OFFCURVE",
"1610 248 OFFCURVE",
"1610 220 CURVE SMOOTH",
"1610 -50 LINE SMOOTH",
"1610 -151 OFFCURVE",
"1571 -190 OFFCURVE",
"1470 -190 CURVE SMOOTH",
"1085 -190 LINE SMOOTH",
"1071 -190 OFFCURVE",
"1060 -178 OFFCURVE",
"1060 -164 CURVE SMOOTH",
"1060 410 LINE",
"1390 410 LINE SMOOTH",
"1418 410 OFFCURVE",
"1440 432 OFFCURVE",
"1440 460 CURVE SMOOTH",
"1440 488 OFFCURVE",
"1418 510 OFFCURVE",
"1390 510 CURVE SMOOTH",
"1060 510 LINE",
"1060 1350 LINE",
"1420 1350 LINE SMOOTH",
"1485 1350 OFFCURVE",
"1496 1338 OFFCURVE",
"1490 1285 CURVE SMOOTH",
"1450 865 LINE SMOOTH",
"1448 836 OFFCURVE",
"1470 810 OFFCURVE",
"1500 810 CURVE SMOOTH",
"1526 810 OFFCURVE",
"1547 830 OFFCURVE",
"1550 855 CURVE SMOOTH",
"1590 1275 LINE SMOOTH",
"1601 1381 OFFCURVE",
"1535 1450 OFFCURVE",
"1420 1450 CURVE SMOOTH",
"68 1450 LINE SMOOTH",
"40 1450 OFFCURVE",
"18 1428 OFFCURVE",
"18 1400 CURVE SMOOTH",
"18 1372 OFFCURVE",
"40 1350 OFFCURVE",
"68 1350 CURVE SMOOTH",
"489.993 1350 LINE",
"483.155 1330.137 OFFCURVE",
"479.198 1307.689 OFFCURVE",
"478 1283 CURVE SMOOTH",
"434.053 448 LINE",
"248 448 LINE SMOOTH",
"220 448 OFFCURVE",
"198 426 OFFCURVE",
"198 398 CURVE SMOOTH",
"198 370 OFFCURVE",
"220 348 OFFCURVE",
"248 348 CURVE SMOOTH",
"428.789 348 LINE",
"398 -237 LINE SMOOTH",
"397 -265 OFFCURVE",
"419 -290 OFFCURVE",
"448 -290 CURVE SMOOTH",
"475 -290 OFFCURVE",
"497 -269 OFFCURVE",
"498 -243 CURVE SMOOTH",
"529.105 348 LINE",
"960 348 LINE",
"960 -239 LINE SMOOTH",
"960 -268 OFFCURVE",
"982 -290 OFFCURVE",
"1011 -290 CURVE SMOOTH"
);
},
{
closed = 1;
nodes = (
"578 1277 LINE SMOOTH",
"581 1341 OFFCURVE",
"589 1350 OFFCURVE",
"646 1350 CURVE SMOOTH",
"960 1350 LINE",
"960 448 LINE",
"534.368 448 LINE"
);
}
);
width = 3888;
},
{
anchors = (
{
name = bottom;
position = "{600, 0}";
},
{
name = ogonek;
position = "{1010, -240}";
},
{
name = top;
position = "{600, 1400}";
}
);
layerId = m006;
paths = (
{
closed = 1;
nodes = (
"1470 -290 LINE SMOOTH",
"1620 -290 OFFCURVE",
"1710 -200 OFFCURVE",
"1710 -50 CURVE SMOOTH",
"1710 -38.718 LINE",
"1730.109 -46.094 OFFCURVE",
"1752.889 -50 OFFCURVE",
"1778 -50 CURVE SMOOTH",
"1888 -50 LINE SMOOTH",
"1916 -50 OFFCURVE",
"1938 -28 OFFCURVE",
"1938 0 CURVE SMOOTH",
"1938 28 OFFCURVE",
"1916 50 OFFCURVE",
"1888 50 CURVE SMOOTH",
"1778 50 LINE SMOOTH",
"1723 50 OFFCURVE",
"1710 64 OFFCURVE",
"1710 120 CURVE SMOOTH",
"1710 220 LINE SMOOTH",
"1710 248 OFFCURVE",
"1688 270 OFFCURVE",
"1660 270 CURVE SMOOTH",
"1632 270 OFFCURVE",
"1610 248 OFFCURVE",
"1610 220 CURVE SMOOTH",
"1610 -50 LINE SMOOTH",
"1610 -151 OFFCURVE",
"1571 -190 OFFCURVE",
"1470 -190 CURVE SMOOTH",
"1085 -190 LINE SMOOTH",
"1071 -190 OFFCURVE",
"1060 -178 OFFCURVE",
"1060 -164 CURVE SMOOTH",
"1060 410 LINE",
"1390 410 LINE SMOOTH",
"1418 410 OFFCURVE",
"1440 432 OFFCURVE",
"1440 460 CURVE SMOOTH",
"1440 488 OFFCURVE",
"1418 510 OFFCURVE",
"1390 510 CURVE SMOOTH",
"1060 510 LINE",
"1060 1350 LINE",
"1420 1350 LINE SMOOTH",
"1485 1350 OFFCURVE",
"1496 1338 OFFCURVE",
"1490 1285 CURVE SMOOTH",
"1450 865 LINE SMOOTH",
"1448 836 OFFCURVE",
"1470 810 OFFCURVE",
"1500 810 CURVE SMOOTH",
"1526 810 OFFCURVE",
"1547 830 OFFCURVE",
"1550 855 CURVE SMOOTH",
"1590 1275 LINE SMOOTH",
"1601 1381 OFFCURVE",
"1535 1450 OFFCURVE",
"1420 1450 CURVE SMOOTH",
"68 1450 LINE SMOOTH",
"40 1450 OFFCURVE",
"18 1428 OFFCURVE",
"18 1400 CURVE SMOOTH",
"18 1372 OFFCURVE",
"40 1350 OFFCURVE",
"68 1350 CURVE SMOOTH",
"489.993 1350 LINE",
"483.155 1330.137 OFFCURVE",
"479.198 1307.689 OFFCURVE",
"478 1283 CURVE SMOOTH",
"434.053 448 LINE",
"248 448 LINE SMOOTH",
"220 448 OFFCURVE",
"198 426 OFFCURVE",
"198 398 CURVE SMOOTH",
"198 370 OFFCURVE",
"220 348 OFFCURVE",
"248 348 CURVE SMOOTH",
"428.789 348 LINE",
"398 -237 LINE SMOOTH",
"397 -265 OFFCURVE",
"419 -290 OFFCURVE",
"448 -290 CURVE SMOOTH",
"475 -290 OFFCURVE",
"497 -269 OFFCURVE",
"498 -243 CURVE SMOOTH",
"529.105 348 LINE",
"960 348 LINE",
"960 -239 LINE SMOOTH",
"960 -268 OFFCURVE",
"982 -290 OFFCURVE",
"1011 -290 CURVE SMOOTH"
);
},
{
closed = 1;
nodes = (
"578 1277 LINE SMOOTH",
"581 1341 OFFCURVE",
"589 1350 OFFCURVE",
"646 1350 CURVE SMOOTH",
"960 1350 LINE",
"960 448 LINE",
"534.368 448 LINE"
);
}
);
width = 1888;
}
);
leftKerningGroup = A;
rightKerningGroup = E;
unicode = 00C6;
},
{
glyphname = B;
lastChange = "2021-04-29 15:54:39 +0000";
layers = (
{
anchors = (
{
name = bottom;
position = "{634, -220}";
},
{
name = top;
position = "{634, 1400}";
}
);
layerId = m003;
paths = (
{
closed = 1;
nodes = (
"880 -340 LINE SMOOTH",
"1016 -340 OFFCURVE",
"1100 -256 OFFCURVE",
"1100 -120 CURVE SMOOTH",
"1100 -99 LINE",
"1106 -100 OFFCURVE",
"1112 -100 OFFCURVE",
"1118 -100 CURVE SMOOTH",
"1228 -100 LINE SMOOTH",
"1284 -100 OFFCURVE",
"1328 -56 OFFCURVE",
"1328 0 CURVE SMOOTH",
"1328 56 OFFCURVE",
"1284 100 OFFCURVE",
"1228 100 CURVE SMOOTH",
"1118 100 LINE SMOOTH",
"1100 100 OFFCURVE",
"1100 100 OFFCURVE",
"1100 120 CURVE SMOOTH",
"1100 292 LINE SMOOTH",
"1100 427 OFFCURVE",
"1017 511 OFFCURVE",
"883 512 CURVE",
"930 474 LINE",
"1000 1272 LINE SMOOTH",
"1013 1419 OFFCURVE",
"915 1500 OFFCURVE",
"780 1500 CURVE SMOOTH",
"100 1500 LINE SMOOTH",
"44 1500 OFFCURVE",
"0 1456 OFFCURVE",
"0 1400 CURVE SMOOTH",
"0 1344 OFFCURVE",
"44 1300 OFFCURVE",
"100 1300 CURVE SMOOTH",
"300 1300 LINE",
"300 512 LINE",
"100 512 LINE SMOOTH",
"44 512 OFFCURVE",
"0 468 OFFCURVE",
"0 412 CURVE SMOOTH",
"0 356 OFFCURVE",
"44 312 OFFCURVE",
"100 312 CURVE SMOOTH",
"300 312 LINE",
"300 -239 LINE SMOOTH",
"300 -296 OFFCURVE",
"344 -340 OFFCURVE",
"401 -340 CURVE SMOOTH"
);
},
{
closed = 1;
nodes = (
"500 312 LINE",
"880 312 LINE SMOOTH",
"900 312 OFFCURVE",
"900 312 OFFCURVE",
"900 292 CURVE SMOOTH",
"900 -120 LINE SMOOTH",
"900 -140 OFFCURVE",
"900 -140 OFFCURVE",
"880 -140 CURVE SMOOTH",
"500 -140 LINE"
);
},
{
closed = 1;
nodes = (
"500 1300 LINE",
"780 1300 LINE SMOOTH",
"801 1300 OFFCURVE",
"801 1300 OFFCURVE",
"800 1288 CURVE SMOOTH",
"736 512 LINE",
"500 512 LINE"
);
}
);
width = 1228;
},
{
anchors = (
{
name = bottom;
position = "{969, -220}";
},
{
name = top;
position = "{379, 1400}";
}
);
layerId = m002;
paths = (
{
closed = 1;
nodes = (
"1222 -290 LINE SMOOTH",
"1336 -290 OFFCURVE",
"1388 -217 OFFCURVE",
"1345 -103 CURVE SMOOTH",
"1323.182 -43.073 LINE",
"1339.613 -47.586 OFFCURVE",
"1356.361 -50 OFFCURVE",
"1373 -50 CURVE SMOOTH",
"1483 -50 LINE SMOOTH",
"1511 -50 OFFCURVE",
"1533 -28 OFFCURVE",
"1533 0 CURVE SMOOTH",
"1533 28 OFFCURVE",
"1511 50 OFFCURVE",
"1483 50 CURVE SMOOTH",
"1373 50 LINE SMOOTH",
"1323 50 OFFCURVE",
"1278 83 OFFCURVE",
"1258 137 CURVE SMOOTH",
"1195 309 LINE SMOOTH",
"1159 408 OFFCURVE",
"1087 462 OFFCURVE",
"985 462 CURVE SMOOTH",
"970.858 462 LINE",
"737 1293 LINE SMOOTH",
"707 1405 OFFCURVE",
"623 1450 OFFCURVE",
"525 1450 CURVE SMOOTH",
"-155 1450 LINE SMOOTH",
"-183 1450 OFFCURVE",
"-205 1428 OFFCURVE",
"-205 1400 CURVE SMOOTH",
"-205 1372 OFFCURVE",
"-183 1350 OFFCURVE",
"-155 1350 CURVE SMOOTH",
"110.013 1350 LINE",
"433.259 462 LINE",
"256 462 LINE SMOOTH",
"227 462 OFFCURVE",
"205 441 OFFCURVE",
"205 412 CURVE SMOOTH",
"205 383 OFFCURVE",
"227 362 OFFCURVE",
"256 362 CURVE SMOOTH",
"469.661 362 LINE",
"696 -260 LINE SMOOTH",
"703 -278 OFFCURVE",
"719 -290 OFFCURVE",
"739 -290 CURVE SMOOTH"
);
},
{
closed = 1;
nodes = (
"576.054 362 LINE",
"985 362 LINE SMOOTH",
"1048 362 OFFCURVE",
"1077 341 OFFCURVE",
"1101 275 CURVE SMOOTH",
"1251 -137 LINE SMOOTH",
"1263 -169 OFFCURVE",
"1252 -190 OFFCURVE",
"1222 -190 CURVE SMOOTH",
"777 -190 LINE"
);
},
{
closed = 1;
nodes = (
"216.39 1350 LINE",
"525 1350 LINE SMOOTH",
"592 1350 OFFCURVE",
"623 1333 OFFCURVE",
"641 1267 CURVE SMOOTH",
"867 462 LINE",
"539.651 462 LINE"
);
}
);
width = 1228;
},
{
anchors = (
{
name = bottom;
position = "{299, -220}";
},
{
name = top;
position = "{889, 1400}";
}
);
layerId = m004;
paths = (
{
closed = 1;
nodes = (
"538 -290 LINE SMOOTH",
"640 -290 OFFCURVE",
"713 -236 OFFCURVE",
"749 -137 CURVE SMOOTH",
"787.98 -29.934 LINE",
"808.831 -42.781 OFFCURVE",
"834.394 -50 OFFCURVE",
"863 -50 CURVE SMOOTH",
"973 -50 LINE SMOOTH",
"1001 -50 OFFCURVE",
"1023 -28 OFFCURVE",
"1023 0 CURVE SMOOTH",
"1023 28 OFFCURVE",
"1001 50 OFFCURVE",
"973 50 CURVE SMOOTH",
"863 50 LINE SMOOTH",
"829.872 50 OFFCURVE",
"821.277 55.772 OFFCURVE",
"829.858 85.09 CURVE",
"899 275 LINE SMOOTH",
"938 381 OFFCURVE",
"895.382 451.014 OFFCURVE",
"799.282 460.809 CURVE",
"799 461 LINE",
"1157 1259 LINE SMOOTH",
"1210 1378 OFFCURVE",
"1153 1450 OFFCURVE",
"1035 1450 CURVE SMOOTH",
"355 1450 LINE SMOOTH",
"327 1450 OFFCURVE",
"305 1428 OFFCURVE",
"305 1400 CURVE SMOOTH",
"305 1372 OFFCURVE",
"327 1350 OFFCURVE",
"355 1350 CURVE SMOOTH",
"583.626 1350 LINE",
"260.575 462 LINE",
"46 462 LINE SMOOTH",
"17 462 OFFCURVE",
"-5 441 OFFCURVE",
"-5 412 CURVE SMOOTH",
"-5 383 OFFCURVE",
"17 362 OFFCURVE",
"46 362 CURVE SMOOTH",
"224.195 362 LINE",
"15 -212 LINE SMOOTH",
"0 -252 OFFCURVE",
"27 -290 OFFCURVE",
"70 -290 CURVE SMOOTH"
);
},
{
closed = 1;
nodes = (
"330.078 362 LINE",
"775 362 LINE SMOOTH",
"805 362 OFFCURVE",
"817 341 OFFCURVE",
"805 309 CURVE",
"655 -103 LINE",
"630 -169 OFFCURVE",
"601 -190 OFFCURVE",
"538 -190 CURVE SMOOTH",
"129 -190 LINE"
);
},
{
closed = 1;
nodes = (
"689.979 1350 LINE",
"1035 1350 LINE SMOOTH",
"1067 1350 OFFCURVE",
"1078 1331 OFFCURVE",
"1065 1301 CURVE SMOOTH",
"691 462 LINE",
"366.505 462 LINE"
);
}
);
width = 1228;
},
{
anchors = (
{
name = bottom;
position = "{634, -220}";
},
{
name = top;
position = "{634, 1400}";
}
);
layerId = m005;
paths = (
{
closed = 1;
nodes = (
"880 -290 LINE SMOOTH",
"988 -290 OFFCURVE",
"1050 -228 OFFCURVE",
"1050 -120 CURVE SMOOTH",
"1050 -36.044 LINE",
"1070.705 -45.048 OFFCURVE",
"1093.683 -50 OFFCURVE",
"1118 -50 CURVE SMOOTH",
"3228 -50 LINE SMOOTH",
"3256 -50 OFFCURVE",
"3278 -28 OFFCURVE",
"3278 0 CURVE SMOOTH",
"3278 28 OFFCURVE",
"3256 50 OFFCURVE",
"3228 50 CURVE SMOOTH",
"1118 50 LINE SMOOTH",
"1073 50 OFFCURVE",
"1050 73 OFFCURVE",
"1050 120 CURVE SMOOTH",
"1050 292 LINE SMOOTH",
"1050 399.226 OFFCURVE",
"988.885 461.109 OFFCURVE",
"882.314 461.99 CURVE",
"882 462 LINE",
"950 1276 LINE SMOOTH",
"960 1393 OFFCURVE",
"887 1450 OFFCURVE",
"780 1450 CURVE SMOOTH",
"100 1450 LINE SMOOTH",
"72 1450 OFFCURVE",
"50 1428 OFFCURVE",
"50 1400 CURVE SMOOTH",
"50 1372 OFFCURVE",
"72 1350 OFFCURVE",
"100 1350 CURVE SMOOTH",
"350 1350 LINE",
"350 462 LINE",
"100 462 LINE SMOOTH",
"72 462 OFFCURVE",
"50 440 OFFCURVE",
"50 412 CURVE SMOOTH",
"50 384 OFFCURVE",
"72 362 OFFCURVE",
"100 362 CURVE SMOOTH",
"350 362 LINE",
"350 -239 LINE SMOOTH",
"350 -268 OFFCURVE",
"372 -290 OFFCURVE",
"401 -290 CURVE SMOOTH"
);
},
{
closed = 1;
nodes = (
"450 362 LINE",
"880 362 LINE SMOOTH",
"939 362 OFFCURVE",
"950 351 OFFCURVE",
"950 292 CURVE SMOOTH",
"950 -120 LINE SMOOTH",
"950 -179 OFFCURVE",
"939 -190 OFFCURVE",
"880 -190 CURVE SMOOTH",
"450 -190 LINE"
);
},
{
closed = 1;
nodes = (
"450 1350 LINE",
"780 1350 LINE SMOOTH",
"844 1350 OFFCURVE",
"855 1342 OFFCURVE",
"850 1284 CURVE SMOOTH",
"782 462 LINE",
"450 462 LINE"
);
}
);
width = 3228;
},
{
anchors = (
{
name = bottom;
position = "{634, -220}";
},
{
name = top;
position = "{634, 1400}";
}
);
layerId = m006;
paths = (
{
closed = 1;
nodes = (
"880 -290 LINE SMOOTH",
"988 -290 OFFCURVE",
"1050 -228 OFFCURVE",
"1050 -120 CURVE SMOOTH",
"1050 -36.044 LINE",
"1070.705 -45.048 OFFCURVE",
"1093.683 -50 OFFCURVE",
"1118 -50 CURVE SMOOTH",
"1228 -50 LINE SMOOTH",
"1256 -50 OFFCURVE",
"1278 -28 OFFCURVE",
"1278 0 CURVE SMOOTH",
"1278 28 OFFCURVE",
"1256 50 OFFCURVE",
"1228 50 CURVE SMOOTH",
"1118 50 LINE SMOOTH",
"1073 50 OFFCURVE",
"1050 73 OFFCURVE",
"1050 120 CURVE SMOOTH",
"1050 292 LINE SMOOTH",
"1050 399.226 OFFCURVE",
"988.885 461.109 OFFCURVE",
"882.314 461.99 CURVE",
"882 462 LINE",
"950 1276 LINE SMOOTH",
"960 1393 OFFCURVE",
"887 1450 OFFCURVE",
"780 1450 CURVE SMOOTH",
"100 1450 LINE SMOOTH",
"72 1450 OFFCURVE",
"50 1428 OFFCURVE",
"50 1400 CURVE SMOOTH",
"50 1372 OFFCURVE",
"72 1350 OFFCURVE",
"100 1350 CURVE SMOOTH",
"350 1350 LINE",
"350 462 LINE",
"100 462 LINE SMOOTH",
"72 462 OFFCURVE",
"50 440 OFFCURVE",
"50 412 CURVE SMOOTH",
"50 384 OFFCURVE",
"72 362 OFFCURVE",
"100 362 CURVE SMOOTH",
"350 362 LINE",
"350 -239 LINE SMOOTH",
"350 -268 OFFCURVE",
"372 -290 OFFCURVE",
"401 -290 CURVE SMOOTH"
);
},
{
closed = 1;
nodes = (
"450 362 LINE",
"880 362 LINE SMOOTH",
"939 362 OFFCURVE",
"950 351 OFFCURVE",
"950 292 CURVE SMOOTH",
"950 -120 LINE SMOOTH",
"950 -179 OFFCURVE",
"939 -190 OFFCURVE",
"880 -190 CURVE SMOOTH",
"450 -190 LINE"
);
},
{
closed = 1;
nodes = (
"450 1350 LINE",
"780 1350 LINE SMOOTH",
"844 1350 OFFCURVE",
"855 1342 OFFCURVE",
"850 1284 CURVE SMOOTH",
"782 462 LINE",
"450 462 LINE"
);
}
);
width = 1228;
}
);
leftKerningGroup = D;
unicode = 0042;
},
{
glyphname = C;
lastChange = "2021-04-29 15:54:39 +0000";
layers = (
{
anchors = (
{
name = bottom;
position = "{534, -240}";
},
{
name = top;
position = "{527, 1400}";
}
);
layerId = m003;
paths = (
{
closed = 1;
nodes = (
"690 -340 LINE SMOOTH",
"826 -340 OFFCURVE",
"910 -256 OFFCURVE",
"910 -120 CURVE SMOOTH",
"910 -99 LINE",
"916 -100 OFFCURVE",
"922 -100 OFFCURVE",
"928 -100 CURVE SMOOTH",
"1038 -100 LINE SMOOTH",
"1094 -100 OFFCURVE",
"1138 -56 OFFCURVE",
"1138 0 CURVE SMOOTH",
"1138 56 OFFCURVE",
"1094 100 OFFCURVE",
"1038 100 CURVE SMOOTH",
"928 100 LINE SMOOTH",
"910 100 OFFCURVE",
"910 100 OFFCURVE",
"910 120 CURVE SMOOTH",
"910 210 LINE SMOOTH",
"910 266 OFFCURVE",
"866 310 OFFCURVE",
"810 310 CURVE SMOOTH",
"754 310 OFFCURVE",
"710 266 OFFCURVE",
"710 210 CURVE SMOOTH",
"710 -120 LINE SMOOTH",
"710 -140 OFFCURVE",
"710 -140 OFFCURVE",
"690 -140 CURVE SMOOTH",
"370 -140 LINE SMOOTH",
"350 -140 OFFCURVE",
"350 -140 OFFCURVE",
"350 -120 CURVE SMOOTH",
"350 1280 LINE SMOOTH",
"350 1300 OFFCURVE",
"350 1300 OFFCURVE",
"370 1300 CURVE SMOOTH",
"690 1300 LINE SMOOTH",
"711 1300 OFFCURVE",
"711 1300 OFFCURVE",
"710 1288 CURVE SMOOTH",
"660 728 LINE SMOOTH",
"656 671 OFFCURVE",
"701 620 OFFCURVE",
"760 620 CURVE SMOOTH",
"812 620 OFFCURVE",
"856 660 OFFCURVE",
"860 712 CURVE SMOOTH",
"910 1272 LINE SMOOTH",
"923 1413 OFFCURVE",
"825 1500 OFFCURVE",
"690 1500 CURVE SMOOTH",
"370 1500 LINE SMOOTH",
"234 1500 OFFCURVE",
"150 1416 OFFCURVE",
"150 1280 CURVE SMOOTH",
"150 -120 LINE SMOOTH",
"150 -256 OFFCURVE",
"234 -340 OFFCURVE",
"370 -340 CURVE SMOOTH"
);
}
);
width = 1038;
},
{
anchors = (
{
name = bottom;
position = "{876, -240}";
},
{
name = top;
position = "{272, 1400}";
}
);
layerId = m002;
paths = (
{
closed = 1;
nodes = (
"1032 -290 LINE SMOOTH",
"1146 -290 OFFCURVE",
"1198 -217 OFFCURVE",
"1155 -103 CURVE SMOOTH",
"1133.211 -43.081 LINE",
"1149.633 -47.589 OFFCURVE",
"1166.371 -50 OFFCURVE",
"1183 -50 CURVE SMOOTH",
"1293 -50 LINE SMOOTH",
"1321 -50 OFFCURVE",
"1343 -28 OFFCURVE",
"1343 0 CURVE SMOOTH",
"1343 28 OFFCURVE",
"1321 50 OFFCURVE",
"1293 50 CURVE SMOOTH",
"1183 50 LINE SMOOTH",
"1133 50 OFFCURVE",
"1088 83 OFFCURVE",
"1068 137 CURVE SMOOTH",
"1035 227 LINE SMOOTH",
"1028 246 OFFCURVE",
"1010 260 OFFCURVE",
"988 260 CURVE SMOOTH",
"948 260 OFFCURVE",
"930 219 OFFCURVE",
"941 193 CURVE SMOOTH",
"1061 -137 LINE SMOOTH",
"1073 -169 OFFCURVE",
"1062 -190 OFFCURVE",
"1032 -190 CURVE SMOOTH",
"712 -190 LINE SMOOTH",
"649 -190 OFFCURVE",
"620 -169 OFFCURVE",
"595 -103 CURVE SMOOTH",
"86 1297 LINE SMOOTH",
"74 1329 OFFCURVE",
"86 1350 OFFCURVE",
"115 1350 CURVE SMOOTH",
"435 1350 LINE SMOOTH",
"500 1350 OFFCURVE",
"534 1328 OFFCURVE",
"551 1267 CURVE SMOOTH",
"705 707 LINE SMOOTH",
"711 686 OFFCURVE",
"730 670 OFFCURVE",
"753 670 CURVE SMOOTH",
"784 670 OFFCURVE",
"810 697 OFFCURVE",
"801 733 CURVE SMOOTH",
"647 1293 LINE SMOOTH",
"619 1397 OFFCURVE",
"535 1450 OFFCURVE",
"435 1450 CURVE SMOOTH",
"115 1450 LINE SMOOTH",
"3 1450 OFFCURVE",
"-50 1379 OFFCURVE",
"-8 1263 CURVE SMOOTH",
"501 -137 LINE SMOOTH",
"538 -236 OFFCURVE",
"610 -290 OFFCURVE",
"712 -290 CURVE SMOOTH"
);
}
);
width = 1038;
},
{
anchors = (
{
name = bottom;
position = "{192, -240}";
},
{
name = top;
position = "{782, 1400}";
}
);
layerId = m004;
paths = (
{
closed = 1;
nodes = (
"348 -290 LINE SMOOTH",
"450 -290 OFFCURVE",
"522 -236 OFFCURVE",
"559 -137 CURVE SMOOTH",
"597.942 -29.91 LINE",
"618.8 -42.772 OFFCURVE",
"644.376 -50 OFFCURVE",
"673 -50 CURVE SMOOTH",
"783 -50 LINE SMOOTH",
"811 -50 OFFCURVE",
"833 -28 OFFCURVE",
"833 0 CURVE SMOOTH",
"833 28 OFFCURVE",
"811 50 OFFCURVE",
"783 50 CURVE SMOOTH",
"673 50 LINE SMOOTH",
"639.313 50 OFFCURVE",
"630.993 55.969 OFFCURVE",
"640.307 86.595 CURVE SMOOTH",
"679 193 LINE SMOOTH",
"690 219 OFFCURVE",
"672 260 OFFCURVE",
"632 260 CURVE SMOOTH",
"610 260 OFFCURVE",
"592 246 OFFCURVE",
"585 227 CURVE",
"465 -103 LINE",
"440 -169 OFFCURVE",
"411 -190 OFFCURVE",
"348 -190 CURVE SMOOTH",
"28 -190 LINE SMOOTH",
"-2 -190 OFFCURVE",
"-13 -169 OFFCURVE",
"-1 -137 CURVE SMOOTH",
"508 1263 LINE SMOOTH",
"532 1329 OFFCURVE",
"561 1350 OFFCURVE",
"625 1350 CURVE SMOOTH",
"945 1350 LINE SMOOTH",
"977 1350 OFFCURVE",
"989 1331 OFFCURVE",
"975 1301 CURVE SMOOTH",
"721 741 LINE",
"711 707 OFFCURVE",
"724 670 OFFCURVE",
"767 670 CURVE SMOOTH",
"787 670 OFFCURVE",
"805 682 OFFCURVE",
"813 699 CURVE SMOOTH",
"1067 1259 LINE SMOOTH",
"1118 1374 OFFCURVE",
"1061 1450 OFFCURVE",
"945 1450 CURVE SMOOTH",
"625 1450 LINE SMOOTH",
"524 1450 OFFCURVE",
"450 1396 OFFCURVE",
"414 1297 CURVE SMOOTH",
"-95 -103 LINE SMOOTH",
"-138 -217 OFFCURVE",
"-86 -290 OFFCURVE",
"28 -290 CURVE SMOOTH"
);
}
);
width = 1038;
},
{
anchors = (
{
name = bottom;
position = "{534, -240}";
},
{
name = top;
position = "{527, 1400}";
}
);
layerId = m005;
paths = (
{
closed = 1;
nodes = (
"690 -290 LINE SMOOTH",
"798 -290 OFFCURVE",
"860 -228 OFFCURVE",
"860 -120 CURVE SMOOTH",
"860 -36.044 LINE",
"880.705 -45.048 OFFCURVE",
"903.683 -50 OFFCURVE",
"928 -50 CURVE SMOOTH",
"3038 -50 LINE SMOOTH",
"3066 -50 OFFCURVE",
"3088 -28 OFFCURVE",
"3088 0 CURVE SMOOTH",
"3088 28 OFFCURVE",
"3066 50 OFFCURVE",
"3038 50 CURVE SMOOTH",
"928 50 LINE SMOOTH",
"883 50 OFFCURVE",
"860 73 OFFCURVE",
"860 120 CURVE SMOOTH",
"860 210 LINE SMOOTH",
"860 238 OFFCURVE",
"838 260 OFFCURVE",
"810 260 CURVE SMOOTH",
"782 260 OFFCURVE",
"760 238 OFFCURVE",
"760 210 CURVE SMOOTH",
"760 -120 LINE SMOOTH",
"760 -179 OFFCURVE",
"749 -190 OFFCURVE",
"690 -190 CURVE SMOOTH",
"370 -190 LINE SMOOTH",
"311 -190 OFFCURVE",
"300 -179 OFFCURVE",
"300 -120 CURVE SMOOTH",
"300 1280 LINE SMOOTH",
"300 1339 OFFCURVE",
"311 1350 OFFCURVE",
"370 1350 CURVE SMOOTH",
"690 1350 LINE SMOOTH",
"752 1350 OFFCURVE",
"765 1339 OFFCURVE",
"760 1284 CURVE SMOOTH",
"710 724 LINE SMOOTH",
"708 696 OFFCURVE",
"730 670 OFFCURVE",
"760 670 CURVE SMOOTH",
"786 670 OFFCURVE",
"808 690 OFFCURVE",
"810 716 CURVE SMOOTH",
"860 1276 LINE SMOOTH",
"870 1387 OFFCURVE",
"797 1450 OFFCURVE",
"690 1450 CURVE SMOOTH",
"370 1450 LINE SMOOTH",
"262 1450 OFFCURVE",
"200 1388 OFFCURVE",
"200 1280 CURVE SMOOTH",
"200 -120 LINE SMOOTH",
"200 -228 OFFCURVE",
"262 -290 OFFCURVE",
"370 -290 CURVE SMOOTH"
);
}
);
width = 3038;
},
{
anchors = (
{
name = bottom;
position = "{534, -240}";
},
{
name = top;
position = "{527, 1400}";
}
);
layerId = m006;
paths = (
{
closed = 1;
nodes = (
"690 -290 LINE SMOOTH",
"798 -290 OFFCURVE",
"860 -228 OFFCURVE",
"860 -120 CURVE SMOOTH",
"860 -36.044 LINE",
"880.705 -45.048 OFFCURVE",
"903.683 -50 OFFCURVE",
"928 -50 CURVE SMOOTH",
"1038 -50 LINE SMOOTH",
"1066 -50 OFFCURVE",
"1088 -28 OFFCURVE",
"1088 0 CURVE SMOOTH",
"1088 28 OFFCURVE",
"1066 50 OFFCURVE",
"1038 50 CURVE SMOOTH",
"928 50 LINE SMOOTH",
"883 50 OFFCURVE",
"860 73 OFFCURVE",
"860 120 CURVE SMOOTH",
"860 210 LINE SMOOTH",
"860 238 OFFCURVE",
"838 260 OFFCURVE",
"810 260 CURVE SMOOTH",
"782 260 OFFCURVE",
"760 238 OFFCURVE",
"760 210 CURVE SMOOTH",
"760 -120 LINE SMOOTH",
"760 -179 OFFCURVE",
"749 -190 OFFCURVE",
"690 -190 CURVE SMOOTH",
"370 -190 LINE SMOOTH",
"311 -190 OFFCURVE",
"300 -179 OFFCURVE",
"300 -120 CURVE SMOOTH",
"300 1280 LINE SMOOTH",
"300 1339 OFFCURVE",
"311 1350 OFFCURVE",
"370 1350 CURVE SMOOTH",
"690 1350 LINE SMOOTH",
"752 1350 OFFCURVE",
"765 1339 OFFCURVE",
"760 1284 CURVE SMOOTH",
"710 724 LINE SMOOTH",
"708 696 OFFCURVE",
"730 670 OFFCURVE",
"760 670 CURVE SMOOTH",
"786 670 OFFCURVE",
"808 690 OFFCURVE",
"810 716 CURVE SMOOTH",
"860 1276 LINE SMOOTH",
"870 1387 OFFCURVE",
"797 1450 OFFCURVE",
"690 1450 CURVE SMOOTH",
"370 1450 LINE SMOOTH",
"262 1450 OFFCURVE",
"200 1388 OFFCURVE",
"200 1280 CURVE SMOOTH",
"200 -120 LINE SMOOTH",
"200 -228 OFFCURVE",
"262 -290 OFFCURVE",
"370 -290 CURVE SMOOTH"
);
}
);
width = 1038;
}
);
leftKerningGroup = O;
unicode = 0043;
},
{
glyphname = D;
lastChange = "2021-04-29 15:54:39 +0000";
layers = (
{
anchors = (
{
name = bottom;
position = "{612, -240}";
},
{
name = center;
position = "{592, 700}";
},
{
name = top;
position = "{646, 1400}";
}
);
layerId = m003;
paths = (
{
closed = 1;
nodes = (
"818 -340 LINE SMOOTH",
"956 -340 OFFCURVE",
"1032 -254 OFFCURVE",
"1038 -124 CURVE SMOOTH",
"1039 -98 LINE",
"1048 -99 OFFCURVE",
"1057 -100 OFFCURVE",
"1066 -100 CURVE SMOOTH",
"1216 -100 LINE SMOOTH",
"1272 -100 OFFCURVE",
"1316 -56 OFFCURVE",
"1316 0 CURVE SMOOTH",
"1316 56 OFFCURVE",
"1272 100 OFFCURVE",
"1216 100 CURVE SMOOTH",
"1066 100 LINE SMOOTH",
"1050 100 OFFCURVE",
"1049 100 OFFCURVE",
"1048 114 CURVE",
"1098 1276 LINE SMOOTH",
"1104 1416 OFFCURVE",
"1011 1500 OFFCURVE",
"878 1500 CURVE SMOOTH",
"68 1500 LINE SMOOTH",
"12 1500 OFFCURVE",
"-32 1456 OFFCURVE",
"-32 1400 CURVE SMOOTH",
"-32 1344 OFFCURVE",
"12 1300 OFFCURVE",
"68 1300 CURVE SMOOTH",
"268 1300 LINE",
"268 -239 LINE SMOOTH",
"268 -296 OFFCURVE",
"312 -340 OFFCURVE",
"369 -340 CURVE SMOOTH"
);
},
{
closed = 1;
nodes = (
"468 1300 LINE",
"878 1300 LINE SMOOTH",
"899 1300 OFFCURVE",
"899 1300 OFFCURVE",
"898 1284 CURVE SMOOTH",
"838 -116 LINE SMOOTH",
"837 -140 OFFCURVE",
"837 -140 OFFCURVE",
"818 -140 CURVE SMOOTH",
"468 -140 LINE"
);
}
);
width = 1216;
},
{
anchors = (
{
name = bottom;
position = "{954, -240}";
},
{
name = center;
position = "{592, 700}";
},
{
name = top;
position = "{391, 1400}";
}
);
layerId = m002;
paths = (
{
closed = 1;
nodes = (
"1160 -290 LINE SMOOTH",
"1261 -290 OFFCURVE",
"1325 -231 OFFCURVE",
"1284 -105 CURVE SMOOTH",
"1263.401 -40.772 LINE",
"1282.306 -46.761 OFFCURVE",
"1301.727 -50 OFFCURVE",
"1321 -50 CURVE SMOOTH",
"1471 -50 LINE SMOOTH",
"1499 -50 OFFCURVE",
"1521 -28 OFFCURVE",
"1521 0 CURVE SMOOTH",
"1521 28 OFFCURVE",
"1499 50 OFFCURVE",
"1471 50 CURVE SMOOTH",
"1321 50 LINE SMOOTH",
"1272.715 50 OFFCURVE",
"1229.092 80.776 OFFCURVE",
"1208.145 131.519 CURVE",
"835 1295 LINE SMOOTH",
"803 1397 OFFCURVE",
"724 1450 OFFCURVE",
"623 1450 CURVE SMOOTH",
"-187 1450 LINE SMOOTH",
"-215 1450 OFFCURVE",
"-237 1428 OFFCURVE",
"-237 1400 CURVE SMOOTH",
"-237 1372 OFFCURVE",
"-215 1350 OFFCURVE",
"-187 1350 CURVE SMOOTH",
"78.379 1350 LINE",
"653 -229 LINE SMOOTH",
"667 -266 OFFCURVE",
"700 -290 OFFCURVE",
"740 -290 CURVE SMOOTH"
);
},
{
closed = 1;
nodes = (
"184 1350 LINE",
"623 1350 LINE SMOOTH",
"688 1350 OFFCURVE",
"719 1328 OFFCURVE",
"739 1265 CURVE SMOOTH",
"1188 -135 LINE SMOOTH",
"1199 -168 OFFCURVE",
"1188 -190 OFFCURVE",
"1160 -190 CURVE SMOOTH",
"745 -190 LINE"
);
}
);
width = 1216;
},
{
anchors = (
{
name = bottom;
position = "{270, -240}";
},
{
name = center;
position = "{592, 700}";
},
{
name = top;
position = "{901, 1400}";
}
);
layerId = m004;
paths = (
{
closed = 1;
nodes = (
"476 -290 LINE SMOOTH",
"578 -290 OFFCURVE",
"645 -236 OFFCURVE",
"686 -139 CURVE SMOOTH",
"731.504 -27.041 LINE",
"753.127 -41.692 OFFCURVE",
"780.312 -50 OFFCURVE",
"811 -50 CURVE SMOOTH",
"961 -50 LINE SMOOTH",
"989 -50 OFFCURVE",
"1011 -28 OFFCURVE",
"1011 0 CURVE SMOOTH",
"1011 28 OFFCURVE",
"989 50 OFFCURVE",
"961 50 CURVE SMOOTH",
"811 50 LINE SMOOTH",
"783 50 OFFCURVE",
"771 67 OFFCURVE",
"780.909 94.52 CURVE",
"1255 1261 LINE SMOOTH",
"1302 1375 OFFCURVE",
"1249 1450 OFFCURVE",
"1133 1450 CURVE SMOOTH",
"323 1450 LINE SMOOTH",
"295 1450 OFFCURVE",
"273 1428 OFFCURVE",
"273 1400 CURVE SMOOTH",
"273 1372 OFFCURVE",
"295 1350 OFFCURVE",
"323 1350 CURVE SMOOTH",
"551.621 1350 LINE",
"-17 -212 LINE SMOOTH",
"-32 -252 OFFCURVE",
"-5 -290 OFFCURVE",
"38 -290 CURVE SMOOTH"
);
},
{
closed = 1;
nodes = (
"658 1350 LINE",
"1133 1350 LINE SMOOTH",
"1164 1350 OFFCURVE",
"1176 1330 OFFCURVE",
"1163 1299 CURVE",
"594 -101 LINE",
"565 -169 OFFCURVE",
"538 -190 OFFCURVE",
"476 -190 CURVE SMOOTH",
"97 -190 LINE"
);
}
);
width = 1216;
},
{
anchors = (
{
name = bottom;
position = "{612, -240}";
},
{
name = center;
position = "{592, 700}";
},
{
name = top;
position = "{646, 1400}";
}
);
layerId = m005;
paths = (
{
closed = 1;
nodes = (
"818 -290 LINE SMOOTH",
"927 -290 OFFCURVE",
"983 -227 OFFCURVE",
"988 -122 CURVE SMOOTH",
"991.806 -33.197 LINE",
"1014.084 -43.999 OFFCURVE",
"1039.231 -50 OFFCURVE",
"1066 -50 CURVE SMOOTH",
"3216 -50 LINE SMOOTH",
"3244 -50 OFFCURVE",
"3266 -28 OFFCURVE",
"3266 0 CURVE SMOOTH",
"3266 28 OFFCURVE",
"3244 50 OFFCURVE",
"3216 50 CURVE SMOOTH",
"1066 50 LINE SMOOTH",
"1022.896 50 OFFCURVE",
"999.977 71.103 OFFCURVE",
"998.122 114.188 CURVE",
"1048 1278 LINE SMOOTH",
"1053 1388 OFFCURVE",
"985 1450 OFFCURVE",
"878 1450 CURVE SMOOTH",
"68 1450 LINE SMOOTH",
"40 1450 OFFCURVE",
"18 1428 OFFCURVE",
"18 1400 CURVE SMOOTH",
"18 1372 OFFCURVE",
"40 1350 OFFCURVE",
"68 1350 CURVE SMOOTH",
"318 1350 LINE",
"318 -239 LINE SMOOTH",
"318 -268 OFFCURVE",
"340 -290 OFFCURVE",
"369 -290 CURVE SMOOTH"
);
},
{
closed = 1;
nodes = (
"418 1350 LINE",
"878 1350 LINE SMOOTH",
"939 1350 OFFCURVE",
"951 1339 OFFCURVE",
"948 1282 CURVE SMOOTH",
"888 -118 LINE SMOOTH",
"885 -180 OFFCURVE",
"876 -190 OFFCURVE",
"818 -190 CURVE SMOOTH",
"418 -190 LINE"
);
}
);
width = 3216;
},
{
anchors = (
{
name = bottom;
position = "{612, -240}";
},
{
name = center;
position = "{592, 700}";
},
{
name = top;
position = "{646, 1400}";
}
);
layerId = m006;
paths = (
{
closed = 1;
nodes = (
"818 -290 LINE SMOOTH",
"927 -290 OFFCURVE",
"983 -227 OFFCURVE",
"988 -122 CURVE SMOOTH",
"991.806 -33.197 LINE",
"1014.084 -43.999 OFFCURVE",
"1039.231 -50 OFFCURVE",
"1066 -50 CURVE SMOOTH",
"1216 -50 LINE SMOOTH",
"1244 -50 OFFCURVE",
"1266 -28 OFFCURVE",
"1266 0 CURVE SMOOTH",
"1266 28 OFFCURVE",
"1244 50 OFFCURVE",
"1216 50 CURVE SMOOTH",
"1066 50 LINE SMOOTH",
"1022.896 50 OFFCURVE",
"999.977 71.103 OFFCURVE",
"998.122 114.188 CURVE",
"1048 1278 LINE SMOOTH",
"1053 1388 OFFCURVE",
"985 1450 OFFCURVE",
"878 1450 CURVE SMOOTH",
"68 1450 LINE SMOOTH",
"40 1450 OFFCURVE",
"18 1428 OFFCURVE",
"18 1400 CURVE SMOOTH",
"18 1372 OFFCURVE",
"40 1350 OFFCURVE",
"68 1350 CURVE SMOOTH",
"318 1350 LINE",
"318 -239 LINE SMOOTH",
"318 -268 OFFCURVE",
"340 -290 OFFCURVE",
"369 -290 CURVE SMOOTH"
);
},
{
closed = 1;
nodes = (
"418 1350 LINE",
"878 1350 LINE SMOOTH",
"939 1350 OFFCURVE",
"951 1339 OFFCURVE",
"948 1282 CURVE SMOOTH",
"888 -118 LINE SMOOTH",
"885 -180 OFFCURVE",
"876 -190 OFFCURVE",
"818 -190 CURVE SMOOTH",
"418 -190 LINE"
);
}
);
width = 1216;
}
);
leftKerningGroup = D;
rightKerningGroup = D;
unicode = 0044;
},
{
glyphname = Eth;
lastChange = "2021-04-29 15:54:39 +0000";
layers = (
{
anchors = (
{
name = bottom;
position = "{612, -240}";
},
{
name = center;
position = "{592, 700}";
},
{
name = top;
position = "{646, 1400}";
}
);
layerId = m003;
paths = (
{
closed = 1;
nodes = (
"818 -340 LINE SMOOTH",
"956 -340 OFFCURVE",
"1032 -254 OFFCURVE",
"1038 -124 CURVE SMOOTH",
"1039 -98 LINE",
"1048 -99 OFFCURVE",
"1057 -100 OFFCURVE",
"1066 -100 CURVE SMOOTH",
"1216 -100 LINE SMOOTH",
"1272 -100 OFFCURVE",
"1316 -56 OFFCURVE",
"1316 0 CURVE SMOOTH",
"1316 56 OFFCURVE",
"1272 100 OFFCURVE",
"1216 100 CURVE SMOOTH",
"1066 100 LINE SMOOTH",
"1050 100 OFFCURVE",
"1049 100 OFFCURVE",
"1048 114 CURVE",
"1098 1276 LINE SMOOTH",
"1104 1416 OFFCURVE",
"1011 1500 OFFCURVE",
"878 1500 CURVE SMOOTH",
"68 1500 LINE SMOOTH",
"12 1500 OFFCURVE",
"-32 1456 OFFCURVE",
"-32 1400 CURVE SMOOTH",
"-32 1344 OFFCURVE",
"12 1300 OFFCURVE",
"68 1300 CURVE SMOOTH",
"268 1300 LINE",
"268 578 LINE",
"70 578 LINE SMOOTH",
"14 578 OFFCURVE",
"-30 534 OFFCURVE",
"-30 478 CURVE SMOOTH",
"-30 422 OFFCURVE",
"14 378 OFFCURVE",
"70 378 CURVE SMOOTH",
"268 378 LINE",
"268 -239 LINE SMOOTH",
"268 -296 OFFCURVE",
"312 -340 OFFCURVE",
"369 -340 CURVE SMOOTH"
);
},
{
closed = 1;
nodes = (
"468 378 LINE",
"668 378 LINE SMOOTH",
"724 378 OFFCURVE",
"768 422 OFFCURVE",
"768 478 CURVE SMOOTH",
"768 534 OFFCURVE",
"724 578 OFFCURVE",
"668 578 CURVE SMOOTH",
"468 578 LINE",
"468 1300 LINE",
"878 1300 LINE SMOOTH",
"899 1300 OFFCURVE",
"899 1300 OFFCURVE",
"898 1284 CURVE SMOOTH",
"838 -116 LINE SMOOTH",
"837 -140 OFFCURVE",
"837 -140 OFFCURVE",
"818 -140 CURVE SMOOTH",
"468 -140 LINE"
);
}
);
width = 1216;
},
{
anchors = (
{
name = bottom;
position = "{954, -240}";
},
{
name = center;
position = "{592, 700}";
},
{
name = top;
position = "{391, 1400}";
}
);
layerId = m002;
paths = (
{
closed = 1;
nodes = (
"1159 -290 LINE SMOOTH",
"1260 -290 OFFCURVE",
"1324 -231 OFFCURVE",
"1283 -105 CURVE SMOOTH",
"1262 -41 LINE",
"1281 -47 OFFCURVE",
"1301 -50 OFFCURVE",
"1320 -50 CURVE SMOOTH",
"1470 -50 LINE SMOOTH",
"1498 -50 OFFCURVE",
"1520 -28 OFFCURVE",
"1520 0 CURVE SMOOTH",
"1520 28 OFFCURVE",
"1498 50 OFFCURVE",
"1470 50 CURVE SMOOTH",
"1320 50 LINE SMOOTH",
"1272 50 OFFCURVE",
"1228 81 OFFCURVE",
"1207 132 CURVE",
"834 1295 LINE SMOOTH",
"802 1397 OFFCURVE",
"723 1450 OFFCURVE",
"622 1450 CURVE SMOOTH",
"-188 1450 LINE SMOOTH",
"-216 1450 OFFCURVE",
"-238 1428 OFFCURVE",
"-238 1400 CURVE SMOOTH",
"-238 1372 OFFCURVE",
"-216 1350 OFFCURVE",
"-188 1350 CURVE SMOOTH",
"77 1350 LINE",
"376.335 528 LINE",
"170 528 LINE SMOOTH",
"142 528 OFFCURVE",
"120 506 OFFCURVE",
"120 478 CURVE SMOOTH",
"120 450 OFFCURVE",
"142 428 OFFCURVE",
"170 428 CURVE SMOOTH",
"412.75 428 LINE",
"652 -229 LINE SMOOTH",
"666 -266 OFFCURVE",
"699 -290 OFFCURVE",
"739 -290 CURVE SMOOTH"
);
},
{
closed = 1;
nodes = (
"518.871 428 LINE",
"768 428 LINE SMOOTH",
"796 428 OFFCURVE",
"818 450 OFFCURVE",
"818 478 CURVE SMOOTH",
"818 506 OFFCURVE",
"796 528 OFFCURVE",
"768 528 CURVE SMOOTH",
"482.443 528 LINE",
"183 1350 LINE",
"622 1350 LINE SMOOTH",
"687 1350 OFFCURVE",
"718 1328 OFFCURVE",
"738 1265 CURVE SMOOTH",
"1187 -135 LINE SMOOTH",
"1198 -168 OFFCURVE",
"1187 -190 OFFCURVE",
"1159 -190 CURVE SMOOTH",
"744 -190 LINE"
);
}
);
width = 1216;
},
{
anchors = (
{
name = bottom;
position = "{270, -240}";
},
{
name = center;
position = "{592, 700}";
},
{
name = top;
position = "{901, 1400}";
}
);
background = {
paths = (
{
closed = 1;
nodes = (
"476 -290 LINE SMOOTH",
"578 -290 OFFCURVE",
"645 -236 OFFCURVE",
"686 -139 CURVE SMOOTH",
"731.504 -27.041 LINE",
"753.127 -41.692 OFFCURVE",
"780.312 -50 OFFCURVE",
"811 -50 CURVE SMOOTH",
"961 -50 LINE SMOOTH",
"989 -50 OFFCURVE",
"1011 -28 OFFCURVE",
"1011 0 CURVE SMOOTH",
"1011 28 OFFCURVE",
"989 50 OFFCURVE",
"961 50 CURVE SMOOTH",
"811 50 LINE SMOOTH",
"774.589 50 OFFCURVE",
"767.814 56.973 OFFCURVE",
"780.909 94.52 CURVE",
"1255 1261 LINE SMOOTH",
"1302 1375 OFFCURVE",
"1249 1450 OFFCURVE",
"1133 1450 CURVE SMOOTH",
"323 1450 LINE SMOOTH",
"295 1450 OFFCURVE",
"273 1428 OFFCURVE",
"273 1400 CURVE SMOOTH",
"273 1372 OFFCURVE",
"295 1350 OFFCURVE",
"323 1350 CURVE SMOOTH",
"551.621 1350 LINE",
"252.583 528 LINE",
"-11 528 LINE SMOOTH",
"-39 528 OFFCURVE",
"-61 506 OFFCURVE",
"-61 478 CURVE SMOOTH",
"-61 450 OFFCURVE",
"-39 428 OFFCURVE",
"-11 428 CURVE SMOOTH",
"216.203 428 LINE",
"-45 -290 LINE"
);
},
{
closed = 1;
nodes = (
"322.129 428 LINE",
"587 428 LINE SMOOTH",
"615 428 OFFCURVE",
"637 450 OFFCURVE",
"637 478 CURVE SMOOTH",
"637 506 OFFCURVE",
"615 528 OFFCURVE",
"587 528 CURVE SMOOTH",
"358.557 528 LINE",
"658 1350 LINE",
"1133 1350 LINE SMOOTH",
"1184 1350 OFFCURVE",
"1184 1350 OFFCURVE",
"1163 1299 CURVE SMOOTH",
"694.445 146.14 LINE",
"692.673 143.264 OFFCURVE",
"691.18 140.203 OFFCURVE",
"690 137 CURVE SMOOTH",
"686.526 126.656 LINE",
"594 -101 LINE SMOOTH",
"565 -169 OFFCURVE",
"538 -190 OFFCURVE",
"476 -190 CURVE SMOOTH",
"97 -190 LINE"
);
}
);
};
layerId = m004;
paths = (
{
closed = 1;
nodes = (
"476 -290 LINE SMOOTH",
"578 -290 OFFCURVE",
"645 -236 OFFCURVE",
"686 -139 CURVE SMOOTH",
"731.504 -27.041 LINE",
"753.127 -41.692 OFFCURVE",
"780.312 -50 OFFCURVE",
"811 -50 CURVE SMOOTH",
"961 -50 LINE SMOOTH",
"989 -50 OFFCURVE",
"1011 -28 OFFCURVE",
"1011 0 CURVE SMOOTH",
"1011 28 OFFCURVE",
"989 50 OFFCURVE",
"961 50 CURVE SMOOTH",
"811 50 LINE SMOOTH",
"783 50 OFFCURVE",
"771 67 OFFCURVE",
"780.909 94.52 CURVE SMOOTH",
"1255 1261 LINE SMOOTH",
"1302 1375 OFFCURVE",
"1249 1450 OFFCURVE",
"1133 1450 CURVE SMOOTH",
"323 1450 LINE SMOOTH",
"295 1450 OFFCURVE",
"273 1428 OFFCURVE",
"273 1400 CURVE SMOOTH",
"273 1372 OFFCURVE",
"295 1350 OFFCURVE",
"323 1350 CURVE SMOOTH",
"551.621 1350 LINE",
"252.385 528 LINE",
"-10 528 LINE SMOOTH",
"-38 528 OFFCURVE",
"-60 506 OFFCURVE",
"-60 478 CURVE SMOOTH",
"-60 450 OFFCURVE",
"-38 428 OFFCURVE",
"-10 428 CURVE SMOOTH",
"215.982 428 LINE",
"-17 -212 LINE SMOOTH",
"-32 -252 OFFCURVE",
"-5 -290 OFFCURVE",
"38 -290 CURVE SMOOTH"
);
},
{
closed = 1;
nodes = (
"322.129 428 LINE",
"588 428 LINE SMOOTH",
"616 428 OFFCURVE",
"638 450 OFFCURVE",
"638 478 CURVE SMOOTH",
"638 506 OFFCURVE",
"616 528 OFFCURVE",
"588 528 CURVE SMOOTH",
"358.557 528 LINE",
"658 1350 LINE",
"1133 1350 LINE SMOOTH",
"1164 1350 OFFCURVE",
"1176 1330 OFFCURVE",
"1163 1299 CURVE SMOOTH",
"594 -101 LINE SMOOTH",
"565 -169 OFFCURVE",
"538 -190 OFFCURVE",
"476 -190 CURVE SMOOTH",
"97 -190 LINE"
);
}
);
width = 1216;
},
{
anchors = (
{
name = bottom;
position = "{612, -240}";
},
{
name = center;
position = "{592, 700}";
},
{
name = top;
position = "{646, 1400}";
}
);
layerId = m005;
paths = (
{
closed = 1;
nodes = (
"818 -290 LINE SMOOTH",
"927 -290 OFFCURVE",
"983 -227 OFFCURVE",
"988 -122 CURVE SMOOTH",
"991.806 -33.197 LINE",
"1014.084 -43.999 OFFCURVE",
"1039.231 -50 OFFCURVE",
"1066 -50 CURVE SMOOTH",
"3216 -50 LINE SMOOTH",
"3244 -50 OFFCURVE",
"3266 -28 OFFCURVE",
"3266 0 CURVE SMOOTH",
"3266 28 OFFCURVE",
"3244 50 OFFCURVE",
"3216 50 CURVE SMOOTH",
"1066 50 LINE SMOOTH",
"1022.896 50 OFFCURVE",
"999.977 71.103 OFFCURVE",
"998.122 114.188 CURVE",
"1048 1278 LINE SMOOTH",
"1053 1388 OFFCURVE",
"985 1450 OFFCURVE",
"878 1450 CURVE SMOOTH",
"68 1450 LINE SMOOTH",
"40 1450 OFFCURVE",
"18 1428 OFFCURVE",
"18 1400 CURVE SMOOTH",
"18 1372 OFFCURVE",
"40 1350 OFFCURVE",
"68 1350 CURVE SMOOTH",
"318 1350 LINE",
"318 528 LINE",
"70 528 LINE SMOOTH",
"42 528 OFFCURVE",
"20 506 OFFCURVE",
"20 478 CURVE SMOOTH",
"20 450 OFFCURVE",
"42 428 OFFCURVE",
"70 428 CURVE SMOOTH",
"318 428 LINE",
"318 -239 LINE SMOOTH",
"318 -268 OFFCURVE",
"340 -290 OFFCURVE",
"369 -290 CURVE SMOOTH"
);
},
{
closed = 1;
nodes = (
"418 428 LINE",
"668 428 LINE SMOOTH",
"696 428 OFFCURVE",
"718 450 OFFCURVE",
"718 478 CURVE SMOOTH",
"718 506 OFFCURVE",
"696 528 OFFCURVE",
"668 528 CURVE SMOOTH",
"418 528 LINE",
"418 1350 LINE",
"878 1350 LINE SMOOTH",
"939 1350 OFFCURVE",
"951 1339 OFFCURVE",
"948 1282 CURVE SMOOTH",
"888 -118 LINE SMOOTH",
"885 -180 OFFCURVE",
"876 -190 OFFCURVE",
"818 -190 CURVE SMOOTH",
"418 -190 LINE"
);
}
);
width = 3216;
},
{
anchors = (
{
name = bottom;
position = "{612, -240}";
},
{
name = center;
position = "{592, 700}";
},
{
name = top;
position = "{646, 1400}";
}
);
layerId = m006;
paths = (
{
closed = 1;
nodes = (
"818 -290 LINE SMOOTH",
"927 -290 OFFCURVE",
"983 -227 OFFCURVE",
"988 -122 CURVE SMOOTH",
"991.806 -33.197 LINE",
"1014.084 -43.999 OFFCURVE",
"1039.231 -50 OFFCURVE",
"1066 -50 CURVE SMOOTH",
"1216 -50 LINE SMOOTH",
"1244 -50 OFFCURVE",
"1266 -28 OFFCURVE",
"1266 0 CURVE SMOOTH",
"1266 28 OFFCURVE",
"1244 50 OFFCURVE",
"1216 50 CURVE SMOOTH",
"1066 50 LINE SMOOTH",
"1022.896 50 OFFCURVE",
"999.977 71.103 OFFCURVE",
"998.122 114.188 CURVE",
"1048 1278 LINE SMOOTH",
"1053 1388 OFFCURVE",
"985 1450 OFFCURVE",
"878 1450 CURVE SMOOTH",
"68 1450 LINE SMOOTH",
"40 1450 OFFCURVE",
"18 1428 OFFCURVE",
"18 1400 CURVE SMOOTH",
"18 1372 OFFCURVE",
"40 1350 OFFCURVE",
"68 1350 CURVE SMOOTH",
"318 1350 LINE",
"318 528 LINE",
"70 528 LINE SMOOTH",
"42 528 OFFCURVE",
"20 506 OFFCURVE",
"20 478 CURVE SMOOTH",
"20 450 OFFCURVE",
"42 428 OFFCURVE",
"70 428 CURVE SMOOTH",
"318 428 LINE",
"318 -239 LINE SMOOTH",
"318 -268 OFFCURVE",
"340 -290 OFFCURVE",
"369 -290 CURVE SMOOTH"
);
},
{
closed = 1;
nodes = (
"418 428 LINE",
"668 428 LINE SMOOTH",
"696 428 OFFCURVE",
"718 450 OFFCURVE",
"718 478 CURVE SMOOTH",
"718 506 OFFCURVE",
"696 528 OFFCURVE",
"668 528 CURVE SMOOTH",
"418 528 LINE",
"418 1350 LINE",
"878 1350 LINE SMOOTH",
"939 1350 OFFCURVE",
"951 1339 OFFCURVE",
"948 1282 CURVE SMOOTH",
"888 -118 LINE SMOOTH",
"885 -180 OFFCURVE",
"876 -190 OFFCURVE",
"818 -190 CURVE SMOOTH",
"418 -190 LINE"
);
}
);
width = 1216;
}
);
leftKerningGroup = D;
rightKerningGroup = D;
unicode = 00D0;
},
{
glyphname = E;
lastChange = "2021-04-29 15:54:39 +0000";
layers = (
{
anchors = (
{
name = bottom;
position = "{560, -240}";
},
{
name = ogonek;
position = "{900, -240}";
},
{
name = top;
position = "{634, 1400}";
},
{
name = topleft;
position = "{-10, 1400}";
}
);
layerId = m003;
paths = (
{
closed = 1;
nodes = (
"1128 -100 LINE SMOOTH",
"1184 -100 OFFCURVE",
"1228 -56 OFFCURVE",
"1228 0 CURVE SMOOTH",
"1228 56 OFFCURVE",
"1184 100 OFFCURVE",
"1128 100 CURVE SMOOTH",
"1018 100 LINE SMOOTH",
"1000 100 OFFCURVE",
"1000 100 OFFCURVE",
"1000 120 CURVE SMOOTH",
"1000 220 LINE SMOOTH",
"1000 276 OFFCURVE",
"956 320 OFFCURVE",
"900 320 CURVE SMOOTH",
"844 320 OFFCURVE",
"800 276 OFFCURVE",
"800 220 CURVE SMOOTH",
"800 -50 LINE SMOOTH",
"800 -130 OFFCURVE",
"790 -140 OFFCURVE",
"710 -140 CURVE SMOOTH",
"370 -140 LINE SMOOTH",
"350 -140 OFFCURVE",
"350 -140 OFFCURVE",
"350 -120 CURVE SMOOTH",
"350 340 LINE SMOOTH",
"350 360 OFFCURVE",
"350 360 OFFCURVE",
"370 360 CURVE SMOOTH",
"630 360 LINE SMOOTH",
"686 360 OFFCURVE",
"730 404 OFFCURVE",
"730 460 CURVE SMOOTH",
"730 516 OFFCURVE",
"686 560 OFFCURVE",
"630 560 CURVE SMOOTH",
"490 560 LINE SMOOTH",
"470 560 OFFCURVE",
"470 560 OFFCURVE",
"470 580 CURVE SMOOTH",
"470 1280 LINE SMOOTH",
"470 1300 OFFCURVE",
"470 1300 OFFCURVE",
"490 1300 CURVE SMOOTH",
"780 1300 LINE SMOOTH",
"801 1300 OFFCURVE",
"801 1300 OFFCURVE",
"800 1290 CURVE SMOOTH",
"760 869 LINE SMOOTH",
"756 811 OFFCURVE",
"801 760 OFFCURVE",
"860 760 CURVE SMOOTH",
"911 760 OFFCURVE",
"954 799 OFFCURVE",
"960 850 CURVE SMOOTH",
"1000 1270 LINE SMOOTH",
"1011 1405 OFFCURVE",
"925 1500 OFFCURVE",
"780 1500 CURVE SMOOTH",
"490 1500 LINE SMOOTH",
"358 1500 OFFCURVE",
"270 1412 OFFCURVE",
"270 1280 CURVE SMOOTH",
"270 580 LINE SMOOTH",
"270 567 OFFCURVE",
"271 554 OFFCURVE",
"273 541 CURVE",
"196 508 OFFCURVE",
"150 435 OFFCURVE",
"150 340 CURVE SMOOTH",
"150 -120 LINE SMOOTH",
"150 -252 OFFCURVE",
"238 -340 OFFCURVE",
"370 -340 CURVE SMOOTH",
"710 -340 LINE SMOOTH",
"888 -340 OFFCURVE",
"1000 -228 OFFCURVE",
"1000 -50 CURVE SMOOTH",
"1000 -110 LINE",
"958 -95 OFFCURVE",
"988 -100 OFFCURVE",
"1018 -100 CURVE SMOOTH"
);
}
);
width = 1128;
},
{
anchors = (
{
name = bottom;
position = "{902, -240}";
},
{
name = ogonek;
position = "{1242, -240}";
},
{
name = top;
position = "{379, 1400}";
},
{
name = topleft;
position = "{-265, 1400}";
}
);
layerId = m002;
paths = (
{
closed = 1;
nodes = (
"1383 -50 LINE SMOOTH",
"1411 -50 OFFCURVE",
"1433 -28 OFFCURVE",
"1433 0 CURVE SMOOTH",
"1433 28 OFFCURVE",
"1411 50 OFFCURVE",
"1383 50 CURVE SMOOTH",
"1273 50 LINE SMOOTH",
"1217.244 50 OFFCURVE",
"1182 71 OFFCURVE",
"1161.887 127.107 CURVE SMOOTH",
"1122 237 LINE SMOOTH",
"1115 256 OFFCURVE",
"1097 270 OFFCURVE",
"1075 270 CURVE SMOOTH",
"1035 270 OFFCURVE",
"1018 230 OFFCURVE",
"1028 203 CURVE",
"1126 -67 LINE",
"1153 -142 OFFCURVE",
"1124 -190 OFFCURVE",
"1052 -190 CURVE SMOOTH",
"712 -190 LINE SMOOTH",
"652 -190 OFFCURVE",
"618 -165 OFFCURVE",
"595 -103 CURVE SMOOTH",
"428 357 LINE SMOOTH",
"416 389 OFFCURVE",
"428 410 OFFCURVE",
"457 410 CURVE SMOOTH",
"717 410 LINE SMOOTH",
"745 410 OFFCURVE",
"767 432 OFFCURVE",
"767 460 CURVE SMOOTH",
"767 488 OFFCURVE",
"745 510 OFFCURVE",
"717 510 CURVE SMOOTH",
"577 510 LINE SMOOTH",
"517 510 OFFCURVE",
"484 535 OFFCURVE",
"461 597 CURVE SMOOTH",
"206 1297 LINE SMOOTH",
"194 1329 OFFCURVE",
"206 1350 OFFCURVE",
"235 1350 CURVE SMOOTH",
"525 1350 LINE SMOOTH",
"594 1350 OFFCURVE",
"625 1327 OFFCURVE",
"641 1267 CURVE SMOOTH",
"754 847 LINE SMOOTH",
"760 826 OFFCURVE",
"779 810 OFFCURVE",
"802 810 CURVE SMOOTH",
"836 810 OFFCURVE",
"859 840 OFFCURVE",
"850 873 CURVE SMOOTH",
"737 1293 LINE SMOOTH",
"711 1391 OFFCURVE",
"633 1450 OFFCURVE",
"525 1450 CURVE SMOOTH",
"235 1450 LINE SMOOTH",
"126 1450 OFFCURVE",
"71 1374 OFFCURVE",
"112 1263 CURVE SMOOTH",
"367 563 LINE SMOOTH",
"375 540 OFFCURVE",
"385.843 519.553 OFFCURVE",
"398.731 501.313 CURVE",
"329.928 478.403 OFFCURVE",
"302 412 OFFCURVE",
"334 323 CURVE SMOOTH",
"501 -137 LINE SMOOTH",
"536 -232 OFFCURVE",
"615 -290 OFFCURVE",
"712 -290 CURVE SMOOTH",
"1052 -290 LINE SMOOTH",
"1201.157 -290 OFFCURVE",
"1273 -197 OFFCURVE",
"1224 -45 CURVE",
"1223 -42 LINE",
"1240 -47 OFFCURVE",
"1256 -49 OFFCURVE",
"1273 -49 CURVE"
);
}
);
width = 1128;
},
{
anchors = (
{
name = bottom;
position = "{218, -240}";
},
{
name = ogonek;
position = "{558, -240}";
},
{
name = top;
position = "{889, 1400}";
},
{
name = topleft;
position = "{245, 1400}";
}
);
layerId = m004;
paths = (
{
closed = 1;
nodes = (
"873 -50 LINE SMOOTH",
"901 -50 OFFCURVE",
"923 -28 OFFCURVE",
"923 0 CURVE SMOOTH",
"923 28 OFFCURVE",
"901 50 OFFCURVE",
"873 50 CURVE SMOOTH",
"763 50 LINE SMOOTH",
"734 50 OFFCURVE",
"724 71 OFFCURVE",
"736 103 CURVE",
"772 205 LINE",
"784 243 OFFCURVE",
"757 270 OFFCURVE",
"725 270 CURVE SMOOTH",
"703 270 OFFCURVE",
"685 256 OFFCURVE",
"678 237 CURVE SMOOTH",
"580 -33 LINE SMOOTH",
"541 -141 OFFCURVE",
"474 -190 OFFCURVE",
"368 -190 CURVE SMOOTH",
"28 -190 LINE SMOOTH",
"-2 -190 OFFCURVE",
"-13 -169 OFFCURVE",
"-1 -137 CURVE SMOOTH",
"166 323 LINE SMOOTH",
"189 385 OFFCURVE",
"223 410 OFFCURVE",
"283 410 CURVE SMOOTH",
"543 410 LINE SMOOTH",
"571 410 OFFCURVE",
"593 432 OFFCURVE",
"593 460 CURVE SMOOTH",
"593 488 OFFCURVE",
"571 510 OFFCURVE",
"543 510 CURVE SMOOTH",
"403 510 LINE SMOOTH",
"373 510 OFFCURVE",
"361 531 OFFCURVE",
"373 563 CURVE SMOOTH",
"628 1263 LINE SMOOTH",
"651 1325 OFFCURVE",
"685 1350 OFFCURVE",
"745 1350 CURVE SMOOTH",
"1035 1350 LINE SMOOTH",
"1067 1350 OFFCURVE",
"1079 1331 OFFCURVE",
"1066 1301 CURVE SMOOTH",
"873 881 LINE SMOOTH",
"859 852 OFFCURVE",
"877 810 OFFCURVE",
"918 810 CURVE SMOOTH",
"938 810 OFFCURVE",
"956 822 OFFCURVE",
"963 839 CURVE SMOOTH",
"1156 1259 LINE SMOOTH",
"1207 1370 OFFCURVE",
"1157 1450 OFFCURVE",
"1035 1450 CURVE SMOOTH",
"745 1450 LINE SMOOTH",
"648 1450 OFFCURVE",
"569 1392 OFFCURVE",
"534 1297 CURVE SMOOTH",
"279 597 LINE SMOOTH",
"267.512 564.597 OFFCURVE",
"264.006 535.057 OFFCURVE",
"267.59 509.505 CURVE",
"177.673 503.688 OFFCURVE",
"105.127 446.917 OFFCURVE",
"72 357 CURVE SMOOTH",
"-95 -103 LINE SMOOTH",
"-136 -214 OFFCURVE",
"-81 -290 OFFCURVE",
"28 -290 CURVE SMOOTH",
"368 -290 LINE SMOOTH",
"512 -290 OFFCURVE",
"623 -208 OFFCURVE",
"674 -67 CURVE SMOOTH",
"686.199 -33.39 LINE",
"707.121 -44.208 OFFCURVE",
"733.065 -50 OFFCURVE",
"763 -50 CURVE SMOOTH"
);
}
);
width = 1128;
},
{
anchors = (
{
name = bottom;
position = "{560, -240}";
},
{
name = ogonek;
position = "{900, -240}";
},
{
name = top;
position = "{634, 1400}";
},
{
name = topleft;
position = "{-10, 1400}";
}
);
layerId = m005;
paths = (
{
closed = 1;
nodes = (
"3128 -50 LINE SMOOTH",
"3156 -50 OFFCURVE",
"3178 -28 OFFCURVE",
"3178 0 CURVE SMOOTH",
"3178 28 OFFCURVE",
"3156 50 OFFCURVE",
"3128 50 CURVE SMOOTH",
"1018 50 LINE SMOOTH",
"963 50 OFFCURVE",
"950 64 OFFCURVE",
"950 120 CURVE SMOOTH",
"950 220 LINE SMOOTH",
"950 248 OFFCURVE",
"928 270 OFFCURVE",
"900 270 CURVE SMOOTH",
"872 270 OFFCURVE",
"850 248 OFFCURVE",
"850 220 CURVE SMOOTH",
"850 -50 LINE SMOOTH",
"850 -151 OFFCURVE",
"811 -190 OFFCURVE",
"710 -190 CURVE SMOOTH",
"370 -190 LINE SMOOTH",
"315 -190 OFFCURVE",
"300 -175 OFFCURVE",
"300 -120 CURVE SMOOTH",
"300 340 LINE SMOOTH",
"300 395 OFFCURVE",
"315 410 OFFCURVE",
"370 410 CURVE SMOOTH",
"630 410 LINE SMOOTH",
"658 410 OFFCURVE",
"680 432 OFFCURVE",
"680 460 CURVE SMOOTH",
"680 488 OFFCURVE",
"658 510 OFFCURVE",
"630 510 CURVE SMOOTH",
"490 510 LINE SMOOTH",
"435 510 OFFCURVE",
"420 525 OFFCURVE",
"420 580 CURVE SMOOTH",
"420 1280 LINE SMOOTH",
"420 1335 OFFCURVE",
"435 1350 OFFCURVE",
"490 1350 CURVE SMOOTH",
"780 1350 LINE SMOOTH",
"844 1350 OFFCURVE",
"855 1338 OFFCURVE",
"850 1285 CURVE SMOOTH",
"810 865 LINE SMOOTH",
"808 836 OFFCURVE",
"830 810 OFFCURVE",
"860 810 CURVE SMOOTH",
"886 810 OFFCURVE",
"907 830 OFFCURVE",
"910 855 CURVE SMOOTH",
"950 1275 LINE SMOOTH",
"959 1380 OFFCURVE",
"896 1450 OFFCURVE",
"780 1450 CURVE SMOOTH",
"490 1450 LINE SMOOTH",
"386 1450 OFFCURVE",
"320 1384 OFFCURVE",
"320 1280 CURVE SMOOTH",
"320 580 LINE SMOOTH",
"320 552.917 OFFCURVE",
"324.476 528.412 OFFCURVE",
"332.933 506.977 CURVE",
"250.571 492.955 OFFCURVE",
"200 431.036 OFFCURVE",
"200 340 CURVE SMOOTH",
"200 -120 LINE SMOOTH",
"200 -224 OFFCURVE",
"266 -290 OFFCURVE",
"370 -290 CURVE SMOOTH",
"710 -290 LINE SMOOTH",
"860 -290 OFFCURVE",
"950 -200 OFFCURVE",
"950 -50 CURVE SMOOTH",
"950 -38.718 LINE",
"970.109 -46.094 OFFCURVE",
"992.889 -50 OFFCURVE",
"1018 -50 CURVE SMOOTH"
);
}
);
width = 3128;
},
{
anchors = (
{
name = bottom;
position = "{560, -240}";
},
{
name = ogonek;
position = "{900, -240}";
},
{
name = top;
position = "{634, 1400}";
},
{
name = topleft;
position = "{-10, 1400}";
}
);
layerId = m006;
paths = (
{
closed = 1;
nodes = (
"1128 -50 LINE SMOOTH",
"1156 -50 OFFCURVE",
"1178 -28 OFFCURVE",
"1178 0 CURVE SMOOTH",
"1178 28 OFFCURVE",
"1156 50 OFFCURVE",
"1128 50 CURVE SMOOTH",
"1018 50 LINE SMOOTH",
"963 50 OFFCURVE",
"950 64 OFFCURVE",
"950 120 CURVE SMOOTH",
"950 220 LINE SMOOTH",
"950 248 OFFCURVE",
"928 270 OFFCURVE",
"900 270 CURVE SMOOTH",
"872 270 OFFCURVE",
"850 248 OFFCURVE",
"850 220 CURVE SMOOTH",
"850 -50 LINE SMOOTH",
"850 -151 OFFCURVE",
"811 -190 OFFCURVE",
"710 -190 CURVE SMOOTH",
"370 -190 LINE SMOOTH",
"315 -190 OFFCURVE",
"300 -175 OFFCURVE",
"300 -120 CURVE SMOOTH",
"300 340 LINE SMOOTH",
"300 395 OFFCURVE",
"315 410 OFFCURVE",
"370 410 CURVE SMOOTH",
"630 410 LINE SMOOTH",
"658 410 OFFCURVE",
"680 432 OFFCURVE",
"680 460 CURVE SMOOTH",
"680 488 OFFCURVE",
"658 510 OFFCURVE",
"630 510 CURVE SMOOTH",
"490 510 LINE SMOOTH",
"435 510 OFFCURVE",
"420 525 OFFCURVE",
"420 580 CURVE SMOOTH",
"420 1280 LINE SMOOTH",
"420 1335 OFFCURVE",
"435 1350 OFFCURVE",
"490 1350 CURVE SMOOTH",
"780 1350 LINE SMOOTH",
"844 1350 OFFCURVE",
"855 1338 OFFCURVE",
"850 1285 CURVE SMOOTH",
"810 865 LINE SMOOTH",
"808 836 OFFCURVE",
"830 810 OFFCURVE",
"860 810 CURVE SMOOTH",
"886 810 OFFCURVE",
"907 830 OFFCURVE",
"910 855 CURVE SMOOTH",
"950 1275 LINE SMOOTH",
"959 1380 OFFCURVE",
"896 1450 OFFCURVE",
"780 1450 CURVE SMOOTH",
"490 1450 LINE SMOOTH",
"386 1450 OFFCURVE",
"320 1384 OFFCURVE",
"320 1280 CURVE SMOOTH",
"320 580 LINE SMOOTH",
"320 552.917 OFFCURVE",
"324.476 528.412 OFFCURVE",
"332.933 506.977 CURVE",
"250.571 492.955 OFFCURVE",
"200 431.036 OFFCURVE",
"200 340 CURVE SMOOTH",
"200 -120 LINE SMOOTH",
"200 -224 OFFCURVE",
"266 -290 OFFCURVE",
"370 -290 CURVE SMOOTH",
"710 -290 LINE SMOOTH",
"860 -290 OFFCURVE",
"950 -200 OFFCURVE",
"950 -50 CURVE SMOOTH",
"950 -38.718 LINE",
"970.109 -46.094 OFFCURVE",
"992.889 -50 OFFCURVE",
"1018 -50 CURVE SMOOTH"
);
}
);
width = 1128;
}
);
leftKerningGroup = E;
rightKerningGroup = E;
unicode = 0045;
},
{
glyphname = F;
lastChange = "2021-04-29 16:02:54 +0000";
layers = (
{
anchors = (
{
name = bottom;
position = "{580, -240}";
},
{
name = top;
position = "{580, 1400}";
}
);
layerId = m003;
paths = (
{
closed = 1;
nodes = (
"650 -340 LINE SMOOTH",
"782 -340 OFFCURVE",
"870 -252 OFFCURVE",
"870 -120 CURVE SMOOTH",
"870 500 LINE",
"1070 500 LINE SMOOTH",
"1126 500 OFFCURVE",
"1170 544 OFFCURVE",
"1170 600 CURVE SMOOTH",
"1170 656 OFFCURVE",
"1126 700 OFFCURVE",
"1070 700 CURVE SMOOTH",
"870 700 LINE",
"870 1280 LINE SMOOTH",
"870 1300 OFFCURVE",
"870 1300 OFFCURVE",
"890 1300 CURVE SMOOTH",
"1070 1300 LINE SMOOTH",
"1126 1300 OFFCURVE",
"1170 1344 OFFCURVE",
"1170 1400 CURVE SMOOTH",
"1170 1456 OFFCURVE",
"1126 1500 OFFCURVE",
"1070 1500 CURVE SMOOTH",
"270 1500 LINE SMOOTH",
"130 1500 OFFCURVE",
"41 1407 OFFCURVE",
"50 1273 CURVE SMOOTH",
"70 973 LINE SMOOTH",
"74 921 OFFCURVE",
"118 880 OFFCURVE",
"170 880 CURVE SMOOTH",
"229 880 OFFCURVE",
"274 931 OFFCURVE",
"270 987 CURVE SMOOTH",
"250 1288 LINE SMOOTH",
"249 1300 OFFCURVE",
"249 1300 OFFCURVE",
"270 1300 CURVE SMOOTH",
"671 1300 LINE",
"670 1293 OFFCURVE",
"670 1287 OFFCURVE",
"670 1280 CURVE SMOOTH",
"670 700 LINE",
"350 700 LINE SMOOTH",
"294 700 OFFCURVE",
"250 656 OFFCURVE",
"250 600 CURVE SMOOTH",
"250 544 OFFCURVE",
"294 500 OFFCURVE",
"350 500 CURVE SMOOTH",
"670 500 LINE",
"670 -120 LINE SMOOTH",
"670 -140 OFFCURVE",
"670 -140 OFFCURVE",
"650 -140 CURVE SMOOTH",
"410 -140 LINE SMOOTH",
"354 -140 OFFCURVE",
"310 -184 OFFCURVE",
"310 -240 CURVE SMOOTH",
"310 -296 OFFCURVE",
"354 -340 OFFCURVE",
"410 -340 CURVE SMOOTH"
);
},
{
closed = 1;
nodes = (
"1022 100 LINE SMOOTH",
"966 100 OFFCURVE",
"922 56 OFFCURVE",
"922 0 CURVE SMOOTH",
"922 -56 OFFCURVE",
"966 -100 OFFCURVE",
"1022 -100 CURVE SMOOTH",
"1210 -100 LINE SMOOTH",
"1266 -100 OFFCURVE",
"1310 -56 OFFCURVE",
"1310 0 CURVE SMOOTH",
"1310 56 OFFCURVE",
"1266 100 OFFCURVE",
"1210 100 CURVE SMOOTH"
);
}
);
width = 1210;
},
{
anchors = (
{
name = bottom;
position = "{922, -240}";
},
{
name = top;
position = "{325, 1400}";
}
);
layerId = m002;
paths = (
{
closed = 1;
nodes = (
"992 -290 LINE SMOOTH",
"1101 -290 OFFCURVE",
"1155 -214 OFFCURVE",
"1115 -103 CURVE SMOOTH",
"877.588 550 LINE",
"1106 550 LINE SMOOTH",
"1134 550 OFFCURVE",
"1156 572 OFFCURVE",
"1156 600 CURVE SMOOTH",
"1156 628 OFFCURVE",
"1134 650 OFFCURVE",
"1106 650 CURVE SMOOTH",
"841.231 650 LINE",
"606 1297 LINE SMOOTH",
"587 1350 OFFCURVE",
"586 1350 OFFCURVE",
"635 1350 CURVE SMOOTH",
"815 1350 LINE SMOOTH",
"843 1350 OFFCURVE",
"865 1372 OFFCURVE",
"865 1400 CURVE SMOOTH",
"865 1428 OFFCURVE",
"843 1450 OFFCURVE",
"815 1450 CURVE SMOOTH",
"15 1450 LINE SMOOTH",
"-104 1450 OFFCURVE",
"-154 1369 OFFCURVE",
"-107 1260 CURVE SMOOTH",
"22 960 LINE SMOOTH",
"30 942 OFFCURVE",
"47 930 OFFCURVE",
"68 930 CURVE SMOOTH",
"111 930 OFFCURVE",
"125 975 OFFCURVE",
"114 1000 CURVE SMOOTH",
"-15 1300 LINE SMOOTH",
"-28 1330 OFFCURVE",
"-17 1350 OFFCURVE",
"15 1350 CURVE SMOOTH",
"499.56 1350 LINE",
"496.267 1324.637 OFFCURVE",
"500 1295 OFFCURVE",
"512 1263 CURVE SMOOTH",
"734.869 650 LINE",
"386 650 LINE SMOOTH",
"358 650 OFFCURVE",
"336 628 OFFCURVE",
"336 600 CURVE SMOOTH",
"336 572 OFFCURVE",
"358 550 OFFCURVE",
"386 550 CURVE SMOOTH",
"771.226 550 LINE",
"1021 -137 LINE SMOOTH",
"1033 -169 OFFCURVE",
"1022 -190 OFFCURVE",
"992 -190 CURVE SMOOTH",
"752 -190 LINE SMOOTH",
"724 -190 OFFCURVE",
"702 -212 OFFCURVE",
"702 -240 CURVE SMOOTH",
"702 -268 OFFCURVE",
"724 -290 OFFCURVE",
"752 -290 CURVE SMOOTH"
);
},
{
closed = 1;
nodes = (
"1277 50 LINE SMOOTH",
"1249 50 OFFCURVE",
"1227 28 OFFCURVE",
"1227 0 CURVE SMOOTH",
"1227 -28 OFFCURVE",
"1249 -50 OFFCURVE",
"1277 -50 CURVE SMOOTH",
"1465 -50 LINE SMOOTH",
"1493 -50 OFFCURVE",
"1515 -28 OFFCURVE",
"1515 0 CURVE SMOOTH",
"1515 28 OFFCURVE",
"1493 50 OFFCURVE",
"1465 50 CURVE SMOOTH"
);
}
);
width = 1210;
},
{
anchors = (
{
name = bottom;
position = "{238, -240}";
},
{
name = top;
position = "{835, 1400}";
}
);
layerId = m004;
paths = (
{
closed = 1;
nodes = (
"308 -290 LINE SMOOTH",
"405 -290 OFFCURVE",
"484 -232 OFFCURVE",
"519 -137 CURVE SMOOTH",
"768.774 550 LINE",
"1034 550 LINE SMOOTH",
"1062 550 OFFCURVE",
"1084 572 OFFCURVE",
"1084 600 CURVE SMOOTH",
"1084 628 OFFCURVE",
"1062 650 OFFCURVE",
"1034 650 CURVE SMOOTH",
"805.131 650 LINE",
"1028 1263 LINE SMOOTH",
"1051 1325 OFFCURVE",
"1085 1350 OFFCURVE",
"1145 1350 CURVE SMOOTH",
"1325 1350 LINE SMOOTH",
"1353 1350 OFFCURVE",
"1375 1372 OFFCURVE",
"1375 1400 CURVE SMOOTH",
"1375 1428 OFFCURVE",
"1353 1450 OFFCURVE",
"1325 1450 CURVE SMOOTH",
"525 1450 LINE SMOOTH",
"421 1450 OFFCURVE",
"342 1391 OFFCURVE",
"313 1294 CURVE SMOOTH",
"224 994 LINE SMOOTH",
"215 965 OFFCURVE",
"234 930 OFFCURVE",
"272 930 CURVE SMOOTH",
"295 930 OFFCURVE",
"314 945 OFFCURVE",
"320 966 CURVE SMOOTH",
"409 1266 LINE SMOOTH",
"427 1326 OFFCURVE",
"459 1350 OFFCURVE",
"525 1350 CURVE SMOOTH",
"960.468 1350 LINE",
"949.984 1333.968 OFFCURVE",
"941 1316 OFFCURVE",
"934 1297 CURVE SMOOTH",
"698.769 650 LINE",
"314 650 LINE SMOOTH",
"286 650 OFFCURVE",
"264 628 OFFCURVE",
"264 600 CURVE SMOOTH",
"264 572 OFFCURVE",
"286 550 OFFCURVE",
"314 550 CURVE SMOOTH",
"662.412 550 LINE",
"425 -103 LINE SMOOTH",
"402 -165 OFFCURVE",
"368 -190 OFFCURVE",
"308 -190 CURVE SMOOTH",
"68 -190 LINE SMOOTH",
"40 -190 OFFCURVE",
"18 -212 OFFCURVE",
"18 -240 CURVE SMOOTH",
"18 -268 OFFCURVE",
"40 -290 OFFCURVE",
"68 -290 CURVE SMOOTH"
);
},
{
closed = 1;
nodes = (
"767 50 LINE SMOOTH",
"739 50 OFFCURVE",
"717 28 OFFCURVE",
"717 0 CURVE SMOOTH",
"717 -28 OFFCURVE",
"739 -50 OFFCURVE",
"767 -50 CURVE SMOOTH",
"955 -50 LINE SMOOTH",
"983 -50 OFFCURVE",
"1005 -28 OFFCURVE",
"1005 0 CURVE SMOOTH",
"1005 28 OFFCURVE",
"983 50 OFFCURVE",
"955 50 CURVE SMOOTH"
);
}
);
width = 1210;
},
{
anchors = (
{
name = bottom;
position = "{580, -240}";
},
{
name = top;
position = "{580, 1400}";
}
);
layerId = m005;
paths = (
{
closed = 1;
nodes = (
"650 -290 LINE SMOOTH",
"754 -290 OFFCURVE",
"820 -224 OFFCURVE",
"820 -120 CURVE SMOOTH",
"820 550 LINE",
"1070 550 LINE SMOOTH",
"1098 550 OFFCURVE",
"1120 572 OFFCURVE",
"1120 600 CURVE SMOOTH",
"1120 628 OFFCURVE",
"1098 650 OFFCURVE",
"1070 650 CURVE SMOOTH",
"820 650 LINE",
"820 1280 LINE SMOOTH",
"820 1335 OFFCURVE",
"835 1350 OFFCURVE",
"890 1350 CURVE SMOOTH",
"1070 1350 LINE SMOOTH",
"1098 1350 OFFCURVE",
"1120 1372 OFFCURVE",
"1120 1400 CURVE SMOOTH",
"1120 1428 OFFCURVE",
"1098 1450 OFFCURVE",
"1070 1450 CURVE SMOOTH",
"270 1450 LINE SMOOTH",
"159 1450 OFFCURVE",
"93 1381 OFFCURVE",
"100 1276 CURVE SMOOTH",
"120 977 LINE SMOOTH",
"122 951 OFFCURVE",
"144 930 OFFCURVE",
"170 930 CURVE SMOOTH",
"200 930 OFFCURVE",
"222 956 OFFCURVE",
"220 983 CURVE SMOOTH",
"200 1284 LINE SMOOTH",
"196 1337 OFFCURVE",
"209 1350 OFFCURVE",
"270 1350 CURVE SMOOTH",
"731.774 1350 LINE",
"724.067 1329.294 OFFCURVE",
"720 1305.818 OFFCURVE",
"720 1280 CURVE SMOOTH",
"720 650 LINE",
"350 650 LINE SMOOTH",
"322 650 OFFCURVE",
"300 628 OFFCURVE",
"300 600 CURVE SMOOTH",
"300 572 OFFCURVE",
"322 550 OFFCURVE",
"350 550 CURVE SMOOTH",
"720 550 LINE",
"720 -120 LINE SMOOTH",
"720 -175 OFFCURVE",
"705 -190 OFFCURVE",
"650 -190 CURVE SMOOTH",
"410 -190 LINE SMOOTH",
"382 -190 OFFCURVE",
"360 -212 OFFCURVE",
"360 -240 CURVE SMOOTH",
"360 -268 OFFCURVE",
"382 -290 OFFCURVE",
"410 -290 CURVE SMOOTH"
);
},
{
closed = 1;
nodes = (
"1022 50 LINE SMOOTH",
"994 50 OFFCURVE",
"972 28 OFFCURVE",
"972 0 CURVE SMOOTH",
"972 -28 OFFCURVE",
"994 -50 OFFCURVE",
"1022 -50 CURVE SMOOTH",
"3210 -50 LINE SMOOTH",
"3238 -50 OFFCURVE",
"3260 -28 OFFCURVE",
"3260 0 CURVE SMOOTH",
"3260 28 OFFCURVE",
"3238 50 OFFCURVE",
"3210 50 CURVE SMOOTH"
);
}
);
width = 3210;
},
{
anchors = (
{
name = bottom;
position = "{580, -240}";
},
{
name = top;
position = "{580, 1400}";
}
);
layerId = m006;
paths = (
{
closed = 1;
nodes = (
"650 -290 LINE SMOOTH",
"754 -290 OFFCURVE",
"820 -224 OFFCURVE",
"820 -120 CURVE SMOOTH",
"820 550 LINE",
"1070 550 LINE SMOOTH",
"1098 550 OFFCURVE",
"1120 572 OFFCURVE",
"1120 600 CURVE SMOOTH",
"1120 628 OFFCURVE",
"1098 650 OFFCURVE",
"1070 650 CURVE SMOOTH",
"820 650 LINE",
"820 1280 LINE SMOOTH",
"820 1335 OFFCURVE",
"835 1350 OFFCURVE",
"890 1350 CURVE SMOOTH",
"1070 1350 LINE SMOOTH",
"1098 1350 OFFCURVE",
"1120 1372 OFFCURVE",
"1120 1400 CURVE SMOOTH",
"1120 1428 OFFCURVE",
"1098 1450 OFFCURVE",
"1070 1450 CURVE SMOOTH",
"270 1450 LINE SMOOTH",
"159 1450 OFFCURVE",
"93 1381 OFFCURVE",
"100 1276 CURVE SMOOTH",
"120 977 LINE SMOOTH",
"122 951 OFFCURVE",
"144 930 OFFCURVE",
"170 930 CURVE SMOOTH",
"200 930 OFFCURVE",
"222 956 OFFCURVE",
"220 983 CURVE SMOOTH",
"200 1284 LINE SMOOTH",
"196 1337 OFFCURVE",
"209 1350 OFFCURVE",
"270 1350 CURVE SMOOTH",
"731.774 1350 LINE",
"724.067 1329.294 OFFCURVE",
"720 1305.818 OFFCURVE",
"720 1280 CURVE SMOOTH",
"720 650 LINE",
"350 650 LINE SMOOTH",
"322 650 OFFCURVE",
"300 628 OFFCURVE",
"300 600 CURVE SMOOTH",
"300 572 OFFCURVE",
"322 550 OFFCURVE",
"350 550 CURVE SMOOTH",
"720 550 LINE",
"720 -120 LINE SMOOTH",
"720 -175 OFFCURVE",
"705 -190 OFFCURVE",
"650 -190 CURVE SMOOTH",
"410 -190 LINE SMOOTH",
"382 -190 OFFCURVE",
"360 -212 OFFCURVE",
"360 -240 CURVE SMOOTH",
"360 -268 OFFCURVE",
"382 -290 OFFCURVE",
"410 -290 CURVE SMOOTH"
);
},
{
closed = 1;
nodes = (
"1022 50 LINE SMOOTH",
"994 50 OFFCURVE",
"972 28 OFFCURVE",
"972 0 CURVE SMOOTH",
"972 -28 OFFCURVE",
"994 -50 OFFCURVE",
"1022 -50 CURVE SMOOTH",
"1210 -50 LINE SMOOTH",
"1238 -50 OFFCURVE",
"1260 -28 OFFCURVE",
"1260 0 CURVE SMOOTH",
"1260 28 OFFCURVE",
"1238 50 OFFCURVE",
"1210 50 CURVE SMOOTH"
);
}
);
width = 1210;
}
);
leftKerningGroup = T;
rightKerningGroup = F;
unicode = 0046;
},
{
glyphname = G;
lastChange = "2021-04-29 15:54:39 +0000";
layers = (
{
anchors = (
{
name = bottom;
position = "{514, -240}";
},
{
name = top;
position = "{534, 1400}";
}
);
layerId = m003;
paths = (
{
closed = 1;
nodes = (
"730 -340 LINE SMOOTH",
"862 -340 OFFCURVE",
"950 -252 OFFCURVE",
"950 -120 CURVE SMOOTH",
"950 -99 LINE",
"956 -100 OFFCURVE",
"962 -100 OFFCURVE",
"968 -100 CURVE SMOOTH",
"1078 -100 LINE SMOOTH",
"1134 -100 OFFCURVE",
"1178 -56 OFFCURVE",
"1178 0 CURVE SMOOTH",
"1178 56 OFFCURVE",
"1134 100 OFFCURVE",
"1078 100 CURVE SMOOTH",
"968 100 LINE SMOOTH",
"950 100 OFFCURVE",
"950 100 OFFCURVE",
"950 120 CURVE SMOOTH",
"950 440 LINE SMOOTH",
"950 496 OFFCURVE",
"906 540 OFFCURVE",
"850 540 CURVE SMOOTH",
"794 540 OFFCURVE",
"750 496 OFFCURVE",
"750 440 CURVE SMOOTH",
"750 340 LINE SMOOTH",
"750 320 OFFCURVE",
"750 320 OFFCURVE",
"730 320 CURVE SMOOTH",
"370 320 LINE SMOOTH",
"350 320 OFFCURVE",
"350 320 OFFCURVE",
"350 340 CURVE SMOOTH",
"350 1280 LINE SMOOTH",
"350 1300 OFFCURVE",
"350 1300 OFFCURVE",
"370 1300 CURVE SMOOTH",
"690 1300 LINE SMOOTH",
"711 1300 OFFCURVE",
"711 1300 OFFCURVE",
"710 1286 CURVE SMOOTH",
"678 800 LINE SMOOTH",
"674 745 OFFCURVE",
"719 694 OFFCURVE",
"778 694 CURVE SMOOTH",
"831 694 OFFCURVE",
"874 735 OFFCURVE",
"878 787 CURVE SMOOTH",
"910 1274 LINE SMOOTH",
"920 1416 OFFCURVE",
"824 1500 OFFCURVE",
"690 1500 CURVE SMOOTH",
"370 1500 LINE SMOOTH",
"234 1500 OFFCURVE",
"150 1416 OFFCURVE",
"150 1280 CURVE SMOOTH",
"150 340 LINE SMOOTH",
"150 208 OFFCURVE",
"238 120 OFFCURVE",
"370 120 CURVE SMOOTH",
"730 120 LINE SMOOTH",
"737 120 OFFCURVE",
"743 120 OFFCURVE",
"750 121 CURVE",
"750 -120 LINE SMOOTH",
"750 -140 OFFCURVE",
"750 -140 OFFCURVE",
"730 -140 CURVE SMOOTH",
"470 -140 LINE SMOOTH",
"414 -140 OFFCURVE",
"370 -184 OFFCURVE",
"370 -240 CURVE SMOOTH",
"370 -296 OFFCURVE",
"414 -340 OFFCURVE",
"470 -340 CURVE SMOOTH"
);
}
);
width = 1078;
},
{
anchors = (
{
name = bottom;
position = "{856, -240}";
},
{
name = top;
position = "{279, 1400}";
}
);
layerId = m002;
paths = (
{
closed = 1;
nodes = (
"1072 -290 LINE SMOOTH",
"1181 -290 OFFCURVE",
"1236 -214 OFFCURVE",
"1195 -103 CURVE SMOOTH",
"1173.287 -43.102 LINE",
"1189.684 -47.596 OFFCURVE",
"1206.397 -50 OFFCURVE",
"1223 -50 CURVE SMOOTH",
"1333 -50 LINE SMOOTH",
"1361 -50 OFFCURVE",
"1383 -28 OFFCURVE",
"1383 0 CURVE SMOOTH",
"1383 28 OFFCURVE",
"1361 50 OFFCURVE",
"1333 50 CURVE SMOOTH",
"1223 50 LINE SMOOTH",
"1173 50 OFFCURVE",
"1128 83 OFFCURVE",
"1108 137 CURVE SMOOTH",
"992 457 LINE SMOOTH",
"985 476 OFFCURVE",
"967 490 OFFCURVE",
"945 490 CURVE SMOOTH",
"905 490 OFFCURVE",
"887 449 OFFCURVE",
"898 423 CURVE SMOOTH",
"934 323 LINE SMOOTH",
"946 291 OFFCURVE",
"935 270 OFFCURVE",
"905 270 CURVE SMOOTH",
"545 270 LINE SMOOTH",
"485 270 OFFCURVE",
"451 295 OFFCURVE",
"428 357 CURVE SMOOTH",
"86 1297 LINE SMOOTH",
"74 1329 OFFCURVE",
"86 1350 OFFCURVE",
"115 1350 CURVE SMOOTH",
"435 1350 LINE SMOOTH",
"500 1350 OFFCURVE",
"532 1330 OFFCURVE",
"551 1266 CURVE SMOOTH",
"696 780 LINE SMOOTH",
"702 759 OFFCURVE",
"721 744 OFFCURVE",
"744 744 CURVE SMOOTH",
"782 744 OFFCURVE",
"799 779 OFFCURVE",
"792 808 CURVE SMOOTH",
"647 1294 LINE SMOOTH",
"616 1399 OFFCURVE",
"535 1450 OFFCURVE",
"435 1450 CURVE SMOOTH",
"115 1450 LINE SMOOTH",
"3 1450 OFFCURVE",
"-50 1379 OFFCURVE",
"-8 1263 CURVE SMOOTH",
"334 323 LINE SMOOTH",
"369 228 OFFCURVE",
"448 170 OFFCURVE",
"545 170 CURVE SMOOTH",
"905 170 LINE SMOOTH",
"935.772 170 OFFCURVE",
"962.24 176.057 OFFCURVE",
"983.46 187.249 CURVE",
"1101 -137 LINE SMOOTH",
"1121 -190 OFFCURVE",
"1121 -190 OFFCURVE",
"1072 -190 CURVE SMOOTH",
"812 -190 LINE SMOOTH",
"784 -190 OFFCURVE",
"762 -212 OFFCURVE",
"762 -240 CURVE SMOOTH",
"762 -268 OFFCURVE",
"784 -290 OFFCURVE",
"812 -290 CURVE SMOOTH"
);
}
);
width = 1078;
},
{
anchors = (
{
name = bottom;
position = "{172, -240}";
},
{
name = top;
position = "{789, 1400}";
}
);
layerId = m004;
paths = (
{
closed = 1;
nodes = (
"388 -290 LINE SMOOTH",
"485 -290 OFFCURVE",
"564 -232 OFFCURVE",
"599 -137 CURVE SMOOTH",
"637.842 -29.849 LINE",
"658.719 -42.749 OFFCURVE",
"684.331 -50 OFFCURVE",
"713 -50 CURVE SMOOTH",
"823 -50 LINE SMOOTH",
"851 -50 OFFCURVE",
"873 -28 OFFCURVE",
"873 0 CURVE SMOOTH",
"873 28 OFFCURVE",
"851 50 OFFCURVE",
"823 50 CURVE SMOOTH",
"713 50 LINE SMOOTH",
"685 50 OFFCURVE",
"673 67 OFFCURVE",
"682.546 93.472 CURVE",
"802 423 LINE",
"813 449 OFFCURVE",
"795 490 OFFCURVE",
"755 490 CURVE SMOOTH",
"733 490 OFFCURVE",
"715 476 OFFCURVE",
"708 457 CURVE SMOOTH",
"668.573 348.236 LINE SMOOTH",
"645.64 292.633 OFFCURVE",
"612.089 270 OFFCURVE",
"555 270 CURVE SMOOTH",
"195 270 LINE SMOOTH",
"165 270 OFFCURVE",
"154 291 OFFCURVE",
"166 323 CURVE SMOOTH",
"508 1263 LINE SMOOTH",
"532 1329 OFFCURVE",
"561 1350 OFFCURVE",
"625 1350 CURVE SMOOTH",
"945 1350 LINE SMOOTH",
"977 1350 OFFCURVE",
"988 1330 OFFCURVE",
"975 1300 CURVE SMOOTH",
"766 814 LINE SMOOTH",
"754 790 OFFCURVE",
"769 744 OFFCURVE",
"812 744 CURVE SMOOTH",
"833 744 OFFCURVE",
"850 756 OFFCURVE",
"858 774 CURVE SMOOTH",
"1067 1260 LINE SMOOTH",
"1118 1376 OFFCURVE",
"1061 1450 OFFCURVE",
"945 1450 CURVE SMOOTH",
"625 1450 LINE SMOOTH",
"524 1450 OFFCURVE",
"450 1396 OFFCURVE",
"414 1297 CURVE SMOOTH",
"72 357 LINE SMOOTH",
"31 246 OFFCURVE",
"86 170 OFFCURVE",
"195 170 CURVE SMOOTH",
"555 170 LINE SMOOTH",
"572.65 170 OFFCURVE",
"589.704 171.92 OFFCURVE",
"606.005 175.634 CURVE",
"505 -103 LINE SMOOTH",
"482 -165 OFFCURVE",
"448 -190 OFFCURVE",
"388 -190 CURVE SMOOTH",
"128 -190 LINE SMOOTH",
"100 -190 OFFCURVE",
"78 -212 OFFCURVE",
"78 -240 CURVE SMOOTH",
"78 -268 OFFCURVE",
"100 -290 OFFCURVE",
"128 -290 CURVE SMOOTH"
);
}
);
width = 1078;
},
{
anchors = (
{
name = bottom;
position = "{514, -240}";
},
{
name = top;
position = "{534, 1400}";
}
);
layerId = m005;
paths = (
{
closed = 1;
nodes = (
"730 -290 LINE SMOOTH",
"834 -290 OFFCURVE",
"900 -224 OFFCURVE",
"900 -120 CURVE SMOOTH",
"900 -36.044 LINE",
"920.705 -45.048 OFFCURVE",
"943.683 -50 OFFCURVE",
"968 -50 CURVE SMOOTH",
"3078 -50 LINE SMOOTH",
"3106 -50 OFFCURVE",
"3128 -28 OFFCURVE",
"3128 0 CURVE SMOOTH",
"3128 28 OFFCURVE",
"3106 50 OFFCURVE",
"3078 50 CURVE SMOOTH",
"968 50 LINE SMOOTH",
"923 50 OFFCURVE",
"900 73 OFFCURVE",
"900 120 CURVE SMOOTH",
"900 440 LINE SMOOTH",
"900 468 OFFCURVE",
"878 490 OFFCURVE",
"850 490 CURVE SMOOTH",
"822 490 OFFCURVE",
"800 468 OFFCURVE",
"800 440 CURVE SMOOTH",
"800 340 LINE SMOOTH",
"800 285 OFFCURVE",
"785 270 OFFCURVE",
"730 270 CURVE SMOOTH",
"370 270 LINE SMOOTH",
"315 270 OFFCURVE",
"300 285 OFFCURVE",
"300 340 CURVE SMOOTH",
"300 1280 LINE SMOOTH",
"300 1339 OFFCURVE",
"311 1350 OFFCURVE",
"370 1350 CURVE SMOOTH",
"690 1350 LINE SMOOTH",
"752 1350 OFFCURVE",
"764 1340 OFFCURVE",
"760 1283 CURVE SMOOTH",
"728 797 LINE SMOOTH",
"726 770 OFFCURVE",
"748 744 OFFCURVE",
"778 744 CURVE SMOOTH",
"805 744 OFFCURVE",
"826 765 OFFCURVE",
"828 791 CURVE SMOOTH",
"860 1277 LINE SMOOTH",
"868 1389 OFFCURVE",
"797 1450 OFFCURVE",
"690 1450 CURVE SMOOTH",
"370 1450 LINE SMOOTH",
"262 1450 OFFCURVE",
"200 1388 OFFCURVE",
"200 1280 CURVE SMOOTH",
"200 340 LINE SMOOTH",
"200 236 OFFCURVE",
"266 170 OFFCURVE",
"370 170 CURVE SMOOTH",
"730 170 LINE SMOOTH",
"755.818 170 OFFCURVE",
"779.294 174.067 OFFCURVE",
"800 181.774 CURVE",
"800 -120 LINE SMOOTH",
"800 -175 OFFCURVE",
"785 -190 OFFCURVE",
"730 -190 CURVE SMOOTH",
"470 -190 LINE SMOOTH",
"442 -190 OFFCURVE",
"420 -212 OFFCURVE",
"420 -240 CURVE SMOOTH",
"420 -268 OFFCURVE",
"442 -290 OFFCURVE",
"470 -290 CURVE SMOOTH"
);
}
);
width = 3078;
},
{
anchors = (
{
name = bottom;
position = "{514, -240}";
},
{
name = top;
position = "{534, 1400}";
}
);
layerId = m006;
paths = (
{
closed = 1;
nodes = (
"730 -290 LINE SMOOTH",
"834 -290 OFFCURVE",
"900 -224 OFFCURVE",
"900 -120 CURVE SMOOTH",
"900 -36.044 LINE",
"920.705 -45.048 OFFCURVE",
"943.683 -50 OFFCURVE",
"968 -50 CURVE SMOOTH",
"1078 -50 LINE SMOOTH",
"1106 -50 OFFCURVE",
"1128 -28 OFFCURVE",
"1128 0 CURVE SMOOTH",
"1128 28 OFFCURVE",
"1106 50 OFFCURVE",
"1078 50 CURVE SMOOTH",
"968 50 LINE SMOOTH",
"923 50 OFFCURVE",
"900 73 OFFCURVE",
"900 120 CURVE SMOOTH",
"900 440 LINE SMOOTH",
"900 468 OFFCURVE",
"878 490 OFFCURVE",
"850 490 CURVE SMOOTH",
"822 490 OFFCURVE",
"800 468 OFFCURVE",
"800 440 CURVE SMOOTH",
"800 340 LINE SMOOTH",
"800 285 OFFCURVE",
"785 270 OFFCURVE",
"730 270 CURVE SMOOTH",
"370 270 LINE SMOOTH",
"315 270 OFFCURVE",
"300 285 OFFCURVE",
"300 340 CURVE SMOOTH",
"300 1280 LINE SMOOTH",
"300 1339 OFFCURVE",
"311 1350 OFFCURVE",
"370 1350 CURVE SMOOTH",
"690 1350 LINE SMOOTH",
"752 1350 OFFCURVE",
"764 1340 OFFCURVE",
"760 1283 CURVE SMOOTH",
"728 797 LINE SMOOTH",
"726 770 OFFCURVE",
"748 744 OFFCURVE",
"778 744 CURVE SMOOTH",
"805 744 OFFCURVE",
"826 765 OFFCURVE",
"828 791 CURVE SMOOTH",
"860 1277 LINE SMOOTH",
"868 1389 OFFCURVE",
"797 1450 OFFCURVE",
"690 1450 CURVE SMOOTH",
"370 1450 LINE SMOOTH",
"262 1450 OFFCURVE",
"200 1388 OFFCURVE",
"200 1280 CURVE SMOOTH",
"200 340 LINE SMOOTH",
"200 236 OFFCURVE",
"266 170 OFFCURVE",
"370 170 CURVE SMOOTH",
"730 170 LINE SMOOTH",
"755.818 170 OFFCURVE",
"779.294 174.067 OFFCURVE",
"800 181.774 CURVE",
"800 -120 LINE SMOOTH",
"800 -175 OFFCURVE",
"785 -190 OFFCURVE",
"730 -190 CURVE SMOOTH",
"470 -190 LINE SMOOTH",
"442 -190 OFFCURVE",
"420 -212 OFFCURVE",
"420 -240 CURVE SMOOTH",
"420 -268 OFFCURVE",
"442 -290 OFFCURVE",
"470 -290 CURVE SMOOTH"
);
}
);
width = 1078;
}
);
leftKerningGroup = G;
rightKerningGroup = G;
unicode = 0047;
},
{
glyphname = H;
lastChange = "2021-04-29 15:54:39 +0000";
layers = (
{
anchors = (
{
name = bottom;
position = "{782, 0}";
},
{
name = center;
position = "{622, 700}";
},
{
name = top;
position = "{722, 1400}";
},
{
name = topleft;
position = "{8, 1400}";
}
);
layerId = m003;
paths = (
{
closed = 1;
nodes = (
"524 -340 OFFCURVE",
"568 -296 OFFCURVE",
"568 -240 CURVE SMOOTH",
"568 378 LINE",
"928 378 LINE",
"928 120 LINE SMOOTH",
"928 -4 OFFCURVE",
"1024 -100 OFFCURVE",
"1146 -100 CURVE SMOOTH",
"1276 -100 LINE SMOOTH",
"1332 -100 OFFCURVE",
"1376 -56 OFFCURVE",
"1376 0 CURVE SMOOTH",
"1376 56 OFFCURVE",
"1332 100 OFFCURVE",
"1276 100 CURVE SMOOTH",
"1146 100 LINE SMOOTH",
"1128 100 OFFCURVE",
"1128 100 OFFCURVE",
"1128 120 CURVE SMOOTH",
"1128 1400 LINE SMOOTH",
"1128 1456 OFFCURVE",
"1084 1500 OFFCURVE",
"1028 1500 CURVE SMOOTH",
"972 1500 OFFCURVE",
"928 1456 OFFCURVE",
"928 1400 CURVE SMOOTH",
"928 578 LINE",
"568 578 LINE",
"568 1280 LINE SMOOTH",
"568 1405 OFFCURVE",
"487 1492 OFFCURVE",
"365 1500 CURVE",
"68 1500 LINE SMOOTH",
"12 1500 OFFCURVE",
"-32 1456 OFFCURVE",
"-32 1400 CURVE SMOOTH",
"-32 1344 OFFCURVE",
"12 1300 OFFCURVE",
"68 1300 CURVE SMOOTH",
"348 1300 LINE SMOOTH",
"368 1300 OFFCURVE",
"368 1300 OFFCURVE",
"368 1280 CURVE SMOOTH",
"368 578 LINE",
"70 578 LINE SMOOTH",
"14 578 OFFCURVE",
"-30 534 OFFCURVE",
"-30 478 CURVE SMOOTH",
"-30 422 OFFCURVE",
"14 378 OFFCURVE",
"70 378 CURVE SMOOTH",
"368 378 LINE",
"368 -240 LINE SMOOTH",
"368 -296 OFFCURVE",
"412 -340 OFFCURVE",
"468 -340 CURVE SMOOTH"
);
}
);
width = 1276;
},
{
anchors = (
{
name = bottom;
position = "{1037, 0}";
},
{
name = center;
position = "{622, 700}";
},
{
name = top;
position = "{467, 1400}";
},
{
name = topleft;
position = "{-247, 1400}";
}
);
layerId = m002;
paths = (
{
closed = 1;
nodes = (
"850 -290 OFFCURVE",
"868 -249 OFFCURVE",
"857 -223 CURVE SMOOTH",
"620.156 428 LINE",
"1073.68 428 LINE",
"1192 103 LINE SMOOTH",
"1224 16 OFFCURVE",
"1314 -50 OFFCURVE",
"1401 -50 CURVE SMOOTH",
"1531 -50 LINE SMOOTH",
"1559 -50 OFFCURVE",
"1581 -28 OFFCURVE",
"1581 0 CURVE SMOOTH",
"1581 28 OFFCURVE",
"1559 50 OFFCURVE",
"1531 50 CURVE SMOOTH",
"1401 50 LINE SMOOTH",
"1351 50 OFFCURVE",
"1306 83 OFFCURVE",
"1286 137 CURVE",
"820 1417 LINE",
"813 1436 OFFCURVE",
"795 1450 OFFCURVE",
"773 1450 CURVE SMOOTH",
"733 1450 OFFCURVE",
"715 1409 OFFCURVE",
"726 1383 CURVE SMOOTH",
"1037.273 528 LINE",
"583.774 528 LINE",
"304 1297 LINE SMOOTH",
"270.825 1387.046 OFFCURVE",
"198.119 1443.851 OFFCURVE",
"108.023 1449.53 CURVE SMOOTH",
"-187 1450 LINE SMOOTH",
"-215 1450 OFFCURVE",
"-237 1428 OFFCURVE",
"-237 1400 CURVE SMOOTH",
"-237 1372 OFFCURVE",
"-215 1350 OFFCURVE",
"-187 1350 CURVE SMOOTH",
"93 1350 LINE SMOOTH",
"153 1350 OFFCURVE",
"187 1325 OFFCURVE",
"210 1263 CURVE SMOOTH",
"477.405 528 LINE",
"151 528 LINE SMOOTH",
"123 528 OFFCURVE",
"101 506 OFFCURVE",
"101 478 CURVE SMOOTH",
"101 450 OFFCURVE",
"123 428 OFFCURVE",
"151 428 CURVE SMOOTH",
"513.786 428 LINE",
"763 -257 LINE SMOOTH",
"770 -276 OFFCURVE",
"788 -290 OFFCURVE",
"810 -290 CURVE SMOOTH"
);
}
);
width = 1276;
},
{
anchors = (
{
name = bottom;
position = "{527, 0}";
},
{
name = center;
position = "{622, 700}";
},
{
name = top;
position = "{977, 1400}";
},
{
name = topleft;
position = "{263, 1400}";
}
);
layerId = m004;
paths = (
{
closed = 1;
nodes = (
"148 -290 OFFCURVE",
"166 -276 OFFCURVE",
"173 -257 CURVE SMOOTH",
"422.214 428 LINE",
"875.942 428 LINE",
"770 137 LINE SMOOTH",
"732 33 OFFCURVE",
"794 -50 OFFCURVE",
"891 -50 CURVE SMOOTH",
"1021 -50 LINE SMOOTH",
"1049 -50 OFFCURVE",
"1071 -28 OFFCURVE",
"1071 0 CURVE SMOOTH",
"1071 28 OFFCURVE",
"1049 50 OFFCURVE",
"1021 50 CURVE SMOOTH",
"891 50 LINE SMOOTH",
"862 50 OFFCURVE",
"852 71 OFFCURVE",
"864 103 CURVE SMOOTH",
"1330 1383 LINE SMOOTH",
"1341 1409 OFFCURVE",
"1323 1450 OFFCURVE",
"1283 1450 CURVE SMOOTH",
"1261 1450 OFFCURVE",
"1243 1436 OFFCURVE",
"1236 1417 CURVE SMOOTH",
"912.348 528 LINE",
"458.595 528 LINE",
"726 1263 LINE SMOOTH",
"765.014 1368.624 OFFCURVE",
"717.103 1442.556 OFFCURVE",
"618.454 1449.47 CURVE SMOOTH",
"323 1450 LINE SMOOTH",
"295 1450 OFFCURVE",
"273 1428 OFFCURVE",
"273 1400 CURVE SMOOTH",
"273 1372 OFFCURVE",
"295 1350 OFFCURVE",
"323 1350 CURVE SMOOTH",
"603 1350 LINE SMOOTH",
"633 1350 OFFCURVE",
"644 1329 OFFCURVE",
"632 1297 CURVE SMOOTH",
"352.226 528 LINE",
"-11 528 LINE SMOOTH",
"-39 528 OFFCURVE",
"-61 506 OFFCURVE",
"-61 478 CURVE SMOOTH",
"-61 450 OFFCURVE",
"-39 428 OFFCURVE",
"-11 428 CURVE SMOOTH",
"315.844 428 LINE",
"79 -223 LINE SMOOTH",
"68 -249 OFFCURVE",
"86 -290 OFFCURVE",
"126 -290 CURVE SMOOTH"
);
}
);
width = 1276;
},
{
anchors = (
{
name = bottom;
position = "{782, 0}";
},
{
name = center;
position = "{622, 700}";
},
{
name = top;
position = "{722, 1400}";
},
{
name = topleft;
position = "{8, 1400}";
}
);
layerId = m005;
paths = (
{
closed = 1;
nodes = (
"496 -290 OFFCURVE",
"518 -268 OFFCURVE",
"518 -240 CURVE SMOOTH",
"518 428 LINE",
"978 428 LINE",
"978 120 LINE SMOOTH",
"978 24 OFFCURVE",
"1052 -50 OFFCURVE",
"1146 -50 CURVE SMOOTH",
"3276 -50 LINE SMOOTH",
"3304 -50 OFFCURVE",
"3326 -28 OFFCURVE",
"3326 0 CURVE SMOOTH",
"3326 28 OFFCURVE",
"3304 50 OFFCURVE",
"3276 50 CURVE SMOOTH",
"1146 50 LINE SMOOTH",
"1101 50 OFFCURVE",
"1078 73 OFFCURVE",
"1078 120 CURVE SMOOTH",
"1078 1400 LINE SMOOTH",
"1078 1428 OFFCURVE",
"1056 1450 OFFCURVE",
"1028 1450 CURVE SMOOTH",
"1000 1450 OFFCURVE",
"978 1428 OFFCURVE",
"978 1400 CURVE SMOOTH",
"978 528 LINE",
"518 528 LINE",
"518 1280 LINE SMOOTH",
"518 1378.886 OFFCURVE",
"458.331 1443.418 OFFCURVE",
"363.062 1449.525 CURVE SMOOTH",
"68 1450 LINE SMOOTH",
"40 1450 OFFCURVE",
"18 1428 OFFCURVE",
"18 1400 CURVE SMOOTH",
"18 1372 OFFCURVE",
"40 1350 OFFCURVE",
"68 1350 CURVE SMOOTH",
"348 1350 LINE SMOOTH",
"403 1350 OFFCURVE",
"418 1335 OFFCURVE",
"418 1280 CURVE SMOOTH",
"418 528 LINE",
"70 528 LINE SMOOTH",
"42 528 OFFCURVE",
"20 506 OFFCURVE",
"20 478 CURVE SMOOTH",
"20 450 OFFCURVE",
"42 428 OFFCURVE",
"70 428 CURVE SMOOTH",
"418 428 LINE",
"418 -240 LINE SMOOTH",
"418 -268 OFFCURVE",
"440 -290 OFFCURVE",
"468 -290 CURVE SMOOTH"
);
}
);
width = 3276;
},
{
anchors = (
{
name = bottom;
position = "{782, 0}";
},
{
name = center;
position = "{622, 700}";
},
{
name = top;
position = "{722, 1400}";
},
{
name = topleft;
position = "{8, 1400}";
}
);
layerId = m006;
paths = (
{
closed = 1;
nodes = (
"496 -290 OFFCURVE",
"518 -268 OFFCURVE",
"518 -240 CURVE SMOOTH",
"518 428 LINE",
"978 428 LINE",
"978 120 LINE SMOOTH",
"978 24 OFFCURVE",
"1052 -50 OFFCURVE",
"1146 -50 CURVE SMOOTH",
"1276 -50 LINE SMOOTH",
"1304 -50 OFFCURVE",
"1326 -28 OFFCURVE",
"1326 0 CURVE SMOOTH",
"1326 28 OFFCURVE",
"1304 50 OFFCURVE",
"1276 50 CURVE SMOOTH",
"1146 50 LINE SMOOTH",
"1101 50 OFFCURVE",
"1078 73 OFFCURVE",
"1078 120 CURVE SMOOTH",
"1078 1400 LINE SMOOTH",
"1078 1428 OFFCURVE",
"1056 1450 OFFCURVE",
"1028 1450 CURVE SMOOTH",
"1000 1450 OFFCURVE",
"978 1428 OFFCURVE",
"978 1400 CURVE SMOOTH",
"978 528 LINE",
"518 528 LINE",
"518 1280 LINE SMOOTH",
"518 1378.886 OFFCURVE",
"458.331 1443.418 OFFCURVE",
"363.062 1449.525 CURVE SMOOTH",
"68 1450 LINE SMOOTH",
"40 1450 OFFCURVE",
"18 1428 OFFCURVE",
"18 1400 CURVE SMOOTH",
"18 1372 OFFCURVE",
"40 1350 OFFCURVE",
"68 1350 CURVE SMOOTH",
"348 1350 LINE SMOOTH",
"403 1350 OFFCURVE",
"418 1335 OFFCURVE",
"418 1280 CURVE SMOOTH",
"418 528 LINE",
"70 528 LINE SMOOTH",
"42 528 OFFCURVE",
"20 506 OFFCURVE",
"20 478 CURVE SMOOTH",
"20 450 OFFCURVE",
"42 428 OFFCURVE",
"70 428 CURVE SMOOTH",
"418 428 LINE",
"418 -240 LINE SMOOTH",
"418 -268 OFFCURVE",
"440 -290 OFFCURVE",
"468 -290 CURVE SMOOTH"
);
}
);
width = 1276;
}
);
leftKerningGroup = H;
rightKerningGroup = H;
unicode = 0048;
},
{
glyphname = Hbar;
lastChange = "2021-04-29 15:54:39 +0000";
layers = (
{
layerId = m003;
paths = (
{
closed = 1;
nodes = (
"524 -340 OFFCURVE",
"568 -296 OFFCURVE",
"568 -240 CURVE SMOOTH",
"568 378 LINE",
"928 378 LINE",
"928 120 LINE SMOOTH",
"928 -4 OFFCURVE",
"1024 -100 OFFCURVE",
"1146 -100 CURVE SMOOTH",
"1276 -100 LINE SMOOTH",
"1332 -100 OFFCURVE",
"1376 -56 OFFCURVE",
"1376 0 CURVE SMOOTH",
"1376 56 OFFCURVE",
"1332 100 OFFCURVE",
"1276 100 CURVE SMOOTH",
"1146 100 LINE SMOOTH",
"1128 100 OFFCURVE",
"1128 100 OFFCURVE",
"1128 120 CURVE SMOOTH",
"1128 858 LINE",
"1196 858 LINE SMOOTH",
"1252 858 OFFCURVE",
"1296 902 OFFCURVE",
"1296 958 CURVE SMOOTH",
"1296 1014 OFFCURVE",
"1252 1058 OFFCURVE",
"1196 1058 CURVE SMOOTH",
"1128 1058 LINE",
"1128 1400 LINE SMOOTH",
"1128 1456 OFFCURVE",
"1084 1500 OFFCURVE",
"1028 1500 CURVE SMOOTH",
"972 1500 OFFCURVE",
"928 1456 OFFCURVE",
"928 1400 CURVE SMOOTH",
"928 1058 LINE",
"568 1058 LINE",
"568 1290 LINE SMOOTH",
"568 1416 OFFCURVE",
"487 1499 OFFCURVE",
"363 1500 CURVE SMOOTH",
"68 1500 LINE SMOOTH",
"12 1500 OFFCURVE",
"-32 1456 OFFCURVE",
"-32 1400 CURVE SMOOTH",
"-32 1344 OFFCURVE",
"12 1300 OFFCURVE",
"68 1300 CURVE SMOOTH",
"348 1300 LINE SMOOTH",
"368 1300 OFFCURVE",
"368 1300 OFFCURVE",
"368 1280 CURVE SMOOTH",
"368 1058 LINE",
"70 1058 LINE SMOOTH",
"14 1058 OFFCURVE",
"-30 1014 OFFCURVE",
"-30 958 CURVE SMOOTH",
"-30 902 OFFCURVE",
"14 858 OFFCURVE",
"70 858 CURVE SMOOTH",
"368 858 LINE",
"368 578 LINE",
"70 578 LINE SMOOTH",
"14 578 OFFCURVE",
"-30 534 OFFCURVE",
"-30 478 CURVE SMOOTH",
"-30 422 OFFCURVE",
"14 378 OFFCURVE",
"70 378 CURVE SMOOTH",
"368 378 LINE",
"368 -240 LINE SMOOTH",
"368 -296 OFFCURVE",
"412 -340 OFFCURVE",
"468 -340 CURVE SMOOTH"
);
},
{
closed = 1;
nodes = (
"568 858 LINE",
"928 858 LINE",
"928 578 LINE",
"568 578 LINE"
);
}
);
width = 1276;
},
{
layerId = m002;
paths = (
{
closed = 1;
nodes = (
"850 -290 OFFCURVE",
"868 -249 OFFCURVE",
"857 -223 CURVE SMOOTH",
"620.156 428 LINE",
"1073.68 428 LINE",
"1192 103 LINE SMOOTH",
"1224 16 OFFCURVE",
"1314 -50 OFFCURVE",
"1401 -50 CURVE SMOOTH",
"1531 -50 LINE SMOOTH",
"1559 -50 OFFCURVE",
"1581 -28 OFFCURVE",
"1581 0 CURVE SMOOTH",
"1581 28 OFFCURVE",
"1559 50 OFFCURVE",
"1531 50 CURVE SMOOTH",
"1401 50 LINE SMOOTH",
"1351 50 OFFCURVE",
"1306 83 OFFCURVE",
"1286 137 CURVE",
"1005.308 908 LINE",
"1102 908 LINE SMOOTH",
"1130 908 OFFCURVE",
"1152 930 OFFCURVE",
"1152 958 CURVE SMOOTH",
"1152 986 OFFCURVE",
"1130 1008 OFFCURVE",
"1102 1008 CURVE SMOOTH",
"968.902 1008 LINE",
"820 1417 LINE SMOOTH",
"813 1436 OFFCURVE",
"795 1450 OFFCURVE",
"773 1450 CURVE SMOOTH",
"733 1450 OFFCURVE",
"715 1409 OFFCURVE",
"726 1383 CURVE SMOOTH",
"862.523 1008 LINE",
"409.143 1008 LINE",
"304 1297 LINE SMOOTH",
"270.825 1387.046 OFFCURVE",
"198.119 1443.851 OFFCURVE",
"108.023 1449.53 CURVE SMOOTH",
"-187 1450 LINE SMOOTH",
"-215 1450 OFFCURVE",
"-237 1428 OFFCURVE",
"-237 1400 CURVE SMOOTH",
"-237 1372 OFFCURVE",
"-215 1350 OFFCURVE",
"-187 1350 CURVE SMOOTH",
"93 1350 LINE SMOOTH",
"153 1350 OFFCURVE",
"187 1325 OFFCURVE",
"210 1263 CURVE SMOOTH",
"302.773 1008 LINE",
"-24 1008 LINE SMOOTH",
"-52 1008 OFFCURVE",
"-74 986 OFFCURVE",
"-74 958 CURVE SMOOTH",
"-74 930 OFFCURVE",
"-52 908 OFFCURVE",
"-24 908 CURVE SMOOTH",
"339.155 908 LINE",
"477.405 528 LINE",
"151 528 LINE SMOOTH",
"123 528 OFFCURVE",
"101 506 OFFCURVE",
"101 478 CURVE SMOOTH",
"101 450 OFFCURVE",
"123 428 OFFCURVE",
"151 428 CURVE SMOOTH",
"513.786 428 LINE",
"763 -257 LINE SMOOTH",
"770 -276 OFFCURVE",
"788 -290 OFFCURVE",
"810 -290 CURVE SMOOTH"
);
},
{
closed = 1;
nodes = (
"445.524 908 LINE",
"898.93 908 LINE",
"1037.273 528 LINE",
"583.774 528 LINE"
);
}
);
width = 1276;
},
{
layerId = m004;
paths = (
{
closed = 1;
nodes = (
"148 -290 OFFCURVE",
"166 -276 OFFCURVE",
"173 -257 CURVE SMOOTH",
"422.214 428 LINE",
"875.942 428 LINE",
"770 137 LINE SMOOTH",
"732 33 OFFCURVE",
"794 -50 OFFCURVE",
"891 -50 CURVE SMOOTH",
"1021 -50 LINE SMOOTH",
"1049 -50 OFFCURVE",
"1071 -28 OFFCURVE",
"1071 0 CURVE SMOOTH",
"1071 28 OFFCURVE",
"1049 50 OFFCURVE",
"1021 50 CURVE SMOOTH",
"891 50 LINE SMOOTH",
"862 50 OFFCURVE",
"852 71 OFFCURVE",
"864 103 CURVE SMOOTH",
"1157.07 908 LINE",
"1290 908 LINE SMOOTH",
"1318 908 OFFCURVE",
"1340 930 OFFCURVE",
"1340 958 CURVE SMOOTH",
"1340 986 OFFCURVE",
"1318 1008 OFFCURVE",
"1290 1008 CURVE SMOOTH",
"1193.477 1008 LINE",
"1330 1383 LINE SMOOTH",
"1341 1409 OFFCURVE",
"1323 1450 OFFCURVE",
"1283 1450 CURVE SMOOTH",
"1261 1450 OFFCURVE",
"1243 1436 OFFCURVE",
"1236 1417 CURVE SMOOTH",
"1087.098 1008 LINE",
"633.227 1008 LINE",
"726 1263 LINE SMOOTH",
"765.014 1368.624 OFFCURVE",
"717.103 1442.556 OFFCURVE",
"618.454 1449.47 CURVE SMOOTH",
"323 1450 LINE SMOOTH",
"295 1450 OFFCURVE",
"273 1428 OFFCURVE",
"273 1400 CURVE SMOOTH",
"273 1372 OFFCURVE",
"295 1350 OFFCURVE",
"323 1350 CURVE SMOOTH",
"603 1350 LINE SMOOTH",
"633 1350 OFFCURVE",
"644 1329 OFFCURVE",
"632 1297 CURVE SMOOTH",
"526.857 1008 LINE",
"164 1008 LINE SMOOTH",
"136 1008 OFFCURVE",
"114 986 OFFCURVE",
"114 958 CURVE SMOOTH",
"114 930 OFFCURVE",
"136 908 OFFCURVE",
"164 908 CURVE SMOOTH",
"490.476 908 LINE",
"352.226 528 LINE",
"-11 528 LINE SMOOTH",
"-39 528 OFFCURVE",
"-61 506 OFFCURVE",
"-61 478 CURVE SMOOTH",
"-61 450 OFFCURVE",
"-39 428 OFFCURVE",
"-11 428 CURVE SMOOTH",
"315.844 428 LINE",
"79 -223 LINE SMOOTH",
"68 -249 OFFCURVE",
"86 -290 OFFCURVE",
"126 -290 CURVE SMOOTH"
);
},
{
closed = 1;
nodes = (
"596.845 908 LINE",
"1050.692 908 LINE",
"912.348 528 LINE",
"458.595 528 LINE"
);
}
);
width = 1276;
},
{
layerId = m005;
paths = (
{
closed = 1;
nodes = (
"496 -290 OFFCURVE",
"518 -268 OFFCURVE",
"518 -240 CURVE SMOOTH",
"518 428 LINE",
"978 428 LINE",
"978 120 LINE SMOOTH",
"978 24 OFFCURVE",
"1052 -50 OFFCURVE",
"1146 -50 CURVE SMOOTH",
"3276 -50 LINE SMOOTH",
"3304 -50 OFFCURVE",
"3326 -28 OFFCURVE",
"3326 0 CURVE SMOOTH",
"3326 28 OFFCURVE",
"3304 50 OFFCURVE",
"3276 50 CURVE SMOOTH",
"1146 50 LINE SMOOTH",
"1101 50 OFFCURVE",
"1078 73 OFFCURVE",
"1078 120 CURVE SMOOTH",
"1078 908 LINE",
"1196 908 LINE SMOOTH",
"1224 908 OFFCURVE",
"1246 930 OFFCURVE",
"1246 958 CURVE SMOOTH",
"1246 986 OFFCURVE",
"1224 1008 OFFCURVE",
"1196 1008 CURVE SMOOTH",
"1078 1008 LINE",
"1078 1400 LINE SMOOTH",
"1078 1428 OFFCURVE",
"1056 1450 OFFCURVE",
"1028 1450 CURVE SMOOTH",
"1000 1450 OFFCURVE",
"978 1428 OFFCURVE",
"978 1400 CURVE SMOOTH",
"978 1008 LINE",
"518 1008 LINE",
"518 1290 LINE SMOOTH",
"518 1389 OFFCURVE",
"459 1449 OFFCURVE",
"363.062 1449.525 CURVE SMOOTH",
"68 1450 LINE SMOOTH",
"40 1450 OFFCURVE",
"18 1428 OFFCURVE",
"18 1400 CURVE SMOOTH",
"18 1372 OFFCURVE",
"40 1350 OFFCURVE",
"68 1350 CURVE SMOOTH",
"348 1350 LINE SMOOTH",
"403 1350 OFFCURVE",
"418 1335 OFFCURVE",
"418 1280 CURVE SMOOTH",
"418 1008 LINE",
"70 1008 LINE SMOOTH",
"42 1008 OFFCURVE",
"20 986 OFFCURVE",
"20 958 CURVE SMOOTH",
"20 930 OFFCURVE",
"42 908 OFFCURVE",
"70 908 CURVE SMOOTH",
"418 908 LINE",
"418 528 LINE",
"70 528 LINE SMOOTH",
"42 528 OFFCURVE",
"20 506 OFFCURVE",
"20 478 CURVE SMOOTH",
"20 450 OFFCURVE",
"42 428 OFFCURVE",
"70 428 CURVE SMOOTH",
"418 428 LINE",
"418 -240 LINE SMOOTH",
"418 -268 OFFCURVE",
"440 -290 OFFCURVE",
"468 -290 CURVE SMOOTH"
);
},
{
closed = 1;
nodes = (
"518 908 LINE",
"978 908 LINE",
"978 528 LINE",
"518 528 LINE"
);
}
);
width = 3276;
},
{
layerId = m006;
paths = (
{
closed = 1;
nodes = (
"496 -290 OFFCURVE",
"518 -268 OFFCURVE",
"518 -240 CURVE SMOOTH",
"518 428 LINE",
"978 428 LINE",
"978 120 LINE SMOOTH",
"978 24 OFFCURVE",
"1052 -50 OFFCURVE",
"1146 -50 CURVE SMOOTH",
"1276 -50 LINE SMOOTH",
"1304 -50 OFFCURVE",
"1326 -28 OFFCURVE",
"1326 0 CURVE SMOOTH",
"1326 28 OFFCURVE",
"1304 50 OFFCURVE",
"1276 50 CURVE SMOOTH",
"1146 50 LINE SMOOTH",
"1101 50 OFFCURVE",
"1078 73 OFFCURVE",
"1078 120 CURVE SMOOTH",
"1078 908 LINE",
"1196 908 LINE SMOOTH",
"1224 908 OFFCURVE",
"1246 930 OFFCURVE",
"1246 958 CURVE SMOOTH",
"1246 986 OFFCURVE",
"1224 1008 OFFCURVE",
"1196 1008 CURVE SMOOTH",
"1078 1008 LINE",
"1078 1400 LINE SMOOTH",
"1078 1428 OFFCURVE",
"1056 1450 OFFCURVE",
"1028 1450 CURVE SMOOTH",
"1000 1450 OFFCURVE",
"978 1428 OFFCURVE",
"978 1400 CURVE SMOOTH",
"978 1008 LINE",
"518 1008 LINE",
"518 1290 LINE SMOOTH",
"518 1389 OFFCURVE",
"459 1449 OFFCURVE",
"363.062 1449.525 CURVE SMOOTH",
"68 1450 LINE SMOOTH",
"40 1450 OFFCURVE",
"18 1428 OFFCURVE",
"18 1400 CURVE SMOOTH",
"18 1372 OFFCURVE",
"40 1350 OFFCURVE",
"68 1350 CURVE SMOOTH",
"348 1350 LINE SMOOTH",
"403 1350 OFFCURVE",
"418 1335 OFFCURVE",
"418 1280 CURVE SMOOTH",
"418 1008 LINE",
"70 1008 LINE SMOOTH",
"42 1008 OFFCURVE",
"20 986 OFFCURVE",
"20 958 CURVE SMOOTH",
"20 930 OFFCURVE",
"42 908 OFFCURVE",
"70 908 CURVE SMOOTH",
"418 908 LINE",
"418 528 LINE",
"70 528 LINE SMOOTH",
"42 528 OFFCURVE",
"20 506 OFFCURVE",
"20 478 CURVE SMOOTH",
"20 450 OFFCURVE",
"42 428 OFFCURVE",
"70 428 CURVE SMOOTH",
"418 428 LINE",
"418 -240 LINE SMOOTH",
"418 -268 OFFCURVE",
"440 -290 OFFCURVE",
"468 -290 CURVE SMOOTH"
);
},
{
closed = 1;
nodes = (
"518 908 LINE",
"978 908 LINE",
"978 528 LINE",
"518 528 LINE"
);
}
);
width = 1276;
}
);
leftKerningGroup = H;
rightKerningGroup = H;
unicode = 0126;
},
{
glyphname = I;
lastChange = "2021-04-29 15:54:39 +0000";
layers = (
{
anchors = (
{
name = bottom;
position = "{416, -240}";
},
{
name = ogonek;
position = "{612, -240}";
},
{
name = top;
position = "{384, 1400}";
},
{
name = topleft;
position = "{12, 1400}";
}
);
layerId = m003;
paths = (
{
closed = 1;
nodes = (
"492 -340 LINE SMOOTH",
"628 -340 OFFCURVE",
"712 -256 OFFCURVE",
"712 -120 CURVE SMOOTH",
"712 -99 LINE",
"718 -100 OFFCURVE",
"724 -100 OFFCURVE",
"730 -100 CURVE SMOOTH",
"860 -100 LINE SMOOTH",
"916 -100 OFFCURVE",
"960 -56 OFFCURVE",
"960 0 CURVE SMOOTH",
"960 56 OFFCURVE",
"916 100 OFFCURVE",
"860 100 CURVE SMOOTH",
"730 100 LINE SMOOTH",
"712 100 OFFCURVE",
"712 100 OFFCURVE",
"712 120 CURVE SMOOTH",
"712 1280 LINE SMOOTH",
"712 1416 OFFCURVE",
"628 1500 OFFCURVE",
"492 1500 CURVE SMOOTH",
"272 1500 LINE SMOOTH",
"137 1500 OFFCURVE",
"38 1410 OFFCURVE",
"52 1270 CURVE SMOOTH",
"102 750 LINE SMOOTH",
"108 699 OFFCURVE",
"151 660 OFFCURVE",
"202 660 CURVE SMOOTH",
"261 660 OFFCURVE",
"306 711 OFFCURVE",
"302 769 CURVE SMOOTH",
"252 1290 LINE SMOOTH",
"251 1300 OFFCURVE",
"251 1300 OFFCURVE",
"272 1300 CURVE SMOOTH",
"492 1300 LINE SMOOTH",
"512 1300 OFFCURVE",
"512 1300 OFFCURVE",
"512 1280 CURVE SMOOTH",
"512 -120 LINE SMOOTH",
"512 -140 OFFCURVE",
"512 -140 OFFCURVE",
"492 -140 CURVE SMOOTH",
"352 -140 LINE SMOOTH",
"296 -140 OFFCURVE",
"252 -184 OFFCURVE",
"252 -240 CURVE SMOOTH",
"252 -296 OFFCURVE",
"296 -340 OFFCURVE",
"352 -340 CURVE SMOOTH"
);
}
);
width = 860;
},
{
anchors = (
{
name = bottom;
position = "{758, -240}";
},
{
name = ogonek;
position = "{954, -240}";
},
{
name = top;
position = "{129, 1400}";
},
{
name = topleft;
position = "{-243, 1400}";
}
);
layerId = m002;
paths = (
{
closed = 1;
nodes = (
"834 -290 LINE SMOOTH",
"948 -290 OFFCURVE",
"1000 -217 OFFCURVE",
"957 -103 CURVE SMOOTH",
"935.216 -43.082 LINE",
"951.636 -47.589 OFFCURVE",
"968.373 -50 OFFCURVE",
"985 -50 CURVE SMOOTH",
"1115 -50 LINE SMOOTH",
"1143 -50 OFFCURVE",
"1165 -28 OFFCURVE",
"1165 0 CURVE SMOOTH",
"1165 28 OFFCURVE",
"1143 50 OFFCURVE",
"1115 50 CURVE SMOOTH",
"985 50 LINE SMOOTH",
"935 50 OFFCURVE",
"890 83 OFFCURVE",
"870 137 CURVE SMOOTH",
"448 1297 LINE SMOOTH",
"412 1396 OFFCURVE",
"338 1450 OFFCURVE",
"237 1450 CURVE SMOOTH",
"17 1450 LINE SMOOTH",
"-96 1450 OFFCURVE",
"-157 1372 OFFCURVE",
"-104 1259 CURVE SMOOTH",
"135 739 LINE SMOOTH",
"142 722 OFFCURVE",
"160 710 OFFCURVE",
"180 710 CURVE SMOOTH",
"221 710 OFFCURVE",
"239 752 OFFCURVE",
"225 781 CURVE SMOOTH",
"-14 1301 LINE SMOOTH",
"-27 1331 OFFCURVE",
"-15 1350 OFFCURVE",
"17 1350 CURVE SMOOTH",
"237 1350 LINE SMOOTH",
"301 1350 OFFCURVE",
"330 1329 OFFCURVE",
"354 1263 CURVE SMOOTH",
"863 -137 LINE SMOOTH",
"875 -169 OFFCURVE",
"864 -190 OFFCURVE",
"834 -190 CURVE SMOOTH",
"694 -190 LINE SMOOTH",
"666 -190 OFFCURVE",
"644 -212 OFFCURVE",
"644 -240 CURVE SMOOTH",
"644 -268 OFFCURVE",
"666 -290 OFFCURVE",
"694 -290 CURVE SMOOTH"
);
}
);
width = 860;
},
{
anchors = (
{
name = bottom;
position = "{74, -240}";
},
{
name = ogonek;
position = "{270, -240}";
},
{
name = top;
position = "{639, 1400}";
},
{
name = topleft;
position = "{267, 1400}";
}
);
layerId = m004;
paths = (
{
closed = 1;
nodes = (
"150 -290 LINE SMOOTH",
"252 -290 OFFCURVE",
"324 -236 OFFCURVE",
"361 -137 CURVE SMOOTH",
"399.936 -29.907 LINE",
"420.795 -42.771 OFFCURVE",
"446.373 -50 OFFCURVE",
"475 -50 CURVE SMOOTH",
"605 -50 LINE SMOOTH",
"633 -50 OFFCURVE",
"655 -28 OFFCURVE",
"655 0 CURVE SMOOTH",
"655 28 OFFCURVE",
"633 50 OFFCURVE",
"605 50 CURVE SMOOTH",
"475 50 LINE SMOOTH",
"448 50 OFFCURVE",
"436 64 OFFCURVE",
"442.383 86.843 CURVE",
"870 1263 LINE SMOOTH",
"912 1379 OFFCURVE",
"859 1450 OFFCURVE",
"747 1450 CURVE SMOOTH",
"527 1450 LINE SMOOTH",
"432 1450 OFFCURVE",
"342 1398 OFFCURVE",
"315 1293 CURVE SMOOTH",
"176 773 LINE SMOOTH",
"167 741 OFFCURVE",
"191 710 OFFCURVE",
"224 710 CURVE SMOOTH",
"247 710 OFFCURVE",
"267 726 OFFCURVE",
"272 747 CURVE SMOOTH",
"411 1267 LINE SMOOTH",
"427 1328 OFFCURVE",
"465 1350 OFFCURVE",
"527 1350 CURVE SMOOTH",
"747 1350 LINE SMOOTH",
"776 1350 OFFCURVE",
"788 1329 OFFCURVE",
"776 1297 CURVE",
"267 -103 LINE",
"242 -169 OFFCURVE",
"213 -190 OFFCURVE",
"150 -190 CURVE SMOOTH",
"10 -190 LINE SMOOTH",
"-18 -190 OFFCURVE",
"-40 -212 OFFCURVE",
"-40 -240 CURVE SMOOTH",
"-40 -268 OFFCURVE",
"-18 -290 OFFCURVE",
"10 -290 CURVE SMOOTH"
);
}
);
width = 860;
},
{
anchors = (
{
name = bottom;
position = "{416, -240}";
},
{
name = ogonek;
position = "{612, -240}";
},
{
name = top;
position = "{384, 1400}";
},
{
name = topleft;
position = "{12, 1400}";
}
);
layerId = m005;
paths = (
{
closed = 1;
nodes = (
"492 -290 LINE SMOOTH",
"600 -290 OFFCURVE",
"662 -228 OFFCURVE",
"662 -120 CURVE SMOOTH",
"662 -36.044 LINE",
"682.705 -45.048 OFFCURVE",
"705.683 -50 OFFCURVE",
"730 -50 CURVE SMOOTH",
"2860 -50 LINE SMOOTH",
"2888 -50 OFFCURVE",
"2910 -28 OFFCURVE",
"2910 0 CURVE SMOOTH",
"2910 28 OFFCURVE",
"2888 50 OFFCURVE",
"2860 50 CURVE SMOOTH",
"730 50 LINE SMOOTH",
"685 50 OFFCURVE",
"662 73 OFFCURVE",
"662 120 CURVE SMOOTH",
"662 1280 LINE SMOOTH",
"662 1388 OFFCURVE",
"600 1450 OFFCURVE",
"492 1450 CURVE SMOOTH",
"272 1450 LINE SMOOTH",
"165 1450 OFFCURVE",
"91 1384 OFFCURVE",
"102 1275 CURVE SMOOTH",
"152 755 LINE SMOOTH",
"155 730 OFFCURVE",
"176 710 OFFCURVE",
"202 710 CURVE SMOOTH",
"232 710 OFFCURVE",
"254 736 OFFCURVE",
"252 765 CURVE SMOOTH",
"202 1285 LINE SMOOTH",
"197 1337 OFFCURVE",
"213 1350 OFFCURVE",
"272 1350 CURVE SMOOTH",
"492 1350 LINE SMOOTH",
"551 1350 OFFCURVE",
"562 1339 OFFCURVE",
"562 1280 CURVE SMOOTH",
"562 -120 LINE SMOOTH",
"562 -179 OFFCURVE",
"551 -190 OFFCURVE",
"492 -190 CURVE SMOOTH",
"352 -190 LINE SMOOTH",
"324 -190 OFFCURVE",
"302 -212 OFFCURVE",
"302 -240 CURVE SMOOTH",
"302 -268 OFFCURVE",
"324 -290 OFFCURVE",
"352 -290 CURVE SMOOTH"
);
}
);
width = 2860;
},
{
anchors = (
{
name = bottom;
position = "{416, -240}";
},
{
name = ogonek;
position = "{612, -240}";
},
{
name = top;
position = "{384, 1400}";
},
{
name = topleft;
position = "{12, 1400}";
}
);
layerId = m006;
paths = (
{
closed = 1;
nodes = (
"492 -290 LINE SMOOTH",
"600 -290 OFFCURVE",
"662 -228 OFFCURVE",
"662 -120 CURVE SMOOTH",
"662 -36.044 LINE",
"682.705 -45.048 OFFCURVE",
"705.683 -50 OFFCURVE",
"730 -50 CURVE SMOOTH",
"860 -50 LINE SMOOTH",
"888 -50 OFFCURVE",
"910 -28 OFFCURVE",
"910 0 CURVE SMOOTH",
"910 28 OFFCURVE",
"888 50 OFFCURVE",
"860 50 CURVE SMOOTH",
"730 50 LINE SMOOTH",
"685 50 OFFCURVE",
"662 73 OFFCURVE",
"662 120 CURVE SMOOTH",
"662 1280 LINE SMOOTH",
"662 1388 OFFCURVE",
"600 1450 OFFCURVE",
"492 1450 CURVE SMOOTH",
"272 1450 LINE SMOOTH",
"165 1450 OFFCURVE",
"91 1384 OFFCURVE",
"102 1275 CURVE SMOOTH",
"152 755 LINE SMOOTH",
"155 730 OFFCURVE",
"176 710 OFFCURVE",
"202 710 CURVE SMOOTH",
"232 710 OFFCURVE",
"254 736 OFFCURVE",
"252 765 CURVE SMOOTH",
"202 1285 LINE SMOOTH",
"197 1337 OFFCURVE",
"213 1350 OFFCURVE",
"272 1350 CURVE SMOOTH",
"492 1350 LINE SMOOTH",
"551 1350 OFFCURVE",
"562 1339 OFFCURVE",
"562 1280 CURVE SMOOTH",
"562 -120 LINE SMOOTH",
"562 -179 OFFCURVE",
"551 -190 OFFCURVE",
"492 -190 CURVE SMOOTH",
"352 -190 LINE SMOOTH",
"324 -190 OFFCURVE",
"302 -212 OFFCURVE",
"302 -240 CURVE SMOOTH",
"302 -268 OFFCURVE",
"324 -290 OFFCURVE",
"352 -290 CURVE SMOOTH"
);
}
);
width = 860;
}
);
leftKerningGroup = I;
rightKerningGroup = H;
unicode = 0049;
},
{
glyphname = J;
lastChange = "2021-04-29 15:54:39 +0000";
layers = (
{
anchors = (
{
name = bottom;
position = "{502, -400}";
},
{
name = top;
position = "{502, 1400}";
}
);
layerId = m003;
paths = (
{
closed = 1;
nodes = (
"632 -500 LINE SMOOTH",
"768 -500 OFFCURVE",
"852 -416 OFFCURVE",
"852 -280 CURVE SMOOTH",
"852 -99 LINE",
"858 -100 OFFCURVE",
"864 -100 OFFCURVE",
"870 -100 CURVE SMOOTH",
"1000 -100 LINE SMOOTH",
"1056 -100 OFFCURVE",
"1100 -56 OFFCURVE",
"1100 0 CURVE SMOOTH",
"1100 56 OFFCURVE",
"1056 100 OFFCURVE",
"1000 100 CURVE SMOOTH",
"870 100 LINE SMOOTH",
"852 100 OFFCURVE",
"852 100 OFFCURVE",
"852 120 CURVE SMOOTH",
"852 1280 LINE SMOOTH",
"852 1416 OFFCURVE",
"768 1500 OFFCURVE",
"632 1500 CURVE SMOOTH",
"332 1500 LINE SMOOTH",
"198 1500 OFFCURVE",
"94 1412 OFFCURVE",
"112 1268 CURVE SMOOTH",
"242 124 LINE SMOOTH",
"248 74 OFFCURVE",
"291 36 OFFCURVE",
"342 36 CURVE SMOOTH",
"403 36 OFFCURVE",
"448 89 OFFCURVE",
"442 147 CURVE SMOOTH",
"312 1292 LINE SMOOTH",
"311 1300 OFFCURVE",
"310 1300 OFFCURVE",
"332 1300 CURVE SMOOTH",
"632 1300 LINE SMOOTH",
"652 1300 OFFCURVE",
"652 1300 OFFCURVE",
"652 1280 CURVE SMOOTH",
"652 -280 LINE SMOOTH",
"652 -300 OFFCURVE",
"652 -300 OFFCURVE",
"632 -300 CURVE SMOOTH",
"324 -300 LINE SMOOTH",
"268 -300 OFFCURVE",
"224 -344 OFFCURVE",
"224 -400 CURVE SMOOTH",
"224 -456 OFFCURVE",
"268 -500 OFFCURVE",
"324 -500 CURVE SMOOTH"
);
}
);
width = 1000;
},
{
anchors = (
{
name = bottom;
position = "{902, -400}";
},
{
name = top;
position = "{247, 1400}";
}
);
layerId = m002;
paths = (
{
closed = 1;
nodes = (
"1032 -450 LINE SMOOTH",
"1145 -450 OFFCURVE",
"1198 -378 OFFCURVE",
"1156 -263 CURVE SMOOTH",
"1075.961 -43.285 LINE",
"1092.142 -47.662 OFFCURVE",
"1108.624 -50 OFFCURVE",
"1125 -50 CURVE SMOOTH",
"1255 -50 LINE SMOOTH",
"1283 -50 OFFCURVE",
"1305 -28 OFFCURVE",
"1305 0 CURVE SMOOTH",
"1305 28 OFFCURVE",
"1283 50 OFFCURVE",
"1255 50 CURVE SMOOTH",
"1125 50 LINE SMOOTH",
"1077.469 50 OFFCURVE",
"1034.457 79.821 OFFCURVE",
"1013.144 129.154 CURVE",
"588 1297 LINE SMOOTH",
"552 1396 OFFCURVE",
"478 1450 OFFCURVE",
"377 1450 CURVE SMOOTH",
"77 1450 LINE SMOOTH",
"-41 1450 OFFCURVE",
"-99 1371 OFFCURVE",
"-44 1258 CURVE SMOOTH",
"502 114 LINE SMOOTH",
"510 98 OFFCURVE",
"527 86 OFFCURVE",
"547 86 CURVE SMOOTH",
"587 86 OFFCURVE",
"606 125 OFFCURVE",
"592 158 CURVE SMOOTH",
"46 1302 LINE SMOOTH",
"31 1331 OFFCURVE",
"44 1350 OFFCURVE",
"77 1350 CURVE SMOOTH",
"377 1350 LINE SMOOTH",
"441 1350 OFFCURVE",
"470 1329 OFFCURVE",
"494 1263 CURVE",
"1062 -297 LINE",
"1074 -329 OFFCURVE",
"1062 -350 OFFCURVE",
"1032 -350 CURVE SMOOTH",
"724 -350 LINE SMOOTH",
"696 -350 OFFCURVE",
"674 -372 OFFCURVE",
"674 -400 CURVE SMOOTH",
"674 -428 OFFCURVE",
"696 -450 OFFCURVE",
"724 -450 CURVE SMOOTH"
);
}
);
width = 1000;
},
{
anchors = (
{
name = bottom;
position = "{102, -400}";
},
{
name = top;
position = "{757, 1400}";
}
);
layerId = m004;
paths = (
{
closed = 1;
nodes = (
"232 -450 LINE SMOOTH",
"334 -450 OFFCURVE",
"406 -396 OFFCURVE",
"442 -297 CURVE SMOOTH",
"539.416 -29.584 LINE",
"560.369 -42.65 OFFCURVE",
"586.135 -50 OFFCURVE",
"615 -50 CURVE SMOOTH",
"745 -50 LINE SMOOTH",
"773 -50 OFFCURVE",
"795 -28 OFFCURVE",
"795 0 CURVE SMOOTH",
"795 28 OFFCURVE",
"773 50 OFFCURVE",
"745 50 CURVE SMOOTH",
"615 50 LINE SMOOTH",
"586 50 OFFCURVE",
"577 73 OFFCURVE",
"589.71 108.478 CURVE",
"1010 1263 LINE SMOOTH",
"1052 1379 OFFCURVE",
"999 1450 OFFCURVE",
"887 1450 CURVE SMOOTH",
"587 1450 LINE SMOOTH",
"486 1450 OFFCURVE",
"399 1396 OFFCURVE",
"374 1292 CURVE SMOOTH",
"88 148 LINE SMOOTH",
"81 117 OFFCURVE",
"104 86 OFFCURVE",
"137 86 CURVE SMOOTH",
"160 86 OFFCURVE",
"180 102 OFFCURVE",
"186 124 CURVE SMOOTH",
"472 1268 LINE SMOOTH",
"486 1328 OFFCURVE",
"521 1350 OFFCURVE",
"587 1350 CURVE SMOOTH",
"887 1350 LINE SMOOTH",
"916 1350 OFFCURVE",
"928 1329 OFFCURVE",
"916 1297 CURVE SMOOTH",
"348 -263 LINE SMOOTH",
"324 -329 OFFCURVE",
"295 -350 OFFCURVE",
"232 -350 CURVE SMOOTH",
"-76 -350 LINE SMOOTH",
"-104 -350 OFFCURVE",
"-126 -372 OFFCURVE",
"-126 -400 CURVE SMOOTH",
"-126 -428 OFFCURVE",
"-104 -450 OFFCURVE",
"-76 -450 CURVE SMOOTH"
);
}
);
width = 1000;
},
{
anchors = (
{
name = bottom;
position = "{502, -400}";
},
{
name = top;
position = "{502, 1400}";
}
);
layerId = m005;
paths = (
{
closed = 1;
nodes = (
"632 -450 LINE SMOOTH",
"740 -450 OFFCURVE",
"802 -388 OFFCURVE",
"802 -280 CURVE SMOOTH",
"802 -36.044 LINE",
"822.705 -45.048 OFFCURVE",
"845.683 -50 OFFCURVE",
"870 -50 CURVE SMOOTH",
"3000 -50 LINE SMOOTH",
"3028 -50 OFFCURVE",
"3050 -28 OFFCURVE",
"3050 0 CURVE SMOOTH",
"3050 28 OFFCURVE",
"3028 50 OFFCURVE",
"3000 50 CURVE SMOOTH",
"870 50 LINE SMOOTH",
"825 50 OFFCURVE",
"802 73 OFFCURVE",
"802 120 CURVE SMOOTH",
"802 1280 LINE SMOOTH",
"802 1388 OFFCURVE",
"740 1450 OFFCURVE",
"632 1450 CURVE SMOOTH",
"332 1450 LINE SMOOTH",
"225 1450 OFFCURVE",
"148 1386 OFFCURVE",
"162 1274 CURVE SMOOTH",
"292 130 LINE SMOOTH",
"295 105 OFFCURVE",
"316 86 OFFCURVE",
"342 86 CURVE SMOOTH",
"373 86 OFFCURVE",
"395 113 OFFCURVE",
"392 142 CURVE SMOOTH",
"262 1286 LINE SMOOTH",
"255 1338 OFFCURVE",
"270 1350 OFFCURVE",
"332 1350 CURVE SMOOTH",
"632 1350 LINE SMOOTH",
"691 1350 OFFCURVE",
"702 1339 OFFCURVE",
"702 1280 CURVE SMOOTH",
"702 -280 LINE SMOOTH",
"702 -339 OFFCURVE",
"691 -350 OFFCURVE",
"632 -350 CURVE SMOOTH",
"324 -350 LINE SMOOTH",
"296 -350 OFFCURVE",
"274 -372 OFFCURVE",
"274 -400 CURVE SMOOTH",
"274 -428 OFFCURVE",
"296 -450 OFFCURVE",
"324 -450 CURVE SMOOTH"
);
}
);
width = 3000;
},
{
anchors = (
{
name = bottom;
position = "{502, -400}";
},
{
name = top;
position = "{502, 1400}";
}
);
layerId = m006;
paths = (
{
closed = 1;
nodes = (
"632 -450 LINE SMOOTH",
"740 -450 OFFCURVE",
"802 -388 OFFCURVE",
"802 -280 CURVE SMOOTH",
"802 -36.044 LINE",
"822.705 -45.048 OFFCURVE",
"845.683 -50 OFFCURVE",
"870 -50 CURVE SMOOTH",
"1000 -50 LINE SMOOTH",
"1028 -50 OFFCURVE",
"1050 -28 OFFCURVE",
"1050 0 CURVE SMOOTH",
"1050 28 OFFCURVE",
"1028 50 OFFCURVE",
"1000 50 CURVE SMOOTH",
"870 50 LINE SMOOTH",
"825 50 OFFCURVE",
"802 73 OFFCURVE",
"802 120 CURVE SMOOTH",
"802 1280 LINE SMOOTH",
"802 1388 OFFCURVE",
"740 1450 OFFCURVE",
"632 1450 CURVE SMOOTH",
"332 1450 LINE SMOOTH",
"225 1450 OFFCURVE",
"148 1386 OFFCURVE",
"162 1274 CURVE SMOOTH",
"292 130 LINE SMOOTH",
"295 105 OFFCURVE",
"316 86 OFFCURVE",
"342 86 CURVE SMOOTH",
"373 86 OFFCURVE",
"395 113 OFFCURVE",
"392 142 CURVE SMOOTH",
"262 1286 LINE SMOOTH",
"255 1338 OFFCURVE",
"270 1350 OFFCURVE",
"332 1350 CURVE SMOOTH",
"632 1350 LINE SMOOTH",
"691 1350 OFFCURVE",
"702 1339 OFFCURVE",
"702 1280 CURVE SMOOTH",
"702 -280 LINE SMOOTH",
"702 -339 OFFCURVE",
"691 -350 OFFCURVE",
"632 -350 CURVE SMOOTH",
"324 -350 LINE SMOOTH",
"296 -350 OFFCURVE",
"274 -372 OFFCURVE",
"274 -400 CURVE SMOOTH",
"274 -428 OFFCURVE",
"296 -450 OFFCURVE",
"324 -450 CURVE SMOOTH"
);
}
);
width = 1000;
}
);
leftKerningGroup = J;
rightKerningGroup = J;
unicode = 004A;
},
{
glyphname = K;
lastChange = "2021-04-29 15:54:39 +0000";
layers = (
{
anchors = (
{
name = bottom;
position = "{746, -240}";
},
{
name = top;
position = "{660, 1400}";
}
);
layerId = m003;
paths = (
{
closed = 1;
nodes = (
"524 -340 OFFCURVE",
"568 -296 OFFCURVE",
"568 -240 CURVE SMOOTH",
"568 420 LINE",
"948 420 LINE SMOOTH",
"968 420 OFFCURVE",
"968 420 OFFCURVE",
"968 400 CURVE SMOOTH",
"968 -240 LINE SMOOTH",
"968 -296 OFFCURVE",
"1012 -340 OFFCURVE",
"1068 -340 CURVE SMOOTH",
"1124 -340 OFFCURVE",
"1168 -296 OFFCURVE",
"1168 -240 CURVE SMOOTH",
"1168 -99 LINE",
"1174 -100 OFFCURVE",
"1180 -100 OFFCURVE",
"1186 -100 CURVE SMOOTH",
"1316 -100 LINE SMOOTH",
"1372 -100 OFFCURVE",
"1416 -56 OFFCURVE",
"1416 0 CURVE SMOOTH",
"1416 56 OFFCURVE",
"1372 100 OFFCURVE",
"1316 100 CURVE SMOOTH",
"1186 100 LINE SMOOTH",
"1168 100 OFFCURVE",
"1168 100 OFFCURVE",
"1168 120 CURVE SMOOTH",
"1168 400 LINE SMOOTH",
"1168 536 OFFCURVE",
"1084 620 OFFCURVE",
"948 620 CURVE SMOOTH",
"930 620 LINE",
"1046 1384 LINE SMOOTH",
"1056 1445 OFFCURVE",
"1009 1500 OFFCURVE",
"948 1500 CURVE SMOOTH",
"898 1500 OFFCURVE",
"856 1463 OFFCURVE",
"849 1415 CURVE SMOOTH",
"728 620 LINE",
"568 620 LINE",
"568 1280 LINE SMOOTH",
"568 1405 OFFCURVE",
"487 1492 OFFCURVE",
"365 1500 CURVE",
"68 1500 LINE SMOOTH",
"12 1500 OFFCURVE",
"-32 1456 OFFCURVE",
"-32 1400 CURVE SMOOTH",
"-32 1344 OFFCURVE",
"12 1300 OFFCURVE",
"68 1300 CURVE SMOOTH",
"348 1300 LINE SMOOTH",
"368 1300 OFFCURVE",
"368 1300 OFFCURVE",
"368 1280 CURVE SMOOTH",
"368 620 LINE",
"68 620 LINE SMOOTH",
"12 620 OFFCURVE",
"-32 576 OFFCURVE",
"-32 520 CURVE SMOOTH",
"-32 464 OFFCURVE",
"12 420 OFFCURVE",
"68 420 CURVE SMOOTH",
"368 420 LINE",
"368 -240 LINE SMOOTH",
"368 -296 OFFCURVE",
"412 -340 OFFCURVE",
"468 -340 CURVE SMOOTH"
);
}
);
width = 1316;
},
{
anchors = (
{
name = bottom;
position = "{1088, -240}";
},
{
name = top;
position = "{405, 1400}";
}
);
layerId = m002;
paths = (
{
closed = 1;
nodes = (
"850 -290 OFFCURVE",
"868 -249 OFFCURVE",
"857 -223 CURVE SMOOTH",
"604.876 470 LINE",
"1014 470 LINE SMOOTH",
"1077 470 OFFCURVE",
"1106 449 OFFCURVE",
"1130 383 CURVE",
"1363 -257 LINE",
"1370 -276 OFFCURVE",
"1388 -290 OFFCURVE",
"1410 -290 CURVE SMOOTH",
"1450 -290 OFFCURVE",
"1468 -249 OFFCURVE",
"1457 -223 CURVE SMOOTH",
"1391.733 -43.223 LINE",
"1407.988 -47.64 OFFCURVE",
"1424.548 -50 OFFCURVE",
"1441 -50 CURVE SMOOTH",
"1571 -50 LINE SMOOTH",
"1599 -50 OFFCURVE",
"1621 -28 OFFCURVE",
"1621 0 CURVE SMOOTH",
"1621 28 OFFCURVE",
"1599 50 OFFCURVE",
"1571 50 CURVE SMOOTH",
"1441 50 LINE SMOOTH",
"1393.51 50 OFFCURVE",
"1350.531 79.769 OFFCURVE",
"1329.199 129.026 CURVE",
"1224 417 LINE",
"1188 516 OFFCURVE",
"1116 570 OFFCURVE",
"1014 570 CURVE SMOOTH",
"920.5 570 LINE",
"742 1410 LINE SMOOTH",
"737 1433 OFFCURVE",
"717 1450 OFFCURVE",
"693 1450 CURVE SMOOTH",
"661 1450 OFFCURVE",
"638 1421 OFFCURVE",
"644 1390 CURVE SMOOTH",
"818.25 570 LINE",
"568.494 570 LINE",
"304 1297 LINE SMOOTH",
"270.825 1387.046 OFFCURVE",
"198.119 1443.851 OFFCURVE",
"108.023 1449.53 CURVE SMOOTH",
"-187 1450 LINE SMOOTH",
"-215 1450 OFFCURVE",
"-237 1428 OFFCURVE",
"-237 1400 CURVE SMOOTH",
"-237 1372 OFFCURVE",
"-215 1350 OFFCURVE",
"-187 1350 CURVE SMOOTH",
"93 1350 LINE SMOOTH",
"153 1350 OFFCURVE",
"187 1325 OFFCURVE",
"210 1263 CURVE SMOOTH",
"462.124 570 LINE",
"134 570 LINE SMOOTH",
"106 570 OFFCURVE",
"84 548 OFFCURVE",
"84 520 CURVE SMOOTH",
"84 492 OFFCURVE",
"106 470 OFFCURVE",
"134 470 CURVE SMOOTH",
"498.506 470 LINE",
"763 -257 LINE SMOOTH",
"770 -276 OFFCURVE",
"788 -290 OFFCURVE",
"810 -290 CURVE SMOOTH"
);
}
);
width = 1316;
},
{
anchors = (
{
name = bottom;
position = "{404, -240}";
},
{
name = top;
position = "{915, 1400}";
}
);
layerId = m004;
paths = (
{
closed = 1;
nodes = (
"148 -290 OFFCURVE",
"166 -276 OFFCURVE",
"173 -257 CURVE SMOOTH",
"437.494 470 LINE",
"882 470 LINE SMOOTH",
"912 470 OFFCURVE",
"924 449 OFFCURVE",
"912 417 CURVE",
"679 -223 LINE",
"668 -249 OFFCURVE",
"686 -290 OFFCURVE",
"726 -290 CURVE SMOOTH",
"748 -290 OFFCURVE",
"766 -276 OFFCURVE",
"773 -257 CURVE SMOOTH",
"855.535 -29.658 LINE",
"876.467 -42.678 OFFCURVE",
"902.19 -50 OFFCURVE",
"931 -50 CURVE SMOOTH",
"1061 -50 LINE SMOOTH",
"1089 -50 OFFCURVE",
"1111 -28 OFFCURVE",
"1111 0 CURVE SMOOTH",
"1111 28 OFFCURVE",
"1089 50 OFFCURVE",
"1061 50 CURVE SMOOTH",
"931 50 LINE SMOOTH",
"902 50 OFFCURVE",
"892 71 OFFCURVE",
"904 103 CURVE SMOOTH",
"1006 383 LINE SMOOTH",
"1048 498 OFFCURVE",
"995 570 OFFCURVE",
"882 570 CURVE SMOOTH",
"829.744 570 LINE",
"1247 1377 LINE SMOOTH",
"1263 1405 OFFCURVE",
"1245 1450 OFFCURVE",
"1203 1450 CURVE SMOOTH",
"1184 1450 OFFCURVE",
"1167 1439 OFFCURVE",
"1159 1423 CURVE SMOOTH",
"717.96 570 LINE",
"473.876 570 LINE",
"726 1263 LINE SMOOTH",
"765.014 1368.624 OFFCURVE",
"717.103 1442.556 OFFCURVE",
"618.454 1449.47 CURVE SMOOTH",
"323 1450 LINE SMOOTH",
"295 1450 OFFCURVE",
"273 1428 OFFCURVE",
"273 1400 CURVE SMOOTH",
"273 1372 OFFCURVE",
"295 1350 OFFCURVE",
"323 1350 CURVE SMOOTH",
"603 1350 LINE SMOOTH",
"633 1350 OFFCURVE",
"644 1329 OFFCURVE",
"632 1297 CURVE SMOOTH",
"367.506 570 LINE",
"2 570 LINE SMOOTH",
"-26 570 OFFCURVE",
"-48 548 OFFCURVE",
"-48 520 CURVE SMOOTH",
"-48 492 OFFCURVE",
"-26 470 OFFCURVE",
"2 470 CURVE SMOOTH",
"331.124 470 LINE",
"79 -223 LINE SMOOTH",
"68 -249 OFFCURVE",
"86 -290 OFFCURVE",
"126 -290 CURVE SMOOTH"
);
}
);
width = 1316;
},
{
anchors = (
{
name = bottom;
position = "{746, -240}";
},
{
name = top;
position = "{660, 1400}";
}
);
layerId = m005;
paths = (
{
closed = 1;
nodes = (
"496 -290 OFFCURVE",
"518 -268 OFFCURVE",
"518 -240 CURVE SMOOTH",
"518 470 LINE",
"948 470 LINE SMOOTH",
"1007 470 OFFCURVE",
"1018 459 OFFCURVE",
"1018 400 CURVE SMOOTH",
"1018 -240 LINE SMOOTH",
"1018 -268 OFFCURVE",
"1040 -290 OFFCURVE",
"1068 -290 CURVE SMOOTH",
"1096 -290 OFFCURVE",
"1118 -268 OFFCURVE",
"1118 -240 CURVE SMOOTH",
"1118 -36.044 LINE",
"1138.705 -45.048 OFFCURVE",
"1161.683 -50 OFFCURVE",
"1186 -50 CURVE SMOOTH",
"3316 -50 LINE SMOOTH",
"3344 -50 OFFCURVE",
"3366 -28 OFFCURVE",
"3366 0 CURVE SMOOTH",
"3366 28 OFFCURVE",
"3344 50 OFFCURVE",
"3316 50 CURVE SMOOTH",
"1186 50 LINE SMOOTH",
"1141 50 OFFCURVE",
"1118 73 OFFCURVE",
"1118 120 CURVE SMOOTH",
"1118 400 LINE SMOOTH",
"1118 508 OFFCURVE",
"1056 570 OFFCURVE",
"948 570 CURVE SMOOTH",
"871.832 570 LINE",
"997 1392 LINE SMOOTH",
"1002 1423 OFFCURVE",
"978 1450 OFFCURVE",
"948 1450 CURVE SMOOTH",
"923 1450 OFFCURVE",
"902 1432 OFFCURVE",
"899 1408 CURVE SMOOTH",
"771.395 570 LINE",
"518 570 LINE",
"518 1280 LINE SMOOTH",
"518 1378.886 OFFCURVE",
"458.331 1443.418 OFFCURVE",
"363.062 1449.525 CURVE SMOOTH",
"68 1450 LINE SMOOTH",
"40 1450 OFFCURVE",
"18 1428 OFFCURVE",
"18 1400 CURVE SMOOTH",
"18 1372 OFFCURVE",
"40 1350 OFFCURVE",
"68 1350 CURVE SMOOTH",
"348 1350 LINE SMOOTH",
"403 1350 OFFCURVE",
"418 1335 OFFCURVE",
"418 1280 CURVE SMOOTH",
"418 570 LINE",
"68 570 LINE SMOOTH",
"40 570 OFFCURVE",
"18 548 OFFCURVE",
"18 520 CURVE SMOOTH",
"18 492 OFFCURVE",
"40 470 OFFCURVE",
"68 470 CURVE SMOOTH",
"418 470 LINE",
"418 -240 LINE SMOOTH",
"418 -268 OFFCURVE",
"440 -290 OFFCURVE",
"468 -290 CURVE SMOOTH"
);
}
);
width = 3316;
},
{
anchors = (
{
name = bottom;
position = "{746, -240}";
},
{
name = top;
position = "{660, 1400}";
}
);
layerId = m006;
paths = (
{
closed = 1;
nodes = (
"496 -290 OFFCURVE",
"518 -268 OFFCURVE",
"518 -240 CURVE SMOOTH",
"518 470 LINE",
"948 470 LINE SMOOTH",
"1007 470 OFFCURVE",
"1018 459 OFFCURVE",
"1018 400 CURVE SMOOTH",
"1018 -240 LINE SMOOTH",
"1018 -268 OFFCURVE",
"1040 -290 OFFCURVE",
"1068 -290 CURVE SMOOTH",
"1096 -290 OFFCURVE",
"1118 -268 OFFCURVE",
"1118 -240 CURVE SMOOTH",
"1118 -36.044 LINE",
"1138.705 -45.048 OFFCURVE",
"1161.683 -50 OFFCURVE",
"1186 -50 CURVE SMOOTH",
"1316 -50 LINE SMOOTH",
"1344 -50 OFFCURVE",
"1366 -28 OFFCURVE",
"1366 0 CURVE SMOOTH",
"1366 28 OFFCURVE",
"1344 50 OFFCURVE",
"1316 50 CURVE SMOOTH",
"1186 50 LINE SMOOTH",
"1141 50 OFFCURVE",
"1118 73 OFFCURVE",
"1118 120 CURVE SMOOTH",
"1118 400 LINE SMOOTH",
"1118 508 OFFCURVE",
"1056 570 OFFCURVE",
"948 570 CURVE SMOOTH",
"871.832 570 LINE",
"997 1392 LINE SMOOTH",
"1002 1423 OFFCURVE",
"978 1450 OFFCURVE",
"948 1450 CURVE SMOOTH",
"923 1450 OFFCURVE",
"902 1432 OFFCURVE",
"899 1408 CURVE SMOOTH",
"771.395 570 LINE",
"518 570 LINE",
"518 1280 LINE SMOOTH",
"518 1378.886 OFFCURVE",
"458.331 1443.418 OFFCURVE",
"363.062 1449.525 CURVE SMOOTH",
"68 1450 LINE SMOOTH",
"40 1450 OFFCURVE",
"18 1428 OFFCURVE",
"18 1400 CURVE SMOOTH",
"18 1372 OFFCURVE",
"40 1350 OFFCURVE",
"68 1350 CURVE SMOOTH",
"348 1350 LINE SMOOTH",
"403 1350 OFFCURVE",
"418 1335 OFFCURVE",
"418 1280 CURVE SMOOTH",
"418 570 LINE",
"68 570 LINE SMOOTH",
"40 570 OFFCURVE",
"18 548 OFFCURVE",
"18 520 CURVE SMOOTH",
"18 492 OFFCURVE",
"40 470 OFFCURVE",
"68 470 CURVE SMOOTH",
"418 470 LINE",
"418 -240 LINE SMOOTH",
"418 -268 OFFCURVE",
"440 -290 OFFCURVE",
"468 -290 CURVE SMOOTH"
);
}
);
width = 1316;
}
);
leftKerningGroup = H;
rightKerningGroup = K;
unicode = 004B;
},
{
glyphname = L;
lastChange = "2021-04-29 15:54:39 +0000";
layers = (
{
anchors = (
{
name = bottom;
position = "{532, -240}";
},
{
name = center;
position = "{472, 700}";
},
{
name = top;
position = "{472, 1400}";
},
{
name = topright;
position = "{548, 1400}";
}
);
layerId = m003;
paths = (
{
closed = 1;
nodes = (
"768 -340 LINE SMOOTH",
"904 -340 OFFCURVE",
"988 -256 OFFCURVE",
"988 -120 CURVE SMOOTH",
"988 -99 LINE",
"994 -100 OFFCURVE",
"1000 -100 OFFCURVE",
"1006 -100 CURVE SMOOTH",
"1056 -100 LINE SMOOTH",
"1112 -100 OFFCURVE",
"1156 -56 OFFCURVE",
"1156 0 CURVE SMOOTH",
"1156 56 OFFCURVE",
"1112 100 OFFCURVE",
"1056 100 CURVE SMOOTH",
"1006 100 LINE SMOOTH",
"988 100 OFFCURVE",
"988 100 OFFCURVE",
"988 120 CURVE SMOOTH",
"988 180 LINE SMOOTH",
"988 236 OFFCURVE",
"944 280 OFFCURVE",
"888 280 CURVE SMOOTH",
"832 280 OFFCURVE",
"788 236 OFFCURVE",
"788 180 CURVE SMOOTH",
"788 -120 LINE SMOOTH",
"788 -140 OFFCURVE",
"788 -140 OFFCURVE",
"768 -140 CURVE SMOOTH",
"387 -140 LINE",
"388 -133 OFFCURVE",
"388 -127 OFFCURVE",
"388 -120 CURVE SMOOTH",
"388 1280 LINE SMOOTH",
"388 1300 OFFCURVE",
"388 1300 OFFCURVE",
"408 1300 CURVE SMOOTH",
"568 1300 LINE SMOOTH",
"624 1300 OFFCURVE",
"668 1344 OFFCURVE",
"668 1400 CURVE SMOOTH",
"668 1456 OFFCURVE",
"624 1500 OFFCURVE",
"568 1500 CURVE SMOOTH",
"408 1500 LINE SMOOTH",
"272 1500 OFFCURVE",
"188 1416 OFFCURVE",
"188 1280 CURVE SMOOTH",
"188 -120 LINE SMOOTH",
"188 -140 OFFCURVE",
"188 -140 OFFCURVE",
"168 -140 CURVE SMOOTH",
"68 -140 LINE SMOOTH",
"12 -140 OFFCURVE",
"-32 -184 OFFCURVE",
"-32 -240 CURVE SMOOTH",
"-32 -296 OFFCURVE",
"12 -340 OFFCURVE",
"68 -340 CURVE SMOOTH"
);
}
);
width = 1056;
},
{
anchors = (
{
name = bottom;
position = "{874, -240}";
},
{
name = center;
position = "{472, 700}";
},
{
name = top;
position = "{217, 1400}";
},
{
name = topright;
position = "{293, 1400}";
}
);
layerId = m002;
paths = (
{
closed = 1;
nodes = (
"1110 -290 LINE SMOOTH",
"1224 -290 OFFCURVE",
"1276 -217 OFFCURVE",
"1233 -103 CURVE SMOOTH",
"1211.231 -43.086 LINE",
"1227.647 -47.591 OFFCURVE",
"1244.378 -50 OFFCURVE",
"1261 -50 CURVE SMOOTH",
"1311 -50 LINE SMOOTH",
"1339 -50 OFFCURVE",
"1361 -28 OFFCURVE",
"1361 0 CURVE SMOOTH",
"1361 28 OFFCURVE",
"1339 50 OFFCURVE",
"1311 50 CURVE SMOOTH",
"1261 50 LINE SMOOTH",
"1211 50 OFFCURVE",
"1166 83 OFFCURVE",
"1146 137 CURVE SMOOTH",
"1124 197 LINE SMOOTH",
"1117 216 OFFCURVE",
"1099 230 OFFCURVE",
"1077 230 CURVE SMOOTH",
"1037 230 OFFCURVE",
"1019 189 OFFCURVE",
"1030 163 CURVE SMOOTH",
"1139 -137 LINE SMOOTH",
"1151 -169 OFFCURVE",
"1140 -190 OFFCURVE",
"1110 -190 CURVE SMOOTH",
"647.354 -190 LINE",
"649.825 -164.852 OFFCURVE",
"645.298 -135.603 OFFCURVE",
"633 -103 CURVE SMOOTH",
"124 1297 LINE SMOOTH",
"112 1329 OFFCURVE",
"124 1350 OFFCURVE",
"153 1350 CURVE SMOOTH",
"313 1350 LINE SMOOTH",
"341 1350 OFFCURVE",
"363 1372 OFFCURVE",
"363 1400 CURVE SMOOTH",
"363 1428 OFFCURVE",
"341 1450 OFFCURVE",
"313 1450 CURVE SMOOTH",
"153 1450 LINE SMOOTH",
"41 1450 OFFCURVE",
"-12 1379 OFFCURVE",
"30 1263 CURVE SMOOTH",
"539 -137 LINE SMOOTH",
"559 -190 OFFCURVE",
"559 -190 OFFCURVE",
"510 -190 CURVE SMOOTH",
"410 -190 LINE SMOOTH",
"382 -190 OFFCURVE",
"360 -212 OFFCURVE",
"360 -240 CURVE SMOOTH",
"360 -268 OFFCURVE",
"382 -290 OFFCURVE",
"410 -290 CURVE SMOOTH"
);
}
);
width = 1056;
},
{
anchors = (
{
name = bottom;
position = "{190, -240}";
},
{
name = center;
position = "{472, 700}";
},
{
name = top;
position = "{727, 1400}";
},
{
name = topright;
position = "{803, 1400}";
}
);
layerId = m004;
paths = (
{
closed = 1;
nodes = (
"426 -290 LINE SMOOTH",
"528 -290 OFFCURVE",
"600 -236 OFFCURVE",
"637 -137 CURVE SMOOTH",
"675.915 -29.894 LINE",
"696.778 -42.766 OFFCURVE",
"722.364 -50 OFFCURVE",
"751 -50 CURVE SMOOTH",
"801 -50 LINE SMOOTH",
"829 -50 OFFCURVE",
"851 -28 OFFCURVE",
"851 0 CURVE SMOOTH",
"851 28 OFFCURVE",
"829 50 OFFCURVE",
"801 50 CURVE SMOOTH",
"751 50 LINE SMOOTH",
"716.865 50 OFFCURVE",
"708.777 56.128 OFFCURVE",
"718.688 87.83 CURVE SMOOTH",
"746 163 LINE SMOOTH",
"757 189 OFFCURVE",
"739 230 OFFCURVE",
"699 230 CURVE SMOOTH",
"677 230 OFFCURVE",
"659 216 OFFCURVE",
"652 197 CURVE",
"543 -103 LINE",
"518 -169 OFFCURVE",
"489 -190 OFFCURVE",
"426 -190 CURVE SMOOTH",
"11.222 -190 LINE",
"21.136 -174.11 OFFCURVE",
"29.742 -156.421 OFFCURVE",
"37 -137 CURVE SMOOTH",
"546 1263 LINE SMOOTH",
"570 1329 OFFCURVE",
"599 1350 OFFCURVE",
"663 1350 CURVE SMOOTH",
"823 1350 LINE SMOOTH",
"851 1350 OFFCURVE",
"873 1372 OFFCURVE",
"873 1400 CURVE SMOOTH",
"873 1428 OFFCURVE",
"851 1450 OFFCURVE",
"823 1450 CURVE SMOOTH",
"663 1450 LINE SMOOTH",
"562 1450 OFFCURVE",
"488 1396 OFFCURVE",
"452 1297 CURVE SMOOTH",
"-57 -103 LINE SMOOTH",
"-82 -169 OFFCURVE",
"-111 -190 OFFCURVE",
"-174 -190 CURVE SMOOTH",
"-274 -190 LINE SMOOTH",
"-302 -190 OFFCURVE",
"-324 -212 OFFCURVE",
"-324 -240 CURVE SMOOTH",
"-324 -268 OFFCURVE",
"-302 -290 OFFCURVE",
"-274 -290 CURVE SMOOTH"
);
}
);
width = 1056;
},
{
anchors = (
{
name = bottom;
position = "{532, -240}";
},
{
name = center;
position = "{472, 700}";
},
{
name = top;
position = "{472, 1400}";
},
{
name = topright;
position = "{548, 1400}";
}
);
layerId = m005;
paths = (
{
closed = 1;
nodes = (
"768 -290 LINE SMOOTH",
"876 -290 OFFCURVE",
"938 -228 OFFCURVE",
"938 -120 CURVE SMOOTH",
"938 -36.044 LINE",
"958.705 -45.048 OFFCURVE",
"981.683 -50 OFFCURVE",
"1006 -50 CURVE SMOOTH",
"3056 -50 LINE SMOOTH",
"3084 -50 OFFCURVE",
"3106 -28 OFFCURVE",
"3106 0 CURVE SMOOTH",
"3106 28 OFFCURVE",
"3084 50 OFFCURVE",
"3056 50 CURVE SMOOTH",
"1006 50 LINE SMOOTH",
"961 50 OFFCURVE",
"938 73 OFFCURVE",
"938 120 CURVE SMOOTH",
"938 180 LINE SMOOTH",
"938 208 OFFCURVE",
"916 230 OFFCURVE",
"888 230 CURVE SMOOTH",
"860 230 OFFCURVE",
"838 208 OFFCURVE",
"838 180 CURVE SMOOTH",
"838 -120 LINE SMOOTH",
"838 -179 OFFCURVE",
"827 -190 OFFCURVE",
"768 -190 CURVE SMOOTH",
"327.368 -190 LINE",
"334.381 -169.502 OFFCURVE",
"338 -146.094 OFFCURVE",
"338 -120 CURVE SMOOTH",
"338 1280 LINE SMOOTH",
"338 1339 OFFCURVE",
"349 1350 OFFCURVE",
"408 1350 CURVE SMOOTH",
"568 1350 LINE SMOOTH",
"596 1350 OFFCURVE",
"618 1372 OFFCURVE",
"618 1400 CURVE SMOOTH",
"618 1428 OFFCURVE",
"596 1450 OFFCURVE",
"568 1450 CURVE SMOOTH",
"408 1450 LINE SMOOTH",
"300 1450 OFFCURVE",
"238 1388 OFFCURVE",
"238 1280 CURVE SMOOTH",
"238 -120 LINE SMOOTH",
"238 -179 OFFCURVE",
"227 -190 OFFCURVE",
"168 -190 CURVE SMOOTH",
"68 -190 LINE SMOOTH",
"40 -190 OFFCURVE",
"18 -212 OFFCURVE",
"18 -240 CURVE SMOOTH",
"18 -268 OFFCURVE",
"40 -290 OFFCURVE",
"68 -290 CURVE SMOOTH"
);
}
);
width = 3056;
},
{
anchors = (
{
name = bottom;
position = "{532, -240}";
},
{
name = center;
position = "{472, 700}";
},
{
name = top;
position = "{472, 1400}";
},
{
name = topright;
position = "{548, 1400}";
}
);
layerId = m006;
paths = (
{
closed = 1;
nodes = (
"768 -290 LINE SMOOTH",
"876 -290 OFFCURVE",
"938 -228 OFFCURVE",
"938 -120 CURVE SMOOTH",
"938 -36.044 LINE",
"958.705 -45.048 OFFCURVE",
"981.683 -50 OFFCURVE",
"1006 -50 CURVE SMOOTH",
"1056 -50 LINE SMOOTH",
"1084 -50 OFFCURVE",
"1106 -28 OFFCURVE",
"1106 0 CURVE SMOOTH",
"1106 28 OFFCURVE",
"1084 50 OFFCURVE",
"1056 50 CURVE SMOOTH",
"1006 50 LINE SMOOTH",
"961 50 OFFCURVE",
"938 73 OFFCURVE",
"938 120 CURVE SMOOTH",
"938 180 LINE SMOOTH",
"938 208 OFFCURVE",
"916 230 OFFCURVE",
"888 230 CURVE SMOOTH",
"860 230 OFFCURVE",
"838 208 OFFCURVE",
"838 180 CURVE SMOOTH",
"838 -120 LINE SMOOTH",
"838 -179 OFFCURVE",
"827 -190 OFFCURVE",
"768 -190 CURVE SMOOTH",
"327.368 -190 LINE",
"334.381 -169.502 OFFCURVE",
"338 -146.094 OFFCURVE",
"338 -120 CURVE SMOOTH",
"338 1280 LINE SMOOTH",
"338 1339 OFFCURVE",
"349 1350 OFFCURVE",
"408 1350 CURVE SMOOTH",
"568 1350 LINE SMOOTH",
"596 1350 OFFCURVE",
"618 1372 OFFCURVE",
"618 1400 CURVE SMOOTH",
"618 1428 OFFCURVE",
"596 1450 OFFCURVE",
"568 1450 CURVE SMOOTH",
"408 1450 LINE SMOOTH",
"300 1450 OFFCURVE",
"238 1388 OFFCURVE",
"238 1280 CURVE SMOOTH",
"238 -120 LINE SMOOTH",
"238 -179 OFFCURVE",
"227 -190 OFFCURVE",
"168 -190 CURVE SMOOTH",
"68 -190 LINE SMOOTH",
"40 -190 OFFCURVE",
"18 -212 OFFCURVE",
"18 -240 CURVE SMOOTH",
"18 -268 OFFCURVE",
"40 -290 OFFCURVE",
"68 -290 CURVE SMOOTH"
);
}
);
width = 1056;
}
);
leftKerningGroup = L;
rightKerningGroup = L;
unicode = 004C;
},
{
glyphname = Lslash;
lastChange = "2021-04-29 15:54:39 +0000";
layers = (
{
components = (
{
name = L;
}
);
layerId = m003;
paths = (
{
closed = 1;
nodes = (
"7 481 LINE SMOOTH",
"-24 464 OFFCURVE",
"-44 430 OFFCURVE",
"-44 394 CURVE SMOOTH",
"-44 338 OFFCURVE",
"0 294 OFFCURVE",
"56 294 CURVE SMOOTH",
"74 294 OFFCURVE",
"93 299 OFFCURVE",
"108 309 CURVE",
"699 651 LINE SMOOTH",
"730 668 OFFCURVE",
"750 702 OFFCURVE",
"750 738 CURVE SMOOTH",
"750 794 OFFCURVE",
"706 838 OFFCURVE",
"650 838 CURVE SMOOTH",
"632 838 OFFCURVE",
"613 833 OFFCURVE",
"598 823 CURVE"
);
}
);
width = 1056;
},
{
components = (
{
name = L;
}
);
layerId = m002;
paths = (
{
closed = 1;
nodes = (
"137 434 LINE SMOOTH",
"125 425 OFFCURVE",
"117 411 OFFCURVE",
"117 394 CURVE SMOOTH",
"117 366 OFFCURVE",
"139 344 OFFCURVE",
"167 344 CURVE SMOOTH",
"178 344 OFFCURVE",
"188 348 OFFCURVE",
"197 354 CURVE SMOOTH",
"666 698 LINE SMOOTH",
"678 707 OFFCURVE",
"686 721 OFFCURVE",
"686 738 CURVE SMOOTH",
"686 766 OFFCURVE",
"664 788 OFFCURVE",
"636 788 CURVE SMOOTH",
"625 788 OFFCURVE",
"615 784 OFFCURVE",
"606 778 CURVE SMOOTH"
);
}
);
width = 1056;
},
{
components = (
{
name = L;
}
);
layerId = m004;
paths = (
{
closed = 1;
nodes = (
"-77 439 LINE SMOOTH",
"-93 431 OFFCURVE",
"-105 414 OFFCURVE",
"-105 394 CURVE SMOOTH",
"-105 366 OFFCURVE",
"-83 344 OFFCURVE",
"-55 344 CURVE SMOOTH",
"-47 344 OFFCURVE",
"-40 346 OFFCURVE",
"-33 349 CURVE SMOOTH",
"686 693 LINE SMOOTH",
"702 701 OFFCURVE",
"714 718 OFFCURVE",
"714 738 CURVE SMOOTH",
"714 766 OFFCURVE",
"692 788 OFFCURVE",
"664 788 CURVE SMOOTH",
"656 788 OFFCURVE",
"649 786 OFFCURVE",
"642 783 CURVE SMOOTH"
);
}
);
width = 1056;
},
{
components = (
{
name = L;
}
);
layerId = m005;
paths = (
{
closed = 1;
nodes = (
"31 437 LINE SMOOTH",
"16 429 OFFCURVE",
"6 412 OFFCURVE",
"6 394 CURVE SMOOTH",
"6 366 OFFCURVE",
"28 344 OFFCURVE",
"56 344 CURVE SMOOTH",
"65 344 OFFCURVE",
"74 346 OFFCURVE",
"81 351 CURVE",
"675 695 LINE SMOOTH",
"690 703 OFFCURVE",
"700 720 OFFCURVE",
"700 738 CURVE SMOOTH",
"700 766 OFFCURVE",
"678 788 OFFCURVE",
"650 788 CURVE SMOOTH",
"641 788 OFFCURVE",
"632 786 OFFCURVE",
"625 781 CURVE"
);
}
);
width = 3056;
},
{
components = (
{
name = L;
}
);
layerId = m006;
paths = (
{
closed = 1;
nodes = (
"31 437 LINE SMOOTH",
"16 429 OFFCURVE",
"6 412 OFFCURVE",
"6 394 CURVE SMOOTH",
"6 366 OFFCURVE",
"28 344 OFFCURVE",
"56 344 CURVE SMOOTH",
"65 344 OFFCURVE",
"74 346 OFFCURVE",
"81 351 CURVE",
"675 695 LINE SMOOTH",
"690 703 OFFCURVE",
"700 720 OFFCURVE",
"700 738 CURVE SMOOTH",
"700 766 OFFCURVE",
"678 788 OFFCURVE",
"650 788 CURVE SMOOTH",
"641 788 OFFCURVE",
"632 786 OFFCURVE",
"625 781 CURVE"
);
}
);
width = 1056;
}
);
leftKerningGroup = L;
rightKerningGroup = L;
unicode = 0141;
},
{
glyphname = M;
lastChange = "2021-04-29 15:54:39 +0000";
layers = (
{
anchors = (
{
name = bottom;
position = "{888, -240}";
},
{
name = top;
position = "{888, 1400}";
}
);
layerId = m003;
paths = (
{
closed = 1;
nodes = (
"424 -340 OFFCURVE",
"468 -296 OFFCURVE",
"468 -240 CURVE SMOOTH",
"468 1300 LINE",
"768 1300 LINE SMOOTH",
"788 1300 OFFCURVE",
"788 1300 OFFCURVE",
"788 1280 CURVE SMOOTH",
"788 -240 LINE SMOOTH",
"788 -296 OFFCURVE",
"832 -340 OFFCURVE",
"888 -340 CURVE SMOOTH",
"944 -340 OFFCURVE",
"988 -296 OFFCURVE",
"988 -240 CURVE SMOOTH",
"988 1280 LINE SMOOTH",
"988 1300 OFFCURVE",
"988 1300 OFFCURVE",
"1008 1300 CURVE SMOOTH",
"1288 1300 LINE SMOOTH",
"1308 1300 OFFCURVE",
"1308 1300 OFFCURVE",
"1308 1280 CURVE SMOOTH",
"1308 -240 LINE SMOOTH",
"1308 -296 OFFCURVE",
"1352 -340 OFFCURVE",
"1408 -340 CURVE SMOOTH",
"1464 -340 OFFCURVE",
"1508 -296 OFFCURVE",
"1508 -240 CURVE SMOOTH",
"1508 -99 LINE",
"1514 -100 OFFCURVE",
"1520 -100 OFFCURVE",
"1526 -100 CURVE SMOOTH",
"1676 -100 LINE SMOOTH",
"1732 -100 OFFCURVE",
"1776 -56 OFFCURVE",
"1776 0 CURVE SMOOTH",
"1776 56 OFFCURVE",
"1732 100 OFFCURVE",
"1676 100 CURVE SMOOTH",
"1526 100 LINE SMOOTH",
"1508 100 OFFCURVE",
"1508 100 OFFCURVE",
"1508 120 CURVE SMOOTH",
"1508 1280 LINE SMOOTH",
"1508 1416 OFFCURVE",
"1424 1500 OFFCURVE",
"1288 1500 CURVE SMOOTH",
"1008 1500 LINE SMOOTH",
"963 1500 OFFCURVE",
"922 1490 OFFCURVE",
"888 1472 CURVE",
"854 1490 OFFCURVE",
"813 1500 OFFCURVE",
"768 1500 CURVE SMOOTH",
"68 1500 LINE SMOOTH",
"12 1500 OFFCURVE",
"-32 1456 OFFCURVE",
"-32 1400 CURVE SMOOTH",
"-32 1344 OFFCURVE",
"12 1300 OFFCURVE",
"68 1300 CURVE SMOOTH",
"268 1300 LINE",
"268 -240 LINE SMOOTH",
"268 -296 OFFCURVE",
"312 -340 OFFCURVE",
"368 -340 CURVE SMOOTH"
);
}
);
width = 1676;
},
{
anchors = (
{
name = bottom;
position = "{1230, -240}";
},
{
name = top;
position = "{633, 1400}";
}
);
layerId = m002;
paths = (
{
closed = 1;
nodes = (
"750 -290 OFFCURVE",
"768 -249 OFFCURVE",
"757 -223 CURVE SMOOTH",
"184.39 1350 LINE",
"513 1350 LINE SMOOTH",
"577 1350 OFFCURVE",
"606 1329 OFFCURVE",
"630 1263 CURVE SMOOTH",
"1183 -257 LINE SMOOTH",
"1190 -276 OFFCURVE",
"1208 -290 OFFCURVE",
"1230 -290 CURVE SMOOTH",
"1270 -290 OFFCURVE",
"1288 -249 OFFCURVE",
"1277 -223 CURVE SMOOTH",
"724 1297 LINE SMOOTH",
"712 1329 OFFCURVE",
"724 1350 OFFCURVE",
"753 1350 CURVE SMOOTH",
"1033 1350 LINE SMOOTH",
"1097 1350 OFFCURVE",
"1126 1329 OFFCURVE",
"1150 1263 CURVE",
"1703 -257 LINE",
"1710 -276 OFFCURVE",
"1728 -290 OFFCURVE",
"1750 -290 CURVE SMOOTH",
"1790 -290 OFFCURVE",
"1808 -249 OFFCURVE",
"1797 -223 CURVE SMOOTH",
"1731.579 -43.181 LINE",
"1747.883 -47.625 OFFCURVE",
"1764.496 -50 OFFCURVE",
"1781 -50 CURVE SMOOTH",
"1931 -50 LINE SMOOTH",
"1959 -50 OFFCURVE",
"1981 -28 OFFCURVE",
"1981 0 CURVE SMOOTH",
"1981 28 OFFCURVE",
"1959 50 OFFCURVE",
"1931 50 CURVE SMOOTH",
"1781 50 LINE SMOOTH",
"1731.593 50 OFFCURVE",
"1687.067 82.222 OFFCURVE",
"1666.722 135.089 CURVE SMOOTH",
"1244 1297 LINE SMOOTH",
"1208 1396 OFFCURVE",
"1134 1450 OFFCURVE",
"1033 1450 CURVE SMOOTH",
"753 1450 LINE SMOOTH",
"703.69 1450 OFFCURVE",
"665.816 1436.238 OFFCURVE",
"642.451 1410.932 CURVE",
"606.903 1436.607 OFFCURVE",
"563.3 1450 OFFCURVE",
"513 1450 CURVE SMOOTH",
"-187 1450 LINE SMOOTH",
"-215 1450 OFFCURVE",
"-237 1428 OFFCURVE",
"-237 1400 CURVE SMOOTH",
"-237 1372 OFFCURVE",
"-215 1350 OFFCURVE",
"-187 1350 CURVE SMOOTH",
"78.013 1350 LINE",
"663 -257 LINE SMOOTH",
"670 -276 OFFCURVE",
"688 -290 OFFCURVE",
"710 -290 CURVE SMOOTH"
);
}
);
width = 1676;
},
{
anchors = (
{
name = bottom;
position = "{546, -240}";
},
{
name = top;
position = "{1143, 1400}";
}
);
layerId = m004;
paths = (
{
closed = 1;
nodes = (
"48 -290 OFFCURVE",
"66 -276 OFFCURVE",
"73 -257 CURVE SMOOTH",
"657.987 1350 LINE",
"1023 1350 LINE SMOOTH",
"1052 1350 OFFCURVE",
"1064 1329 OFFCURVE",
"1052 1297 CURVE SMOOTH",
"499 -223 LINE SMOOTH",
"488 -249 OFFCURVE",
"506 -290 OFFCURVE",
"546 -290 CURVE SMOOTH",
"568 -290 OFFCURVE",
"586 -276 OFFCURVE",
"593 -257 CURVE SMOOTH",
"1146 1263 LINE SMOOTH",
"1170 1329 OFFCURVE",
"1199 1350 OFFCURVE",
"1263 1350 CURVE SMOOTH",
"1543 1350 LINE SMOOTH",
"1572 1350 OFFCURVE",
"1584 1329 OFFCURVE",
"1572 1297 CURVE SMOOTH",
"1019 -223 LINE SMOOTH",
"1008 -249 OFFCURVE",
"1026 -290 OFFCURVE",
"1066 -290 CURVE SMOOTH",
"1088 -290 OFFCURVE",
"1106 -276 OFFCURVE",
"1113 -257 CURVE SMOOTH",
"1195.678 -29.747 LINE",
"1216.584 -42.711 OFFCURVE",
"1242.255 -50 OFFCURVE",
"1271 -50 CURVE SMOOTH",
"1421 -50 LINE SMOOTH",
"1449 -50 OFFCURVE",
"1471 -28 OFFCURVE",
"1471 0 CURVE SMOOTH",
"1471 28 OFFCURVE",
"1449 50 OFFCURVE",
"1421 50 CURVE SMOOTH",
"1271 50 LINE SMOOTH",
"1243 50 OFFCURVE",
"1232 68 OFFCURVE",
"1241.563 96.374 CURVE",
"1666 1263 LINE",
"1708 1379 OFFCURVE",
"1655 1450 OFFCURVE",
"1543 1450 CURVE SMOOTH",
"1263 1450 LINE SMOOTH",
"1212.7 1450 OFFCURVE",
"1169.097 1436.607 OFFCURVE",
"1133.549 1410.932 CURVE",
"1110.184 1436.238 OFFCURVE",
"1072.31 1450 OFFCURVE",
"1023 1450 CURVE",
"323 1450 LINE",
"295 1450 OFFCURVE",
"273 1428 OFFCURVE",
"273 1400 CURVE SMOOTH",
"273 1372 OFFCURVE",
"295 1350 OFFCURVE",
"323 1350 CURVE SMOOTH",
"551.61 1350 LINE",
"-21 -223 LINE SMOOTH",
"-32 -249 OFFCURVE",
"-14 -290 OFFCURVE",
"26 -290 CURVE SMOOTH"
);
}
);
width = 1676;
},
{
anchors = (
{
name = bottom;
position = "{888, -240}";
},
{
name = top;
position = "{888, 1400}";
}
);
layerId = m005;
paths = (
{
closed = 1;
nodes = (
"396 -290 OFFCURVE",
"418 -268 OFFCURVE",
"418 -240 CURVE SMOOTH",
"418 1350 LINE",
"768 1350 LINE SMOOTH",
"827 1350 OFFCURVE",
"838 1339 OFFCURVE",
"838 1280 CURVE SMOOTH",
"838 -240 LINE SMOOTH",
"838 -268 OFFCURVE",
"860 -290 OFFCURVE",
"888 -290 CURVE SMOOTH",
"916 -290 OFFCURVE",
"938 -268 OFFCURVE",
"938 -240 CURVE SMOOTH",
"938 1280 LINE SMOOTH",
"938 1339 OFFCURVE",
"949 1350 OFFCURVE",
"1008 1350 CURVE SMOOTH",
"1288 1350 LINE SMOOTH",
"1347 1350 OFFCURVE",
"1358 1339 OFFCURVE",
"1358 1280 CURVE SMOOTH",
"1358 -240 LINE SMOOTH",
"1358 -268 OFFCURVE",
"1380 -290 OFFCURVE",
"1408 -290 CURVE SMOOTH",
"1436 -290 OFFCURVE",
"1458 -268 OFFCURVE",
"1458 -240 CURVE SMOOTH",
"1458 -36.044 LINE",
"1478.705 -45.048 OFFCURVE",
"1501.683 -50 OFFCURVE",
"1526 -50 CURVE SMOOTH",
"3676 -50 LINE SMOOTH",
"3704 -50 OFFCURVE",
"3726 -28 OFFCURVE",
"3726 0 CURVE SMOOTH",
"3726 28 OFFCURVE",
"3704 50 OFFCURVE",
"3676 50 CURVE SMOOTH",
"1526 50 LINE SMOOTH",
"1481 50 OFFCURVE",
"1458 73 OFFCURVE",
"1458 120 CURVE SMOOTH",
"1458 1280 LINE SMOOTH",
"1458 1388 OFFCURVE",
"1396 1450 OFFCURVE",
"1288 1450 CURVE SMOOTH",
"1008 1450 LINE SMOOTH",
"957.319 1450 OFFCURVE",
"916.768 1436.347 OFFCURVE",
"888 1410.694 CURVE",
"859.232 1436.347 OFFCURVE",
"818.681 1450 OFFCURVE",
"768 1450 CURVE",
"68 1450 LINE",
"40 1450 OFFCURVE",
"18 1428 OFFCURVE",
"18 1400 CURVE SMOOTH",
"18 1372 OFFCURVE",
"40 1350 OFFCURVE",
"68 1350 CURVE SMOOTH",
"318 1350 LINE",
"318 -240 LINE SMOOTH",
"318 -268 OFFCURVE",
"340 -290 OFFCURVE",
"368 -290 CURVE SMOOTH"
);
}
);
width = 3676;
},
{
anchors = (
{
name = bottom;
position = "{888, -240}";
},
{
name = top;
position = "{888, 1400}";
}
);
layerId = m006;
paths = (
{
closed = 1;
nodes = (
"396 -290 OFFCURVE",
"418 -268 OFFCURVE",
"418 -240 CURVE SMOOTH",
"418 1350 LINE",
"768 1350 LINE SMOOTH",
"827 1350 OFFCURVE",
"838 1339 OFFCURVE",
"838 1280 CURVE SMOOTH",
"838 -240 LINE SMOOTH",
"838 -268 OFFCURVE",
"860 -290 OFFCURVE",
"888 -290 CURVE SMOOTH",
"916 -290 OFFCURVE",
"938 -268 OFFCURVE",
"938 -240 CURVE SMOOTH",
"938 1280 LINE SMOOTH",
"938 1339 OFFCURVE",
"949 1350 OFFCURVE",
"1008 1350 CURVE SMOOTH",
"1288 1350 LINE SMOOTH",
"1347 1350 OFFCURVE",
"1358 1339 OFFCURVE",
"1358 1280 CURVE SMOOTH",
"1358 -240 LINE SMOOTH",
"1358 -268 OFFCURVE",
"1380 -290 OFFCURVE",
"1408 -290 CURVE SMOOTH",
"1436 -290 OFFCURVE",
"1458 -268 OFFCURVE",
"1458 -240 CURVE SMOOTH",
"1458 -36.044 LINE",
"1478.705 -45.048 OFFCURVE",
"1501.683 -50 OFFCURVE",
"1526 -50 CURVE SMOOTH",
"1676 -50 LINE SMOOTH",
"1704 -50 OFFCURVE",
"1726 -28 OFFCURVE",
"1726 0 CURVE SMOOTH",
"1726 28 OFFCURVE",
"1704 50 OFFCURVE",
"1676 50 CURVE SMOOTH",
"1526 50 LINE SMOOTH",
"1481 50 OFFCURVE",
"1458 73 OFFCURVE",
"1458 120 CURVE SMOOTH",
"1458 1280 LINE SMOOTH",
"1458 1388 OFFCURVE",
"1396 1450 OFFCURVE",
"1288 1450 CURVE SMOOTH",
"1008 1450 LINE SMOOTH",
"957.319 1450 OFFCURVE",
"916.768 1436.347 OFFCURVE",
"888 1410.694 CURVE",
"859.232 1436.347 OFFCURVE",
"818.681 1450 OFFCURVE",
"768 1450 CURVE",
"68 1450 LINE",
"40 1450 OFFCURVE",
"18 1428 OFFCURVE",
"18 1400 CURVE SMOOTH",
"18 1372 OFFCURVE",
"40 1350 OFFCURVE",
"68 1350 CURVE SMOOTH",
"318 1350 LINE",
"318 -240 LINE SMOOTH",
"318 -268 OFFCURVE",
"340 -290 OFFCURVE",
"368 -290 CURVE SMOOTH"
);
}
);
width = 1676;
}
);
leftKerningGroup = D;
rightKerningGroup = H;
unicode = 004D;
},
{
glyphname = N;
lastChange = "2021-04-29 15:54:39 +0000";
layers = (
{
anchors = (
{
name = bottom;
position = "{632, -240}";
},
{
name = top;
position = "{632, 1400}";
}
);
layerId = m003;
paths = (
{
closed = 1;
nodes = (
"424 -340 OFFCURVE",
"468 -296 OFFCURVE",
"468 -240 CURVE SMOOTH",
"468 1300 LINE",
"808 1300 LINE SMOOTH",
"828 1300 OFFCURVE",
"828 1300 OFFCURVE",
"828 1280 CURVE SMOOTH",
"828 -240 LINE SMOOTH",
"828 -296 OFFCURVE",
"872 -340 OFFCURVE",
"928 -340 CURVE SMOOTH",
"984 -340 OFFCURVE",
"1028 -296 OFFCURVE",
"1028 -240 CURVE SMOOTH",
"1028 -99 LINE",
"1034 -100 OFFCURVE",
"1040 -100 OFFCURVE",
"1046 -100 CURVE SMOOTH",
"1196 -100 LINE SMOOTH",
"1252 -100 OFFCURVE",
"1296 -56 OFFCURVE",
"1296 0 CURVE SMOOTH",
"1296 56 OFFCURVE",
"1252 100 OFFCURVE",
"1196 100 CURVE SMOOTH",
"1046 100 LINE SMOOTH",
"1028 100 OFFCURVE",
"1028 100 OFFCURVE",
"1028 120 CURVE SMOOTH",
"1028 1280 LINE SMOOTH",
"1028 1416 OFFCURVE",
"944 1500 OFFCURVE",
"808 1500 CURVE SMOOTH",
"68 1500 LINE SMOOTH",
"12 1500 OFFCURVE",
"-32 1456 OFFCURVE",
"-32 1400 CURVE SMOOTH",
"-32 1344 OFFCURVE",
"12 1300 OFFCURVE",
"68 1300 CURVE SMOOTH",
"268 1300 LINE",
"268 -240 LINE SMOOTH",
"268 -296 OFFCURVE",
"312 -340 OFFCURVE",
"368 -340 CURVE SMOOTH"
);
}
);
width = 1196;
},
{
anchors = (
{
name = bottom;
position = "{974, -240}";
},
{
name = top;
position = "{377, 1400}";
}
);
layerId = m002;
paths = (
{
closed = 1;
nodes = (
"750 -290 OFFCURVE",
"768 -249 OFFCURVE",
"757 -223 CURVE SMOOTH",
"184 1350 LINE",
"553 1350 LINE SMOOTH",
"617 1350 OFFCURVE",
"646 1329 OFFCURVE",
"670 1263 CURVE",
"1223 -257 LINE",
"1230 -276 OFFCURVE",
"1248 -290 OFFCURVE",
"1270 -290 CURVE SMOOTH",
"1310 -290 OFFCURVE",
"1328 -249 OFFCURVE",
"1317 -223 CURVE SMOOTH",
"1251.579 -43.181 LINE",
"1267.883 -47.625 OFFCURVE",
"1284.496 -50 OFFCURVE",
"1301 -50 CURVE SMOOTH",
"1451 -50 LINE SMOOTH",
"1479 -50 OFFCURVE",
"1501 -28 OFFCURVE",
"1501 0 CURVE SMOOTH",
"1501 28 OFFCURVE",
"1479 50 OFFCURVE",
"1451 50 CURVE SMOOTH",
"1301 50 LINE SMOOTH",
"1251.593 50 OFFCURVE",
"1207.067 82.222 OFFCURVE",
"1186.722 135.089 CURVE SMOOTH",
"764 1297 LINE SMOOTH",
"728 1396 OFFCURVE",
"654 1450 OFFCURVE",
"553 1450 CURVE SMOOTH",
"-187 1450 LINE SMOOTH",
"-215 1450 OFFCURVE",
"-237 1428 OFFCURVE",
"-237 1400 CURVE SMOOTH",
"-237 1372 OFFCURVE",
"-215 1350 OFFCURVE",
"-187 1350 CURVE SMOOTH",
"78.38 1350 LINE",
"663 -257 LINE SMOOTH",
"670 -276 OFFCURVE",
"688 -290 OFFCURVE",
"710 -290 CURVE SMOOTH"
);
}
);
width = 1196;
},
{
anchors = (
{
name = bottom;
position = "{290, -240}";
},
{
name = top;
position = "{887, 1400}";
}
);
layerId = m004;
paths = (
{
closed = 1;
nodes = (
"48 -290 OFFCURVE",
"66 -276 OFFCURVE",
"73 -257 CURVE SMOOTH",
"658 1350 LINE",
"1063 1350 LINE SMOOTH",
"1092 1350 OFFCURVE",
"1104 1329 OFFCURVE",
"1092 1297 CURVE SMOOTH",
"539 -223 LINE SMOOTH",
"528 -249 OFFCURVE",
"546 -290 OFFCURVE",
"586 -290 CURVE SMOOTH",
"608 -290 OFFCURVE",
"626 -276 OFFCURVE",
"633 -257 CURVE SMOOTH",
"715.678 -29.747 LINE",
"736.584 -42.711 OFFCURVE",
"762.255 -50 OFFCURVE",
"791 -50 CURVE SMOOTH",
"941 -50 LINE SMOOTH",
"969 -50 OFFCURVE",
"991 -28 OFFCURVE",
"991 0 CURVE SMOOTH",
"991 28 OFFCURVE",
"969 50 OFFCURVE",
"941 50 CURVE SMOOTH",
"791 50 LINE SMOOTH",
"763 50 OFFCURVE",
"752 68 OFFCURVE",
"761.563 96.374 CURVE",
"1186 1263 LINE",
"1228 1379 OFFCURVE",
"1175 1450 OFFCURVE",
"1063 1450 CURVE SMOOTH",
"323 1450 LINE SMOOTH",
"295 1450 OFFCURVE",
"273 1428 OFFCURVE",
"273 1400 CURVE SMOOTH",
"273 1372 OFFCURVE",
"295 1350 OFFCURVE",
"323 1350 CURVE SMOOTH",
"551.598 1350 LINE",
"-21 -223 LINE SMOOTH",
"-32 -249 OFFCURVE",
"-14 -290 OFFCURVE",
"26 -290 CURVE SMOOTH"
);
}
);
width = 1196;
},
{
anchors = (
{
name = bottom;
position = "{632, -240}";
},
{
name = top;
position = "{632, 1400}";
}
);
layerId = m005;
paths = (
{
closed = 1;
nodes = (
"396 -290 OFFCURVE",
"418 -268 OFFCURVE",
"418 -240 CURVE SMOOTH",
"418 1350 LINE",
"808 1350 LINE SMOOTH",
"867 1350 OFFCURVE",
"878 1339 OFFCURVE",
"878 1280 CURVE SMOOTH",
"878 -240 LINE SMOOTH",
"878 -268 OFFCURVE",
"900 -290 OFFCURVE",
"928 -290 CURVE SMOOTH",
"956 -290 OFFCURVE",
"978 -268 OFFCURVE",
"978 -240 CURVE SMOOTH",
"978 -36.044 LINE",
"998.705 -45.048 OFFCURVE",
"1021.683 -50 OFFCURVE",
"1046 -50 CURVE SMOOTH",
"3196 -50 LINE SMOOTH",
"3224 -50 OFFCURVE",
"3246 -28 OFFCURVE",
"3246 0 CURVE SMOOTH",
"3246 28 OFFCURVE",
"3224 50 OFFCURVE",
"3196 50 CURVE SMOOTH",
"1046 50 LINE SMOOTH",
"1001 50 OFFCURVE",
"978 73 OFFCURVE",
"978 120 CURVE SMOOTH",
"978 1280 LINE SMOOTH",
"978 1388 OFFCURVE",
"916 1450 OFFCURVE",
"808 1450 CURVE SMOOTH",
"68 1450 LINE SMOOTH",
"40 1450 OFFCURVE",
"18 1428 OFFCURVE",
"18 1400 CURVE SMOOTH",
"18 1372 OFFCURVE",
"40 1350 OFFCURVE",
"68 1350 CURVE SMOOTH",
"318 1350 LINE",
"318 -240 LINE SMOOTH",
"318 -268 OFFCURVE",
"340 -290 OFFCURVE",
"368 -290 CURVE SMOOTH"
);
}
);
width = 3196;
},
{
anchors = (
{
name = bottom;
position = "{632, -240}";
},
{
name = top;
position = "{632, 1400}";
}
);
layerId = m006;
paths = (
{
closed = 1;
nodes = (
"396 -290 OFFCURVE",
"418 -268 OFFCURVE",
"418 -240 CURVE SMOOTH",
"418 1350 LINE",
"808 1350 LINE SMOOTH",
"867 1350 OFFCURVE",
"878 1339 OFFCURVE",
"878 1280 CURVE SMOOTH",
"878 -240 LINE SMOOTH",
"878 -268 OFFCURVE",
"900 -290 OFFCURVE",
"928 -290 CURVE SMOOTH",
"956 -290 OFFCURVE",
"978 -268 OFFCURVE",
"978 -240 CURVE SMOOTH",
"978 -36.044 LINE",
"998.705 -45.048 OFFCURVE",
"1021.683 -50 OFFCURVE",
"1046 -50 CURVE SMOOTH",
"1196 -50 LINE SMOOTH",
"1224 -50 OFFCURVE",
"1246 -28 OFFCURVE",
"1246 0 CURVE SMOOTH",
"1246 28 OFFCURVE",
"1224 50 OFFCURVE",
"1196 50 CURVE SMOOTH",
"1046 50 LINE SMOOTH",
"1001 50 OFFCURVE",
"978 73 OFFCURVE",
"978 120 CURVE SMOOTH",
"978 1280 LINE SMOOTH",
"978 1388 OFFCURVE",
"916 1450 OFFCURVE",
"808 1450 CURVE SMOOTH",
"68 1450 LINE SMOOTH",
"40 1450 OFFCURVE",
"18 1428 OFFCURVE",
"18 1400 CURVE SMOOTH",
"18 1372 OFFCURVE",
"40 1350 OFFCURVE",
"68 1350 CURVE SMOOTH",
"318 1350 LINE",
"318 -240 LINE SMOOTH",
"318 -268 OFFCURVE",
"340 -290 OFFCURVE",
"368 -290 CURVE SMOOTH"
);
}
);
width = 1196;
}
);
leftKerningGroup = D;
rightKerningGroup = H;
unicode = 004E;
},
{
glyphname = Eng;
lastChange = "2021-04-29 15:54:39 +0000";
layers = (
{
anchors = (
{
name = bottom;
position = "{632, -240}";
},
{
name = top;
position = "{632, 1400}";
}
);
layerId = m003;
paths = (
{
closed = 1;
nodes = (
"424 -340 OFFCURVE",
"468 -296 OFFCURVE",
"468 -240 CURVE SMOOTH",
"468 1300 LINE",
"808 1300 LINE SMOOTH",
"828 1300 OFFCURVE",
"828 1300 OFFCURVE",
"828 1280 CURVE SMOOTH",
"828 -360 LINE SMOOTH",
"828 -380 OFFCURVE",
"828 -380 OFFCURVE",
"810 -380 CURVE SMOOTH",
"680 -380 LINE SMOOTH",
"624 -380 OFFCURVE",
"580 -424 OFFCURVE",
"580 -480 CURVE SMOOTH",
"580 -536 OFFCURVE",
"624 -580 OFFCURVE",
"680 -580 CURVE SMOOTH",
"810 -580 LINE SMOOTH",
"932 -580 OFFCURVE",
"1028 -484 OFFCURVE",
"1028 -360 CURVE SMOOTH",
"1028 -99 LINE",
"1034 -100 OFFCURVE",
"1040 -100 OFFCURVE",
"1046 -100 CURVE SMOOTH",
"1196 -100 LINE SMOOTH",
"1252 -100 OFFCURVE",
"1296 -56 OFFCURVE",
"1296 0 CURVE SMOOTH",
"1296 56 OFFCURVE",
"1252 100 OFFCURVE",
"1196 100 CURVE SMOOTH",
"1046 100 LINE SMOOTH",
"1028 100 OFFCURVE",
"1028 100 OFFCURVE",
"1028 120 CURVE SMOOTH",
"1028 1280 LINE SMOOTH",
"1028 1416 OFFCURVE",
"944 1500 OFFCURVE",
"808 1500 CURVE SMOOTH",
"68 1500 LINE SMOOTH",
"12 1500 OFFCURVE",
"-32 1456 OFFCURVE",
"-32 1400 CURVE SMOOTH",
"-32 1344 OFFCURVE",
"12 1300 OFFCURVE",
"68 1300 CURVE SMOOTH",
"268 1300 LINE",
"268 -240 LINE SMOOTH",
"268 -296 OFFCURVE",
"312 -340 OFFCURVE",
"368 -340 CURVE SMOOTH"
);
}
);
width = 1196;
},
{
anchors = (
{
name = bottom;
position = "{974, -240}";
},
{
name = top;
position = "{377, 1400}";
}
);
layerId = m002;
paths = (
{
closed = 1;
nodes = (
"750 -290 OFFCURVE",
"768 -249 OFFCURVE",
"757 -223 CURVE",
"184 1350 LINE",
"553 1350 LINE SMOOTH",
"617 1350 OFFCURVE",
"646 1329 OFFCURVE",
"670 1263 CURVE",
"1267 -377 LINE",
"1278 -409 OFFCURVE",
"1267 -430 OFFCURVE",
"1239 -430 CURVE SMOOTH",
"1109 -430 LINE SMOOTH",
"1081 -430 OFFCURVE",
"1059 -452 OFFCURVE",
"1059 -480 CURVE SMOOTH",
"1059 -508 OFFCURVE",
"1081 -530 OFFCURVE",
"1109 -530 CURVE SMOOTH",
"1239 -530 LINE SMOOTH",
"1340 -530 OFFCURVE",
"1398 -443 OFFCURVE",
"1361 -343 CURVE SMOOTH",
"1251.703 -43.215 LINE",
"1267.967 -47.637 OFFCURVE",
"1284.538 -50 OFFCURVE",
"1301 -50 CURVE SMOOTH",
"1451 -50 LINE SMOOTH",
"1479 -50 OFFCURVE",
"1501 -28 OFFCURVE",
"1501 0 CURVE SMOOTH",
"1501 28 OFFCURVE",
"1479 50 OFFCURVE",
"1451 50 CURVE SMOOTH",
"1301 50 LINE SMOOTH",
"1251.593 50 OFFCURVE",
"1207.067 82.222 OFFCURVE",
"1186.722 135.089 CURVE SMOOTH",
"764 1297 LINE SMOOTH",
"728 1396 OFFCURVE",
"654 1450 OFFCURVE",
"553 1450 CURVE SMOOTH",
"-187 1450 LINE SMOOTH",
"-215 1450 OFFCURVE",
"-237 1428 OFFCURVE",
"-237 1400 CURVE SMOOTH",
"-237 1372 OFFCURVE",
"-215 1350 OFFCURVE",
"-187 1350 CURVE SMOOTH",
"78.38 1350 LINE",
"663 -257 LINE SMOOTH",
"670 -276 OFFCURVE",
"688 -290 OFFCURVE",
"710 -290 CURVE SMOOTH"
);
}
);
width = 1196;
},
{
anchors = (
{
name = bottom;
position = "{290, -240}";
},
{
name = top;
position = "{887, 1400}";
}
);
layerId = m004;
paths = (
{
closed = 1;
nodes = (
"48 -290 OFFCURVE",
"66 -276 OFFCURVE",
"73 -257 CURVE SMOOTH",
"658 1350 LINE",
"1063 1350 LINE SMOOTH",
"1092 1350 OFFCURVE",
"1104 1329 OFFCURVE",
"1092 1297 CURVE SMOOTH",
"495 -343 LINE SMOOTH",
"475 -397 OFFCURVE",
"430 -430 OFFCURVE",
"381 -430 CURVE SMOOTH",
"251 -430 LINE SMOOTH",
"223 -430 OFFCURVE",
"201 -452 OFFCURVE",
"201 -480 CURVE SMOOTH",
"201 -508 OFFCURVE",
"223 -530 OFFCURVE",
"251 -530 CURVE SMOOTH",
"381 -530 LINE SMOOTH",
"469 -530 OFFCURVE",
"557 -464 OFFCURVE",
"589 -377 CURVE",
"715.678 -29.747 LINE",
"736.584 -42.711 OFFCURVE",
"762.255 -50 OFFCURVE",
"791 -50 CURVE SMOOTH",
"941 -50 LINE SMOOTH",
"969 -50 OFFCURVE",
"991 -28 OFFCURVE",
"991 0 CURVE SMOOTH",
"991 28 OFFCURVE",
"969 50 OFFCURVE",
"941 50 CURVE SMOOTH",
"791 50 LINE SMOOTH",
"763.218 50 OFFCURVE",
"752.172 67.721 OFFCURVE",
"761.344 95.714 CURVE",
"1186 1263 LINE",
"1228 1379 OFFCURVE",
"1175 1450 OFFCURVE",
"1063 1450 CURVE SMOOTH",
"323 1450 LINE SMOOTH",
"295 1450 OFFCURVE",
"273 1428 OFFCURVE",
"273 1400 CURVE SMOOTH",
"273 1372 OFFCURVE",
"295 1350 OFFCURVE",
"323 1350 CURVE SMOOTH",
"551.598 1350 LINE",
"-21 -223 LINE SMOOTH",
"-31 -250 OFFCURVE",
"-14 -290 OFFCURVE",
"26 -290 CURVE SMOOTH"
);
}
);
width = 1196;
},
{
anchors = (
{
name = bottom;
position = "{632, -240}";
},
{
name = top;
position = "{632, 1400}";
}
);
layerId = m005;
paths = (
{
closed = 1;
nodes = (
"396 -290 OFFCURVE",
"418 -268 OFFCURVE",
"418 -240 CURVE SMOOTH",
"418 1350 LINE",
"808 1350 LINE SMOOTH",
"867 1350 OFFCURVE",
"878 1339 OFFCURVE",
"878 1280 CURVE SMOOTH",
"878 -360 LINE SMOOTH",
"878 -407 OFFCURVE",
"855 -430 OFFCURVE",
"810 -430 CURVE SMOOTH",
"680 -430 LINE SMOOTH",
"652 -430 OFFCURVE",
"630 -452 OFFCURVE",
"630 -480 CURVE SMOOTH",
"630 -508 OFFCURVE",
"652 -530 OFFCURVE",
"680 -530 CURVE SMOOTH",
"810 -530 LINE SMOOTH",
"904 -530 OFFCURVE",
"978 -456 OFFCURVE",
"978 -360 CURVE SMOOTH",
"978 -36.044 LINE",
"998.705 -45.048 OFFCURVE",
"1021.683 -50 OFFCURVE",
"1046 -50 CURVE SMOOTH",
"3196 -50 LINE SMOOTH",
"3224 -50 OFFCURVE",
"3246 -28 OFFCURVE",
"3246 0 CURVE SMOOTH",
"3246 28 OFFCURVE",
"3224 50 OFFCURVE",
"3196 50 CURVE SMOOTH",
"1046 50 LINE SMOOTH",
"1001 50 OFFCURVE",
"978 73 OFFCURVE",
"978 120 CURVE SMOOTH",
"978 1280 LINE SMOOTH",
"978 1388 OFFCURVE",
"916 1450 OFFCURVE",
"808 1450 CURVE SMOOTH",
"68 1450 LINE SMOOTH",
"40 1450 OFFCURVE",
"18 1428 OFFCURVE",
"18 1400 CURVE SMOOTH",
"18 1372 OFFCURVE",
"40 1350 OFFCURVE",
"68 1350 CURVE SMOOTH",
"318 1350 LINE",
"318 -240 LINE SMOOTH",
"318 -268 OFFCURVE",
"340 -290 OFFCURVE",
"368 -290 CURVE SMOOTH"
);
}
);
width = 3196;
},
{
anchors = (
{
name = bottom;
position = "{632, -240}";
},
{
name = top;
position = "{632, 1400}";
}
);
layerId = m006;
paths = (
{
closed = 1;
nodes = (
"396 -290 OFFCURVE",
"418 -268 OFFCURVE",
"418 -240 CURVE SMOOTH",
"418 1350 LINE",
"808 1350 LINE SMOOTH",
"867 1350 OFFCURVE",
"878 1339 OFFCURVE",
"878 1280 CURVE SMOOTH",
"878 -360 LINE SMOOTH",
"878 -407 OFFCURVE",
"855 -430 OFFCURVE",
"810 -430 CURVE SMOOTH",
"680 -430 LINE SMOOTH",
"652 -430 OFFCURVE",
"630 -452 OFFCURVE",
"630 -480 CURVE SMOOTH",
"630 -508 OFFCURVE",
"652 -530 OFFCURVE",
"680 -530 CURVE SMOOTH",
"810 -530 LINE SMOOTH",
"904 -530 OFFCURVE",
"978 -456 OFFCURVE",
"978 -360 CURVE SMOOTH",
"978 -36.044 LINE",
"998.705 -45.048 OFFCURVE",
"1021.683 -50 OFFCURVE",
"1046 -50 CURVE SMOOTH",
"1196 -50 LINE SMOOTH",
"1224 -50 OFFCURVE",
"1246 -28 OFFCURVE",
"1246 0 CURVE SMOOTH",
"1246 28 OFFCURVE",
"1224 50 OFFCURVE",
"1196 50 CURVE SMOOTH",
"1046 50 LINE SMOOTH",
"1001 50 OFFCURVE",
"978 73 OFFCURVE",
"978 120 CURVE SMOOTH",
"978 1280 LINE SMOOTH",
"978 1388 OFFCURVE",
"916 1450 OFFCURVE",
"808 1450 CURVE SMOOTH",
"68 1450 LINE SMOOTH",
"40 1450 OFFCURVE",
"18 1428 OFFCURVE",
"18 1400 CURVE SMOOTH",
"18 1372 OFFCURVE",
"40 1350 OFFCURVE",
"68 1350 CURVE SMOOTH",
"318 1350 LINE",
"318 -240 LINE SMOOTH",
"318 -268 OFFCURVE",
"340 -290 OFFCURVE",
"368 -290 CURVE SMOOTH"
);
}
);
width = 1196;
}
);
unicode = 014A;
},
{
glyphname = O;
lastChange = "2021-04-29 17:01:39 +0000";
layers = (
{
anchors = (
{
name = bottom;
position = "{558, -240}";
},
{
name = center;
position = "{484, 700}";
},
{
name = ogonek;
position = "{992, 20}";
},
{
name = top;
position = "{558, 1400}";
},
{
name = topleft;
position = "{-110, 1400}";
},
{
name = topright;
position = "{842, 1400}";
}
);
layerId = m003;
paths = (
{
closed = 1;
nodes = (
"730 -340 LINE SMOOTH",
"866 -340 OFFCURVE",
"950 -256 OFFCURVE",
"950 -120 CURVE",
"950 1280 LINE",
"950 1416 OFFCURVE",
"866 1500 OFFCURVE",
"730 1500 CURVE SMOOTH",
"370 1500 LINE SMOOTH",
"234 1500 OFFCURVE",
"150 1416 OFFCURVE",
"150 1280 CURVE SMOOTH",
"150 -120 LINE SMOOTH",
"150 -256 OFFCURVE",
"234 -340 OFFCURVE",
"370 -340 CURVE SMOOTH"
);
},
{
closed = 1;
nodes = (
"350 -140 OFFCURVE",
"350 -140 OFFCURVE",
"350 -120 CURVE SMOOTH",
"350 1280 LINE SMOOTH",
"350 1300 OFFCURVE",
"350 1300 OFFCURVE",
"370 1300 CURVE SMOOTH",
"730 1300 LINE SMOOTH",
"750 1300 OFFCURVE",
"750 1300 OFFCURVE",
"750 1280 CURVE SMOOTH",
"750 -120 LINE SMOOTH",
"750 -140 OFFCURVE",
"750 -140 OFFCURVE",
"730 -140 CURVE SMOOTH",
"370 -140 LINE SMOOTH"
);
}
);
width = 1118;
},
{
anchors = (
{
name = bottom;
position = "{900, -240}";
},
{
name = center;
position = "{484, 700}";
},
{
name = ogonek;
position = "{1239, 20}";
},
{
name = top;
position = "{303, 1400}";
},
{
name = topleft;
position = "{-365, 1400}";
},
{
name = topright;
position = "{587, 1400}";
}
);
layerId = m002;
paths = (
{
closed = 1;
nodes = (
"1072 -290 LINE SMOOTH",
"1186 -290 OFFCURVE",
"1238 -217 OFFCURVE",
"1195 -103 CURVE",
"686 1297 LINE",
"650 1396 OFFCURVE",
"576 1450 OFFCURVE",
"475 1450 CURVE SMOOTH",
"115 1450 LINE SMOOTH",
"3 1450 OFFCURVE",
"-50 1379 OFFCURVE",
"-8 1263 CURVE SMOOTH",
"501 -137 LINE SMOOTH",
"538 -236 OFFCURVE",
"610 -290 OFFCURVE",
"712 -290 CURVE SMOOTH"
);
},
{
closed = 1;
nodes = (
"649 -190 OFFCURVE",
"620 -169 OFFCURVE",
"595 -103 CURVE SMOOTH",
"86 1297 LINE SMOOTH",
"74 1329 OFFCURVE",
"86 1350 OFFCURVE",
"115 1350 CURVE SMOOTH",
"475 1350 LINE SMOOTH",
"539 1350 OFFCURVE",
"568 1329 OFFCURVE",
"592 1263 CURVE SMOOTH",
"1101 -137 LINE SMOOTH",
"1113 -169 OFFCURVE",
"1102 -190 OFFCURVE",
"1072 -190 CURVE SMOOTH",
"712 -190 LINE SMOOTH"
);
}
);
width = 1118;
},
{
anchors = (
{
name = bottom;
position = "{216, -240}";
},
{
name = center;
position = "{484, 700}";
},
{
name = ogonek;
position = "{745, 20}";
},
{
name = top;
position = "{813, 1400}";
},
{
name = topleft;
position = "{145, 1400}";
},
{
name = topright;
position = "{1097, 1400}";
}
);
layerId = m004;
paths = (
{
closed = 1;
nodes = (
"388 -290 LINE SMOOTH",
"490 -290 OFFCURVE",
"562 -236 OFFCURVE",
"599 -137 CURVE",
"1108 1263 LINE",
"1150 1379 OFFCURVE",
"1097 1450 OFFCURVE",
"985 1450 CURVE SMOOTH",
"625 1450 LINE SMOOTH",
"524 1450 OFFCURVE",
"450 1396 OFFCURVE",
"414 1297 CURVE SMOOTH",
"-95 -103 LINE SMOOTH",
"-138 -217 OFFCURVE",
"-86 -290 OFFCURVE",
"28 -290 CURVE SMOOTH"
);
},
{
closed = 1;
nodes = (
"-2 -190 OFFCURVE",
"-13 -169 OFFCURVE",
"-1 -137 CURVE SMOOTH",
"508 1263 LINE SMOOTH",
"532 1329 OFFCURVE",
"561 1350 OFFCURVE",
"625 1350 CURVE SMOOTH",
"985 1350 LINE SMOOTH",
"1014 1350 OFFCURVE",
"1026 1329 OFFCURVE",
"1014 1297 CURVE",
"505 -103 LINE SMOOTH",
"481 -169 OFFCURVE",
"451 -190 OFFCURVE",
"388 -190 CURVE SMOOTH",
"28 -190 LINE SMOOTH"
);
}
);
width = 1118;
},
{
anchors = (
{
name = bottom;
position = "{558, -240}";
},
{
name = center;
position = "{484, 700}";
},
{
name = ogonek;
position = "{992, 20}";
},
{
name = top;
position = "{558, 1400}";
},
{
name = topleft;
position = "{-110, 1400}";
},
{
name = topright;
position = "{842, 1400}";
}
);
layerId = m005;
paths = (
{
closed = 1;
nodes = (
"730 -290 LINE SMOOTH",
"838 -290 OFFCURVE",
"900 -228 OFFCURVE",
"900 -120 CURVE",
"900 1280 LINE",
"900 1388 OFFCURVE",
"838 1450 OFFCURVE",
"730 1450 CURVE SMOOTH",
"370 1450 LINE SMOOTH",
"262 1450 OFFCURVE",
"200 1388 OFFCURVE",
"200 1280 CURVE SMOOTH",
"200 -120 LINE SMOOTH",
"200 -228 OFFCURVE",
"262 -290 OFFCURVE",
"370 -290 CURVE SMOOTH"
);
},
{
closed = 1;
nodes = (
"311 -190 OFFCURVE",
"300 -179 OFFCURVE",
"300 -120 CURVE SMOOTH",
"300 1280 LINE SMOOTH",
"300 1339 OFFCURVE",
"311 1350 OFFCURVE",
"370 1350 CURVE SMOOTH",
"730 1350 LINE SMOOTH",
"789 1350 OFFCURVE",
"800 1339 OFFCURVE",
"800 1280 CURVE SMOOTH",
"800 -120 LINE SMOOTH",
"800 -179 OFFCURVE",
"789 -190 OFFCURVE",
"730 -190 CURVE SMOOTH",
"370 -190 LINE SMOOTH"
);
}
);
width = 1118;
},
{
anchors = (
{
name = bottom;
position = "{558, -240}";
},
{
name = center;
position = "{484, 700}";
},
{
name = ogonek;
position = "{992, 20}";
},
{
name = top;
position = "{558, 1400}";
},
{
name = topleft;
position = "{-110, 1400}";
},
{
name = topright;
position = "{842, 1400}";
}
);
layerId = m006;
paths = (
{
closed = 1;
nodes = (
"730 -290 LINE SMOOTH",
"838 -290 OFFCURVE",
"900 -228 OFFCURVE",
"900 -120 CURVE",
"900 1280 LINE",
"900 1388 OFFCURVE",
"838 1450 OFFCURVE",
"730 1450 CURVE SMOOTH",
"370 1450 LINE SMOOTH",
"262 1450 OFFCURVE",
"200 1388 OFFCURVE",
"200 1280 CURVE SMOOTH",
"200 -120 LINE SMOOTH",
"200 -228 OFFCURVE",
"262 -290 OFFCURVE",
"370 -290 CURVE SMOOTH"
);
},
{
closed = 1;
nodes = (
"311 -190 OFFCURVE",
"300 -179 OFFCURVE",
"300 -120 CURVE SMOOTH",
"300 1280 LINE SMOOTH",
"300 1339 OFFCURVE",
"311 1350 OFFCURVE",
"370 1350 CURVE SMOOTH",
"730 1350 LINE SMOOTH",
"789 1350 OFFCURVE",
"800 1339 OFFCURVE",
"800 1280 CURVE SMOOTH",
"800 -120 LINE SMOOTH",
"800 -179 OFFCURVE",
"789 -190 OFFCURVE",
"730 -190 CURVE SMOOTH",
"370 -190 LINE SMOOTH"
);
}
);
width = 1118;
}
);
leftKerningGroup = O;
rightKerningGroup = H;
unicode = 004F;
},
{
glyphname = Oslash;
lastChange = "2021-04-29 15:54:39 +0000";
layers = (
{
anchors = (
{
name = bottom;
position = "{600, 0}";
},
{
name = top;
position = "{600, 1400}";
}
);
components = (
{
name = O;
}
);
layerId = m003;
paths = (
{
closed = 1;
nodes = (
"211 -480 OFFCURVE",
"248 -454 OFFCURVE",
"262 -417 CURVE SMOOTH",
"1026 1483 LINE",
"1053 1541 OFFCURVE",
"1012 1622 OFFCURVE",
"934 1622 CURVE SMOOTH",
"893 1622 OFFCURVE",
"856 1596 OFFCURVE",
"842 1559 CURVE SMOOTH",
"78 -341 LINE",
"51 -399 OFFCURVE",
"92 -480 OFFCURVE",
"170 -480 CURVE SMOOTH"
);
}
);
width = 1118;
},
{
anchors = (
{
name = bottom;
position = "{855, 0}";
},
{
name = top;
position = "{345, 1400}";
}
);
components = (
{
name = O;
}
);
layerId = m002;
paths = (
{
closed = 1;
nodes = (
"590 -430 OFFCURVE",
"612 -409 OFFCURVE",
"613 -382 CURVE SMOOTH",
"685 1520 LINE SMOOTH",
"686 1548 OFFCURVE",
"663 1572 OFFCURVE",
"635 1572 CURVE SMOOTH",
"608 1572 OFFCURVE",
"586 1551 OFFCURVE",
"585 1524 CURVE SMOOTH",
"513 -378 LINE SMOOTH",
"512 -406 OFFCURVE",
"535 -430 OFFCURVE",
"563 -430 CURVE SMOOTH"
);
}
);
width = 1118;
},
{
anchors = (
{
name = bottom;
position = "{345, 0}";
},
{
name = top;
position = "{855, 1400}";
}
);
components = (
{
name = O;
}
);
layerId = m004;
paths = (
{
closed = 1;
nodes = (
"-207 -430 OFFCURVE",
"-192 -422 OFFCURVE",
"-183 -410 CURVE SMOOTH",
"1273 1492 LINE SMOOTH",
"1297 1524 OFFCURVE",
"1275 1572 OFFCURVE",
"1233 1572 CURVE SMOOTH",
"1217 1572 OFFCURVE",
"1202 1564 OFFCURVE",
"1193 1552 CURVE SMOOTH",
"-263 -350 LINE SMOOTH",
"-287 -382 OFFCURVE",
"-265 -430 OFFCURVE",
"-223 -430 CURVE SMOOTH"
);
}
);
width = 1118;
},
{
anchors = (
{
name = bottom;
position = "{600, 0}";
},
{
name = top;
position = "{600, 1400}";
}
);
components = (
{
name = O;
}
);
layerId = m005;
paths = (
{
closed = 1;
nodes = (
"191 -430 OFFCURVE",
"209 -417 OFFCURVE",
"216 -399 CURVE SMOOTH",
"980 1503 LINE SMOOTH",
"993 1528 OFFCURVE",
"976 1572 OFFCURVE",
"934 1572 CURVE SMOOTH",
"913 1572 OFFCURVE",
"895 1559 OFFCURVE",
"888 1541 CURVE SMOOTH",
"124 -361 LINE SMOOTH",
"111 -386 OFFCURVE",
"128 -430 OFFCURVE",
"170 -430 CURVE SMOOTH"
);
}
);
width = 3118;
},
{
anchors = (
{
name = bottom;
position = "{600, 0}";
},
{
name = top;
position = "{600, 1400}";
}
);
components = (
{
name = O;
}
);
layerId = m006;
paths = (
{
closed = 1;
nodes = (
"191 -430 OFFCURVE",
"209 -417 OFFCURVE",
"216 -399 CURVE SMOOTH",
"980 1503 LINE SMOOTH",
"993 1528 OFFCURVE",
"976 1572 OFFCURVE",
"934 1572 CURVE SMOOTH",
"913 1572 OFFCURVE",
"895 1559 OFFCURVE",
"888 1541 CURVE SMOOTH",
"124 -361 LINE SMOOTH",
"111 -386 OFFCURVE",
"128 -430 OFFCURVE",
"170 -430 CURVE SMOOTH"
);
}
);
width = 1118;
}
);
leftKerningGroup = O;
rightKerningGroup = H;
unicode = 00D8;
},
{
glyphname = OE;
lastChange = "2021-04-29 15:54:39 +0000";
layers = (
{
anchors = (
{
name = bottom;
position = "{600, 0}";
},
{
name = center;
position = "{484, 700}";
},
{
name = ogonek;
position = "{992, 20}";
},
{
name = top;
position = "{600, 1400}";
},
{
name = topleft;
position = "{-110, 1400}";
},
{
name = topright;
position = "{842, 1400}";
}
);
layerId = m003;
paths = (
{
closed = 1;
nodes = (
"1310 -340 LINE SMOOTH",
"1488 -340 OFFCURVE",
"1600 -228 OFFCURVE",
"1600 -50 CURVE SMOOTH",
"1600 -110 LINE",
"1558 -95 OFFCURVE",
"1588 -100 OFFCURVE",
"1618 -100 CURVE SMOOTH",
"1728 -100 LINE SMOOTH",
"1784 -100 OFFCURVE",
"1828 -56 OFFCURVE",
"1828 0 CURVE SMOOTH",
"1828 56 OFFCURVE",
"1784 100 OFFCURVE",
"1728 100 CURVE SMOOTH",
"1618 100 LINE SMOOTH",
"1600 100 OFFCURVE",
"1600 100 OFFCURVE",
"1600 120 CURVE SMOOTH",
"1600 220 LINE SMOOTH",
"1600 276 OFFCURVE",
"1556 320 OFFCURVE",
"1500 320 CURVE SMOOTH",
"1444 320 OFFCURVE",
"1400 276 OFFCURVE",
"1400 220 CURVE SMOOTH",
"1400 -50 LINE SMOOTH",
"1400 -130 OFFCURVE",
"1390 -140 OFFCURVE",
"1310 -140 CURVE SMOOTH",
"950 -140 LINE",
"950 360 LINE",
"1230 360 LINE SMOOTH",
"1286 360 OFFCURVE",
"1330 404 OFFCURVE",
"1330 460 CURVE SMOOTH",
"1330 516 OFFCURVE",
"1286 560 OFFCURVE",
"1230 560 CURVE SMOOTH",
"950 560 LINE",
"950 1300 LINE",
"1260 1300 LINE SMOOTH",
"1281 1300 OFFCURVE",
"1281 1300 OFFCURVE",
"1280 1290 CURVE SMOOTH",
"1240 869 LINE SMOOTH",
"1236 811 OFFCURVE",
"1281 760 OFFCURVE",
"1340 760 CURVE SMOOTH",
"1391 760 OFFCURVE",
"1434 799 OFFCURVE",
"1440 850 CURVE SMOOTH",
"1480 1270 LINE SMOOTH",
"1494 1405 OFFCURVE",
"1405 1500 OFFCURVE",
"1260 1500 CURVE SMOOTH",
"370 1500 LINE SMOOTH",
"234 1500 OFFCURVE",
"150 1416 OFFCURVE",
"150 1280 CURVE SMOOTH",
"150 -120 LINE SMOOTH",
"150 -256 OFFCURVE",
"234 -340 OFFCURVE",
"370 -340 CURVE SMOOTH"
);
},
{
closed = 1;
nodes = (
"350 -140 OFFCURVE",
"350 -140 OFFCURVE",
"350 -120 CURVE SMOOTH",
"350 1280 LINE SMOOTH",
"350 1300 OFFCURVE",
"350 1300 OFFCURVE",
"370 1300 CURVE SMOOTH",
"750 1300 LINE",
"750 -140 LINE",
"370 -140 LINE SMOOTH"
);
}
);
width = 1726;
},
{
anchors = (
{
name = bottom;
position = "{855, 0}";
},
{
name = center;
position = "{484, 700}";
},
{
name = ogonek;
position = "{1239, 20}";
},
{
name = top;
position = "{345, 1400}";
},
{
name = topleft;
position = "{-365, 1400}";
},
{
name = topright;
position = "{587, 1400}";
}
);
layerId = m002;
paths = (
{
closed = 1;
nodes = (
"1652 -290 LINE SMOOTH",
"1801.157 -290 OFFCURVE",
"1873 -197 OFFCURVE",
"1824 -45 CURVE",
"1824 -45 LINE",
"1839.639 -48.252 OFFCURVE",
"1855.988 -50 OFFCURVE",
"1873 -50 CURVE SMOOTH",
"1983 -50 LINE SMOOTH",
"2011 -50 OFFCURVE",
"2033 -28 OFFCURVE",
"2033 0 CURVE SMOOTH",
"2033 28 OFFCURVE",
"2011 50 OFFCURVE",
"1983 50 CURVE SMOOTH",
"1873 50 LINE SMOOTH",
"1817.244 50 OFFCURVE",
"1782 71 OFFCURVE",
"1761.887 127.107 CURVE SMOOTH",
"1722 237 LINE SMOOTH",
"1715 256 OFFCURVE",
"1697 270 OFFCURVE",
"1675 270 CURVE SMOOTH",
"1635 270 OFFCURVE",
"1618 230 OFFCURVE",
"1628 203 CURVE SMOOTH",
"1726 -67 LINE",
"1753 -142 OFFCURVE",
"1724 -190 OFFCURVE",
"1652 -190 CURVE SMOOTH",
"1227 -190 LINE",
"1008.345 410 LINE",
"1317 410 LINE SMOOTH",
"1345 410 OFFCURVE",
"1367 432 OFFCURVE",
"1367 460 CURVE SMOOTH",
"1367 488 OFFCURVE",
"1345 510 OFFCURVE",
"1317 510 CURVE SMOOTH",
"972 510 LINE",
"666.379 1350 LINE",
"1005 1350 LINE SMOOTH",
"1074 1350 OFFCURVE",
"1105 1327 OFFCURVE",
"1121 1267 CURVE SMOOTH",
"1234 847 LINE SMOOTH",
"1240 826 OFFCURVE",
"1259 810 OFFCURVE",
"1282 810 CURVE SMOOTH",
"1313 810 OFFCURVE",
"1340 837 OFFCURVE",
"1330 873 CURVE SMOOTH",
"1217 1293 LINE SMOOTH",
"1191 1391 OFFCURVE",
"1114 1450 OFFCURVE",
"1005 1450 CURVE SMOOTH",
"115 1450 LINE SMOOTH",
"3 1450 OFFCURVE",
"-50 1379 OFFCURVE",
"-8 1263 CURVE SMOOTH",
"501 -137 LINE SMOOTH",
"537 -236 OFFCURVE",
"610 -290 OFFCURVE",
"712 -290 CURVE SMOOTH"
);
},
{
closed = 1;
nodes = (
"649 -190 OFFCURVE",
"619 -169 OFFCURVE",
"595 -103 CURVE SMOOTH",
"86 1297 LINE SMOOTH",
"74 1329 OFFCURVE",
"86 1350 OFFCURVE",
"115 1350 CURVE SMOOTH",
"560 1350 LINE",
"1120.625 -190 LINE",
"712 -190 LINE SMOOTH"
);
}
);
width = 1726;
},
{
anchors = (
{
name = bottom;
position = "{345, 0}";
},
{
name = center;
position = "{484, 700}";
},
{
name = ogonek;
position = "{745, 20}";
},
{
name = top;
position = "{855, 1400}";
},
{
name = topleft;
position = "{145, 1400}";
},
{
name = topright;
position = "{1097, 1400}";
}
);
layerId = m004;
paths = (
{
closed = 1;
nodes = (
"968 -290 LINE SMOOTH",
"1112 -290 OFFCURVE",
"1223 -208 OFFCURVE",
"1274 -67 CURVE SMOOTH",
"1286.199 -33.39 LINE",
"1307.121 -44.208 OFFCURVE",
"1333.065 -50 OFFCURVE",
"1363 -50 CURVE SMOOTH",
"1473 -50 LINE SMOOTH",
"1501 -50 OFFCURVE",
"1523 -28 OFFCURVE",
"1523 0 CURVE SMOOTH",
"1523 28 OFFCURVE",
"1501 50 OFFCURVE",
"1473 50 CURVE SMOOTH",
"1363 50 LINE SMOOTH",
"1334 50 OFFCURVE",
"1324 71 OFFCURVE",
"1336 103 CURVE SMOOTH",
"1372 203 LINE SMOOTH",
"1383 229 OFFCURVE",
"1365 270 OFFCURVE",
"1325 270 CURVE SMOOTH",
"1303 270 OFFCURVE",
"1285 256 OFFCURVE",
"1278 237 CURVE SMOOTH",
"1180 -33 LINE SMOOTH",
"1141 -141 OFFCURVE",
"1074 -190 OFFCURVE",
"968 -190 CURVE SMOOTH",
"579.379 -190 LINE",
"798 410 LINE",
"1143 410 LINE SMOOTH",
"1171 410 OFFCURVE",
"1193 432 OFFCURVE",
"1193 460 CURVE SMOOTH",
"1193 488 OFFCURVE",
"1171 510 OFFCURVE",
"1143 510 CURVE SMOOTH",
"834.034 510 LINE",
"1140 1350 LINE",
"1515 1350 LINE SMOOTH",
"1548 1350 OFFCURVE",
"1560 1331 OFFCURVE",
"1546 1301 CURVE SMOOTH",
"1353 881 LINE SMOOTH",
"1339 852 OFFCURVE",
"1357 810 OFFCURVE",
"1398 810 CURVE SMOOTH",
"1418 810 OFFCURVE",
"1436 822 OFFCURVE",
"1443 839 CURVE SMOOTH",
"1636 1259 LINE SMOOTH",
"1688 1368 OFFCURVE",
"1639 1450 OFFCURVE",
"1515 1450 CURVE SMOOTH",
"625 1450 LINE SMOOTH",
"524 1450 OFFCURVE",
"450 1396 OFFCURVE",
"414 1297 CURVE SMOOTH",
"-95 -103 LINE SMOOTH",
"-138 -217 OFFCURVE",
"-86 -290 OFFCURVE",
"28 -290 CURVE SMOOTH"
);
},
{
closed = 1;
nodes = (
"-2 -190 OFFCURVE",
"-13 -169 OFFCURVE",
"-1 -137 CURVE SMOOTH",
"508 1263 LINE SMOOTH",
"532 1329 OFFCURVE",
"561 1350 OFFCURVE",
"625 1350 CURVE SMOOTH",
"1033.654 1350 LINE",
"473 -190 LINE",
"28 -190 LINE SMOOTH"
);
}
);
width = 1726;
},
{
anchors = (
{
name = bottom;
position = "{600, 0}";
},
{
name = center;
position = "{484, 700}";
},
{
name = ogonek;
position = "{992, 20}";
},
{
name = top;
position = "{600, 1400}";
},
{
name = topleft;
position = "{-110, 1400}";
},
{
name = topright;
position = "{842, 1400}";
}
);
layerId = m005;
paths = (
{
closed = 1;
nodes = (
"1310 -290 LINE SMOOTH",
"1460 -290 OFFCURVE",
"1550 -200 OFFCURVE",
"1550 -50 CURVE SMOOTH",
"1550 -38.718 LINE",
"1570.109 -46.094 OFFCURVE",
"1592.889 -50 OFFCURVE",
"1618 -50 CURVE SMOOTH",
"3728 -50 LINE SMOOTH",
"3756 -50 OFFCURVE",
"3778 -28 OFFCURVE",
"3778 0 CURVE SMOOTH",
"3778 28 OFFCURVE",
"3756 50 OFFCURVE",
"3728 50 CURVE SMOOTH",
"1618 50 LINE SMOOTH",
"1563 50 OFFCURVE",
"1550 64 OFFCURVE",
"1550 120 CURVE SMOOTH",
"1550 220 LINE SMOOTH",
"1550 248 OFFCURVE",
"1528 270 OFFCURVE",
"1500 270 CURVE SMOOTH",
"1472 270 OFFCURVE",
"1450 248 OFFCURVE",
"1450 220 CURVE SMOOTH",
"1450 -50 LINE SMOOTH",
"1450 -151 OFFCURVE",
"1411 -190 OFFCURVE",
"1310 -190 CURVE SMOOTH",
"900 -190 LINE",
"900 410 LINE",
"1230 410 LINE SMOOTH",
"1258 410 OFFCURVE",
"1280 432 OFFCURVE",
"1280 460 CURVE SMOOTH",
"1280 488 OFFCURVE",
"1258 510 OFFCURVE",
"1230 510 CURVE SMOOTH",
"900 510 LINE",
"900 1350 LINE",
"1260 1350 LINE SMOOTH",
"1325 1350 OFFCURVE",
"1336 1338 OFFCURVE",
"1330 1285 CURVE SMOOTH",
"1290 865 LINE SMOOTH",
"1288 836 OFFCURVE",
"1310 810 OFFCURVE",
"1340 810 CURVE SMOOTH",
"1366 810 OFFCURVE",
"1387 830 OFFCURVE",
"1390 855 CURVE SMOOTH",
"1430 1275 LINE SMOOTH",
"1441 1381 OFFCURVE",
"1375 1450 OFFCURVE",
"1260 1450 CURVE SMOOTH",
"370 1450 LINE SMOOTH",
"262 1450 OFFCURVE",
"200 1388 OFFCURVE",
"200 1280 CURVE SMOOTH",
"200 -120 LINE SMOOTH",
"200 -228 OFFCURVE",
"262 -290 OFFCURVE",
"370 -290 CURVE SMOOTH"
);
},
{
closed = 1;
nodes = (
"311 -190 OFFCURVE",
"300 -179 OFFCURVE",
"300 -120 CURVE SMOOTH",
"300 1280 LINE SMOOTH",
"300 1339 OFFCURVE",
"311 1350 OFFCURVE",
"370 1350 CURVE SMOOTH",
"800 1350 LINE",
"800 -190 LINE",
"370 -190 LINE SMOOTH"
);
}
);
width = 3726;
},
{
anchors = (
{
name = bottom;
position = "{600, 0}";
},
{
name = center;
position = "{484, 700}";
},
{
name = ogonek;
position = "{992, 20}";
},
{
name = top;
position = "{600, 1400}";
},
{
name = topleft;
position = "{-110, 1400}";
},
{
name = topright;
position = "{842, 1400}";
}
);
layerId = m006;
paths = (
{
closed = 1;
nodes = (
"1310 -290 LINE SMOOTH",
"1460 -290 OFFCURVE",
"1550 -200 OFFCURVE",
"1550 -50 CURVE SMOOTH",
"1550 -38.718 LINE",
"1570.109 -46.094 OFFCURVE",
"1592.889 -50 OFFCURVE",
"1618 -50 CURVE SMOOTH",
"1728 -50 LINE SMOOTH",
"1756 -50 OFFCURVE",
"1778 -28 OFFCURVE",
"1778 0 CURVE SMOOTH",
"1778 28 OFFCURVE",
"1756 50 OFFCURVE",
"1728 50 CURVE SMOOTH",
"1618 50 LINE SMOOTH",
"1563 50 OFFCURVE",
"1550 64 OFFCURVE",
"1550 120 CURVE SMOOTH",
"1550 220 LINE SMOOTH",
"1550 248 OFFCURVE",
"1528 270 OFFCURVE",
"1500 270 CURVE SMOOTH",
"1472 270 OFFCURVE",
"1450 248 OFFCURVE",
"1450 220 CURVE SMOOTH",
"1450 -50 LINE SMOOTH",
"1450 -151 OFFCURVE",
"1411 -190 OFFCURVE",
"1310 -190 CURVE SMOOTH",
"900 -190 LINE",
"900 410 LINE",
"1230 410 LINE SMOOTH",
"1258 410 OFFCURVE",
"1280 432 OFFCURVE",
"1280 460 CURVE SMOOTH",
"1280 488 OFFCURVE",
"1258 510 OFFCURVE",
"1230 510 CURVE SMOOTH",
"900 510 LINE",
"900 1350 LINE",
"1260 1350 LINE SMOOTH",
"1325 1350 OFFCURVE",
"1336 1338 OFFCURVE",
"1330 1285 CURVE SMOOTH",
"1290 865 LINE SMOOTH",
"1288 836 OFFCURVE",
"1310 810 OFFCURVE",
"1340 810 CURVE SMOOTH",
"1366 810 OFFCURVE",
"1387 830 OFFCURVE",
"1390 855 CURVE SMOOTH",
"1430 1275 LINE SMOOTH",
"1441 1381 OFFCURVE",
"1375 1450 OFFCURVE",
"1260 1450 CURVE SMOOTH",
"370 1450 LINE SMOOTH",
"262 1450 OFFCURVE",
"200 1388 OFFCURVE",
"200 1280 CURVE SMOOTH",
"200 -120 LINE SMOOTH",
"200 -228 OFFCURVE",
"262 -290 OFFCURVE",
"370 -290 CURVE SMOOTH"
);
},
{
closed = 1;
nodes = (
"311 -190 OFFCURVE",
"300 -179 OFFCURVE",
"300 -120 CURVE SMOOTH",
"300 1280 LINE SMOOTH",
"300 1339 OFFCURVE",
"311 1350 OFFCURVE",
"370 1350 CURVE SMOOTH",
"800 1350 LINE",
"800 -190 LINE",
"370 -190 LINE SMOOTH"
);
}
);
width = 1726;
}
);
leftKerningGroup = O;
rightKerningGroup = E;
unicode = 0152;
},
{
glyphname = P;
lastChange = "2021-04-29 15:54:39 +0000";
layers = (
{
anchors = (
{
name = bottom;
position = "{366, -240}";
},
{
name = top;
position = "{640, 1400}";
}
);
layerId = m003;
paths = (
{
closed = 1;
nodes = (
"424 -340 OFFCURVE",
"468 -296 OFFCURVE",
"468 -240 CURVE SMOOTH",
"468 170 LINE",
"818 170 LINE SMOOTH",
"958 170 OFFCURVE",
"1029 258 OFFCURVE",
"1038 384 CURVE SMOOTH",
"1098 1274 LINE SMOOTH",
"1107 1415 OFFCURVE",
"1012 1500 OFFCURVE",
"878 1500 CURVE SMOOTH",
"68 1500 LINE SMOOTH",
"12 1500 OFFCURVE",
"-32 1456 OFFCURVE",
"-32 1400 CURVE SMOOTH",
"-32 1344 OFFCURVE",
"12 1300 OFFCURVE",
"68 1300 CURVE SMOOTH",
"268 1300 LINE",
"268 -240 LINE SMOOTH",
"268 -296 OFFCURVE",
"312 -340 OFFCURVE",
"368 -340 CURVE SMOOTH"
);
},
{
closed = 1;
nodes = (
"468 1300 LINE",
"878 1300 LINE SMOOTH",
"899 1300 OFFCURVE",
"899 1300 OFFCURVE",
"898 1286 CURVE SMOOTH",
"838 396 LINE SMOOTH",
"836 370 OFFCURVE",
"836 370 OFFCURVE",
"818 370 CURVE SMOOTH",
"468 370 LINE"
);
},
{
closed = 1;
nodes = (
"960 100 LINE SMOOTH",
"904 100 OFFCURVE",
"860 56 OFFCURVE",
"860 0 CURVE SMOOTH",
"860 -56 OFFCURVE",
"904 -100 OFFCURVE",
"960 -100 CURVE SMOOTH",
"1148 -100 LINE SMOOTH",
"1204 -100 OFFCURVE",
"1248 -56 OFFCURVE",
"1248 0 CURVE SMOOTH",
"1248 56 OFFCURVE",
"1204 100 OFFCURVE",
"1148 100 CURVE SMOOTH"
);
}
);
width = 1148;
},
{
anchors = (
{
name = bottom;
position = "{708, -240}";
},
{
name = top;
position = "{385, 1400}";
}
);
background = {
paths = (
{
closed = 1;
nodes = (
"750 -290 OFFCURVE",
"768 -249 OFFCURVE",
"757 -223 CURVE SMOOTH",
"614 170 LINE",
"993 170 LINE SMOOTH",
"1112 170 OFFCURVE",
"1148 247 OFFCURVE",
"1117 354 CURVE SMOOTH",
"835 1294 LINE SMOOTH",
"805 1397 OFFCURVE",
"723 1450 OFFCURVE",
"623 1450 CURVE SMOOTH",
"-187 1450 LINE SMOOTH",
"-215 1450 OFFCURVE",
"-237 1428 OFFCURVE",
"-237 1400 CURVE SMOOTH",
"-237 1372 OFFCURVE",
"-215 1350 OFFCURVE",
"-187 1350 CURVE SMOOTH",
"78.406 1350 LINE",
"663 -257 LINE SMOOTH",
"670 -276 OFFCURVE",
"688 -290 OFFCURVE",
"710 -290 CURVE SMOOTH"
);
},
{
closed = 1;
nodes = (
"184 1350 LINE",
"623 1350 LINE SMOOTH",
"688 1350 OFFCURVE",
"721 1328 OFFCURVE",
"739 1266 CURVE SMOOTH",
"1021 326 LINE SMOOTH",
"1031 292 OFFCURVE",
"1020 270 OFFCURVE",
"993 270 CURVE SMOOTH",
"578 270 LINE"
);
}
);
};
layerId = m002;
paths = (
{
closed = 1;
nodes = (
"750 -290 OFFCURVE",
"767 -249 OFFCURVE",
"757 -223 CURVE SMOOTH",
"596 220 LINE",
"975 220 LINE SMOOTH",
"1094 220 OFFCURVE",
"1130 297 OFFCURVE",
"1098 404 CURVE SMOOTH",
"835 1294 LINE SMOOTH",
"805 1397 OFFCURVE",
"723 1450 OFFCURVE",
"623 1450 CURVE SMOOTH",
"-187 1450 LINE SMOOTH",
"-215 1450 OFFCURVE",
"-237 1428 OFFCURVE",
"-237 1400 CURVE SMOOTH",
"-237 1372 OFFCURVE",
"-215 1350 OFFCURVE",
"-187 1350 CURVE SMOOTH",
"78.406 1350 LINE",
"663 -257 LINE SMOOTH",
"670 -276 OFFCURVE",
"688 -290 OFFCURVE",
"710 -290 CURVE SMOOTH"
);
},
{
closed = 1;
nodes = (
"184 1350 LINE",
"623 1350 LINE SMOOTH",
"688 1350 OFFCURVE",
"721 1327 OFFCURVE",
"739 1266 CURVE SMOOTH",
"1003 376 LINE SMOOTH",
"1013 342 OFFCURVE",
"1002 320 OFFCURVE",
"975 320 CURVE SMOOTH",
"560 320 LINE"
);
},
{
closed = 1;
nodes = (
"1215 50 LINE SMOOTH",
"1187 50 OFFCURVE",
"1165 28 OFFCURVE",
"1165 0 CURVE SMOOTH",
"1165 -28 OFFCURVE",
"1187 -50 OFFCURVE",
"1215 -50 CURVE SMOOTH",
"1403 -50 LINE SMOOTH",
"1431 -50 OFFCURVE",
"1453 -28 OFFCURVE",
"1453 0 CURVE SMOOTH",
"1453 28 OFFCURVE",
"1431 50 OFFCURVE",
"1403 50 CURVE SMOOTH"
);
}
);
width = 1148;
},
{
anchors = (
{
name = bottom;
position = "{24, -240}";
},
{
name = top;
position = "{895, 1400}";
}
);
background = {
paths = (
{
closed = 1;
nodes = (
"48 -290 OFFCURVE",
"66 -276 OFFCURVE",
"73 -257 CURVE SMOOTH",
"228.02 170 LINE",
"643 170 LINE SMOOTH",
"746 170 OFFCURVE",
"811 225 OFFCURVE",
"853 320 CURVE SMOOTH",
"1255 1260 LINE SMOOTH",
"1305 1375 OFFCURVE",
"1248 1450 OFFCURVE",
"1133 1450 CURVE SMOOTH",
"323 1450 LINE SMOOTH",
"295 1450 OFFCURVE",
"273 1428 OFFCURVE",
"273 1400 CURVE SMOOTH",
"273 1372 OFFCURVE",
"295 1350 OFFCURVE",
"323 1350 CURVE SMOOTH",
"551.594 1350 LINE",
"-21 -223 LINE",
"-32 -249 OFFCURVE",
"-14 -290 OFFCURVE",
"26 -290 CURVE SMOOTH"
);
},
{
closed = 1;
nodes = (
"658 1350 LINE",
"1133 1350 LINE SMOOTH",
"1165 1350 OFFCURVE",
"1176 1330 OFFCURVE",
"1163 1300 CURVE SMOOTH",
"761 360 LINE SMOOTH",
"731 291 OFFCURVE",
"705 270 OFFCURVE",
"643 270 CURVE SMOOTH",
"264 270 LINE"
);
}
);
};
layerId = m004;
paths = (
{
closed = 1;
nodes = (
"48 -290 OFFCURVE",
"66 -276 OFFCURVE",
"73 -257 CURVE SMOOTH",
"246 220 LINE",
"661 220 LINE SMOOTH",
"764 220 OFFCURVE",
"830 275 OFFCURVE",
"871 370 CURVE SMOOTH",
"1255 1260 LINE SMOOTH",
"1305 1376 OFFCURVE",
"1248 1450 OFFCURVE",
"1133 1450 CURVE SMOOTH",
"323 1450 LINE SMOOTH",
"295 1450 OFFCURVE",
"273 1428 OFFCURVE",
"273 1400 CURVE SMOOTH",
"273 1372 OFFCURVE",
"295 1350 OFFCURVE",
"323 1350 CURVE SMOOTH",
"551.594 1350 LINE",
"-21 -223 LINE",
"-32 -249 OFFCURVE",
"-14 -290 OFFCURVE",
"26 -290 CURVE SMOOTH"
);
},
{
closed = 1;
nodes = (
"658 1350 LINE",
"1133 1350 LINE SMOOTH",
"1165 1350 OFFCURVE",
"1176 1330 OFFCURVE",
"1163 1300 CURVE SMOOTH",
"779 410 LINE SMOOTH",
"749 341 OFFCURVE",
"723 320 OFFCURVE",
"661 320 CURVE SMOOTH",
"282 320 LINE"
);
},
{
closed = 1;
nodes = (
"705 50 LINE SMOOTH",
"677 50 OFFCURVE",
"655 28 OFFCURVE",
"655 0 CURVE SMOOTH",
"655 -28 OFFCURVE",
"677 -50 OFFCURVE",
"705 -50 CURVE SMOOTH",
"893 -50 LINE SMOOTH",
"921 -50 OFFCURVE",
"943 -28 OFFCURVE",
"943 0 CURVE SMOOTH",
"943 28 OFFCURVE",
"921 50 OFFCURVE",
"893 50 CURVE SMOOTH"
);
}
);
width = 1148;
},
{
anchors = (
{
name = bottom;
position = "{366, -240}";
},
{
name = top;
position = "{640, 1400}";
}
);
layerId = m005;
paths = (
{
closed = 1;
nodes = (
"396 -290 OFFCURVE",
"418 -268 OFFCURVE",
"418 -240 CURVE SMOOTH",
"418 220 LINE",
"818 220 LINE SMOOTH",
"928 220 OFFCURVE",
"981 284 OFFCURVE",
"988 387 CURVE SMOOTH",
"1048 1277 LINE SMOOTH",
"1055 1387 OFFCURVE",
"985 1450 OFFCURVE",
"878 1450 CURVE SMOOTH",
"68 1450 LINE SMOOTH",
"40 1450 OFFCURVE",
"18 1428 OFFCURVE",
"18 1400 CURVE SMOOTH",
"18 1372 OFFCURVE",
"40 1350 OFFCURVE",
"68 1350 CURVE SMOOTH",
"318 1350 LINE",
"318 -240 LINE SMOOTH",
"318 -268 OFFCURVE",
"340 -290 OFFCURVE",
"368 -290 CURVE SMOOTH"
);
},
{
closed = 1;
nodes = (
"418 1350 LINE",
"878 1350 LINE SMOOTH",
"939 1350 OFFCURVE",
"952 1339 OFFCURVE",
"948 1283 CURVE SMOOTH",
"888 393 LINE SMOOTH",
"884 330 OFFCURVE",
"875 320 OFFCURVE",
"818 320 CURVE SMOOTH",
"418 320 LINE"
);
},
{
closed = 1;
nodes = (
"960 50 LINE SMOOTH",
"932 50 OFFCURVE",
"910 28 OFFCURVE",
"910 0 CURVE SMOOTH",
"910 -28 OFFCURVE",
"932 -50 OFFCURVE",
"960 -50 CURVE SMOOTH",
"3148 -50 LINE SMOOTH",
"3176 -50 OFFCURVE",
"3198 -28 OFFCURVE",
"3198 0 CURVE SMOOTH",
"3198 28 OFFCURVE",
"3176 50 OFFCURVE",
"3148 50 CURVE SMOOTH"
);
}
);
width = 3148;
},
{
anchors = (
{
name = bottom;
position = "{366, -240}";
},
{
name = top;
position = "{640, 1400}";
}
);
layerId = m006;
paths = (
{
closed = 1;
nodes = (
"396 -290 OFFCURVE",
"418 -268 OFFCURVE",
"418 -240 CURVE SMOOTH",
"418 220 LINE",
"818 220 LINE SMOOTH",
"928 220 OFFCURVE",
"981 284 OFFCURVE",
"988 387 CURVE SMOOTH",
"1048 1277 LINE SMOOTH",
"1055 1387 OFFCURVE",
"985 1450 OFFCURVE",
"878 1450 CURVE SMOOTH",
"68 1450 LINE SMOOTH",
"40 1450 OFFCURVE",
"18 1428 OFFCURVE",
"18 1400 CURVE SMOOTH",
"18 1372 OFFCURVE",
"40 1350 OFFCURVE",
"68 1350 CURVE SMOOTH",
"318 1350 LINE",
"318 -240 LINE SMOOTH",
"318 -268 OFFCURVE",
"340 -290 OFFCURVE",
"368 -290 CURVE SMOOTH"
);
},
{
closed = 1;
nodes = (
"418 1350 LINE",
"878 1350 LINE SMOOTH",
"939 1350 OFFCURVE",
"952 1339 OFFCURVE",
"948 1283 CURVE SMOOTH",
"888 393 LINE SMOOTH",
"884 330 OFFCURVE",
"875 320 OFFCURVE",
"818 320 CURVE SMOOTH",
"418 320 LINE"
);
},
{
closed = 1;
nodes = (
"960 50 LINE SMOOTH",
"932 50 OFFCURVE",
"910 28 OFFCURVE",
"910 0 CURVE SMOOTH",
"910 -28 OFFCURVE",
"932 -50 OFFCURVE",
"960 -50 CURVE SMOOTH",
"1148 -50 LINE SMOOTH",
"1176 -50 OFFCURVE",
"1198 -28 OFFCURVE",
"1198 0 CURVE SMOOTH",
"1198 28 OFFCURVE",
"1176 50 OFFCURVE",
"1148 50 CURVE SMOOTH"
);
}
);
width = 1148;
}
);
leftKerningGroup = D;
rightKerningGroup = P;
unicode = 0050;
},
{
glyphname = Thorn;
lastChange = "2021-04-29 15:54:39 +0000";
layers = (
{
anchors = (
{
name = bottom;
position = "{500, 0}";
},
{
name = top;
position = "{500, 1400}";
}
);
layerId = m003;
paths = (
{
closed = 1;
nodes = (
"424 -500 OFFCURVE",
"468 -456 OFFCURVE",
"468 -400 CURVE SMOOTH",
"468 -100 LINE",
"818 -100 LINE SMOOTH",
"867 -100 OFFCURVE",
"908 -89 OFFCURVE",
"942 -68 CURVE",
"975 -88 OFFCURVE",
"1014 -100 OFFCURVE",
"1056 -100 CURVE SMOOTH",
"1206 -100 LINE SMOOTH",
"1262 -100 OFFCURVE",
"1306 -56 OFFCURVE",
"1306 0 CURVE SMOOTH",
"1306 56 OFFCURVE",
"1262 100 OFFCURVE",
"1206 100 CURVE SMOOTH",
"1056 100 LINE SMOOTH",
"1037 100 OFFCURVE",
"1037 100 OFFCURVE",
"1038 114 CURVE SMOOTH",
"1098 1054 LINE SMOOTH",
"1108 1194 OFFCURVE",
"1012 1280 OFFCURVE",
"878 1280 CURVE SMOOTH",
"468 1280 LINE",
"468 1399 LINE SMOOTH",
"468 1456 OFFCURVE",
"424 1500 OFFCURVE",
"367 1500 CURVE SMOOTH",
"118 1500 LINE SMOOTH",
"62 1500 OFFCURVE",
"18 1456 OFFCURVE",
"18 1400 CURVE SMOOTH",
"18 1344 OFFCURVE",
"62 1300 OFFCURVE",
"118 1300 CURVE SMOOTH",
"268 1300 LINE",
"268 -400 LINE SMOOTH",
"268 -456 OFFCURVE",
"312 -500 OFFCURVE",
"368 -500 CURVE SMOOTH"
);
},
{
closed = 1;
nodes = (
"468 1080 LINE",
"878 1080 LINE SMOOTH",
"899 1080 OFFCURVE",
"899 1080 OFFCURVE",
"898 1066 CURVE SMOOTH",
"838 127 LINE SMOOTH",
"836 100 OFFCURVE",
"836 100 OFFCURVE",
"818 100 CURVE SMOOTH",
"468 100 LINE"
);
}
);
width = 1206;
},
{
anchors = (
{
name = bottom;
position = "{755, 0}";
},
{
name = top;
position = "{245, 1400}";
}
);
layerId = m002;
paths = (
{
closed = 1;
nodes = (
"808 -450 OFFCURVE",
"826 -409 OFFCURVE",
"815 -383 CURVE SMOOTH",
"693.891 -50 LINE",
"1073 -50 LINE SMOOTH",
"1127.494 -50 OFFCURVE",
"1164.583 -33.853 OFFCURVE",
"1185.803 -6.072 CURVE",
"1223.193 -33.479 OFFCURVE",
"1267.472 -50 OFFCURVE",
"1311 -50 CURVE SMOOTH",
"1461 -50 LINE SMOOTH",
"1489 -50 OFFCURVE",
"1511 -28 OFFCURVE",
"1511 0 CURVE SMOOTH",
"1511 28 OFFCURVE",
"1489 50 OFFCURVE",
"1461 50 CURVE SMOOTH",
"1311 50 LINE SMOOTH",
"1261.411 50 OFFCURVE",
"1216.74 82.46 OFFCURVE",
"1196.498 135.673 CURVE",
"915 1074 LINE SMOOTH",
"885 1177 OFFCURVE",
"803 1230 OFFCURVE",
"703 1230 CURVE SMOOTH",
"228.367 1230 LINE",
"170 1389 LINE SMOOTH",
"156 1426 OFFCURVE",
"124 1450 OFFCURVE",
"84 1450 CURVE SMOOTH",
"-137 1450 LINE SMOOTH",
"-165 1450 OFFCURVE",
"-187 1428 OFFCURVE",
"-187 1400 CURVE SMOOTH",
"-187 1372 OFFCURVE",
"-165 1350 OFFCURVE",
"-137 1350 CURVE SMOOTH",
"78 1350 LINE",
"721 -417 LINE SMOOTH",
"728 -436 OFFCURVE",
"746 -450 OFFCURVE",
"768 -450 CURVE SMOOTH"
);
},
{
closed = 1;
nodes = (
"264.736 1130 LINE",
"703 1130 LINE SMOOTH",
"768 1130 OFFCURVE",
"801 1108 OFFCURVE",
"819 1046 CURVE SMOOTH",
"1100.433 107.891 LINE",
"1111 73 OFFCURVE",
"1100 50 OFFCURVE",
"1073 50 CURVE SMOOTH",
"658 50 LINE"
);
}
);
width = 1206;
},
{
anchors = (
{
name = bottom;
position = "{245, 0}";
},
{
name = top;
position = "{755, 1400}";
}
);
layerId = m004;
paths = (
{
closed = 1;
nodes = (
"-10 -450 OFFCURVE",
"8 -436 OFFCURVE",
"15 -417 CURVE SMOOTH",
"148.474 -50 LINE",
"563 -50 LINE SMOOTH",
"617.837 -50 OFFCURVE",
"661.903 -34.41 OFFCURVE",
"697.462 -5.495 CURVE",
"721.021 -33.3 OFFCURVE",
"757.489 -50 OFFCURVE",
"801 -50 CURVE SMOOTH",
"951 -50 LINE SMOOTH",
"979 -50 OFFCURVE",
"1001 -28 OFFCURVE",
"1001 0 CURVE SMOOTH",
"1001 28 OFFCURVE",
"979 50 OFFCURVE",
"951 50 CURVE SMOOTH",
"801 50 LINE SMOOTH",
"773 50 OFFCURVE",
"762 70 OFFCURVE",
"773 100 CURVE",
"1175 1040 LINE SMOOTH",
"1225 1155 OFFCURVE",
"1168 1230 OFFCURVE",
"1053 1230 CURVE SMOOTH",
"613.998 1230 LINE",
"666 1372 LINE",
"681 1412 OFFCURVE",
"655 1450 OFFCURVE",
"612 1450 CURVE SMOOTH",
"373 1450 LINE SMOOTH",
"345 1450 OFFCURVE",
"323 1428 OFFCURVE",
"323 1400 CURVE SMOOTH",
"323 1372 OFFCURVE",
"345 1350 OFFCURVE",
"373 1350 CURVE SMOOTH",
"551 1350 LINE",
"-79 -383 LINE",
"-90 -409 OFFCURVE",
"-72 -450 OFFCURVE",
"-32 -450 CURVE SMOOTH"
);
},
{
closed = 1;
nodes = (
"578 1130 LINE",
"1053 1130 LINE SMOOTH",
"1085 1130 OFFCURVE",
"1096 1110 OFFCURVE",
"1083 1080 CURVE SMOOTH",
"681 140 LINE SMOOTH",
"651 71 OFFCURVE",
"625 50 OFFCURVE",
"563 50 CURVE SMOOTH",
"184.843 50 LINE"
);
}
);
width = 1206;
},
{
anchors = (
{
name = bottom;
position = "{500, 0}";
},
{
name = top;
position = "{500, 1400}";
}
);
layerId = m005;
paths = (
{
closed = 1;
nodes = (
"396 -450 OFFCURVE",
"418 -428 OFFCURVE",
"418 -400 CURVE SMOOTH",
"418 -50 LINE",
"818 -50 LINE SMOOTH",
"872.919 -50 OFFCURVE",
"913.38 -34.047 OFFCURVE",
"941.127 -5.253 CURVE",
"970.99 -33.211 OFFCURVE",
"1011.226 -50 OFFCURVE",
"1056 -50 CURVE SMOOTH",
"3206 -50 LINE SMOOTH",
"3234 -50 OFFCURVE",
"3256 -28 OFFCURVE",
"3256 0 CURVE SMOOTH",
"3256 28 OFFCURVE",
"3234 50 OFFCURVE",
"3206 50 CURVE SMOOTH",
"1056 50 LINE SMOOTH",
"1011.844 50 OFFCURVE",
"985 72 OFFCURVE",
"988.024 117.38 CURVE SMOOTH",
"1048 1057 LINE SMOOTH",
"1056 1167 OFFCURVE",
"985 1230 OFFCURVE",
"878 1230 CURVE SMOOTH",
"418 1230 LINE",
"418 1399 LINE SMOOTH",
"418 1428 OFFCURVE",
"396 1450 OFFCURVE",
"367 1450 CURVE SMOOTH",
"118 1450 LINE SMOOTH",
"90 1450 OFFCURVE",
"68 1428 OFFCURVE",
"68 1400 CURVE SMOOTH",
"68 1372 OFFCURVE",
"90 1350 OFFCURVE",
"118 1350 CURVE SMOOTH",
"318 1350 LINE",
"318 -400 LINE SMOOTH",
"318 -428 OFFCURVE",
"340 -450 OFFCURVE",
"368 -450 CURVE SMOOTH"
);
},
{
closed = 1;
nodes = (
"418 1130 LINE",
"878 1130 LINE SMOOTH",
"939 1130 OFFCURVE",
"952 1119 OFFCURVE",
"948 1063 CURVE SMOOTH",
"888 123 LINE SMOOTH",
"883 60 OFFCURVE",
"875 50 OFFCURVE",
"818 50 CURVE SMOOTH",
"418 50 LINE"
);
}
);
width = 3206;
},
{
anchors = (
{
name = bottom;
position = "{500, 0}";
},
{
name = top;
position = "{500, 1400}";
}
);
layerId = m006;
paths = (
{
closed = 1;
nodes = (
"396 -450 OFFCURVE",
"418 -428 OFFCURVE",
"418 -400 CURVE SMOOTH",
"418 -50 LINE",
"818 -50 LINE SMOOTH",
"872.919 -50 OFFCURVE",
"913.38 -34.047 OFFCURVE",
"941.127 -5.253 CURVE",
"970.99 -33.211 OFFCURVE",
"1011.226 -50 OFFCURVE",
"1056 -50 CURVE SMOOTH",
"1206 -50 LINE SMOOTH",
"1234 -50 OFFCURVE",
"1256 -28 OFFCURVE",
"1256 0 CURVE SMOOTH",
"1256 28 OFFCURVE",
"1234 50 OFFCURVE",
"1206 50 CURVE SMOOTH",
"1056 50 LINE SMOOTH",
"1011.844 50 OFFCURVE",
"985 72 OFFCURVE",
"988.024 117.38 CURVE SMOOTH",
"1048 1057 LINE SMOOTH",
"1056 1167 OFFCURVE",
"985 1230 OFFCURVE",
"878 1230 CURVE SMOOTH",
"418 1230 LINE",
"418 1399 LINE SMOOTH",
"418 1428 OFFCURVE",
"396 1450 OFFCURVE",
"367 1450 CURVE SMOOTH",
"118 1450 LINE SMOOTH",
"90 1450 OFFCURVE",
"68 1428 OFFCURVE",
"68 1400 CURVE SMOOTH",
"68 1372 OFFCURVE",
"90 1350 OFFCURVE",
"118 1350 CURVE SMOOTH",
"318 1350 LINE",
"318 -400 LINE SMOOTH",
"318 -428 OFFCURVE",
"340 -450 OFFCURVE",
"368 -450 CURVE SMOOTH"
);
},
{
closed = 1;
nodes = (
"418 1130 LINE",
"878 1130 LINE SMOOTH",
"939 1130 OFFCURVE",
"952 1119 OFFCURVE",
"948 1063 CURVE SMOOTH",
"888 123 LINE SMOOTH",
"883 60 OFFCURVE",
"875 50 OFFCURVE",
"818 50 CURVE SMOOTH",
"418 50 LINE"
);
}
);
width = 1206;
}
);
leftKerningGroup = D;
rightKerningGroup = Thorn;
unicode = 00DE;
},
